<svg xmlns="http://www.w3.org/2000/svg" width="45.397" height="43.935" viewBox="0 0 45.397 43.935">
  <g id="bacon" transform="translate(-0.002 -8.241)">
    <g id="Group_3018" data-name="Group 3018" transform="translate(32.409 22.467)">
      <g id="Group_3017" data-name="Group 3017">
        <path id="Path_26277" data-name="Path 26277" d="M367.01,168.941a.887.887,0,1,0,0,1.254A.886.886,0,0,0,367.01,168.941Z" transform="translate(-365.497 -168.681)" fill="#fff"/>
      </g>
    </g>
    <g id="Group_3020" data-name="Group 3020" transform="translate(0.002 8.241)">
      <g id="Group_3019" data-name="Group 3019" transform="translate(0 0)">
        <path id="Path_26278" data-name="Path 26278" d="M45.139,19.794,33.846,8.5a.887.887,0,0,0-1.352.116,7.734,7.734,0,0,1-3.014,2.428,8.771,8.771,0,0,0-4.632,4.631,6.721,6.721,0,0,1-1.477,2.179A8.819,8.819,0,0,1,20.925,19.6a8.519,8.519,0,0,0-2.763,1.867,10.582,10.582,0,0,0-2.134,3.03,6.983,6.983,0,0,1-3.656,3.656,10.542,10.542,0,0,0-3.03,2.133,8.49,8.49,0,0,0-1.867,2.764,8.809,8.809,0,0,1-1.744,2.445,6.682,6.682,0,0,1-2.179,1.477A10.458,10.458,0,0,0,.234,39.406a.887.887,0,0,0,.028,1.225l3.762,3.762,3.739,3.738.023.024,3.762,3.761a.887.887,0,0,0,1.282-.03A8.758,8.758,0,0,1,15.506,49.9a8.473,8.473,0,0,0,2.765-1.866A10.557,10.557,0,0,0,20.4,45a6.691,6.691,0,0,1,1.478-2.177,8.8,8.8,0,0,1,2.444-1.744,8.763,8.763,0,0,0,4.631-4.631A8.832,8.832,0,0,1,30.7,34.006a6.732,6.732,0,0,1,2.178-1.479,10.57,10.57,0,0,0,3.031-2.132,8.5,8.5,0,0,0,1.866-2.764,7,7,0,0,1,3.656-3.657,9.713,9.713,0,0,0,3.79-3.022A.887.887,0,0,0,45.139,19.794ZM2.146,40.008a7.859,7.859,0,0,1,2.073-1.393,8.466,8.466,0,0,0,2.765-1.866,10.552,10.552,0,0,0,2.133-3.031A6.706,6.706,0,0,1,10.6,31.539a8.8,8.8,0,0,1,2.444-1.744,8.757,8.757,0,0,0,4.631-4.631,8.833,8.833,0,0,1,1.745-2.444,6.728,6.728,0,0,1,2.178-1.479,10.569,10.569,0,0,0,3.031-2.132,8.5,8.5,0,0,0,1.866-2.764,7,7,0,0,1,3.657-3.657,9.543,9.543,0,0,0,3.135-2.242l2.507,2.507a8.156,8.156,0,0,1-2.549,1.854,8.774,8.774,0,0,0-4.63,4.631,6.718,6.718,0,0,1-1.478,2.179,8.821,8.821,0,0,1-2.446,1.744,8.515,8.515,0,0,0-2.764,1.868,10.6,10.6,0,0,0-2.132,3.029,6.985,6.985,0,0,1-3.657,3.656A10.563,10.563,0,0,0,13.1,34.048a8.495,8.495,0,0,0-1.868,2.765,8.792,8.792,0,0,1-1.744,2.444,6.7,6.7,0,0,1-2.179,1.477,10.14,10.14,0,0,0-2.658,1.782ZM40.765,22.331a8.774,8.774,0,0,0-4.631,4.631,6.719,6.719,0,0,1-1.478,2.179,8.821,8.821,0,0,1-2.446,1.744,8.515,8.515,0,0,0-2.763,1.867,10.577,10.577,0,0,0-2.134,3.03,6.987,6.987,0,0,1-3.656,3.656,10.548,10.548,0,0,0-3.03,2.133,8.477,8.477,0,0,0-1.867,2.764,8.811,8.811,0,0,1-1.744,2.445,6.685,6.685,0,0,1-2.179,1.477,9.755,9.755,0,0,0-2.661,1.781l-2.505-2.5a8.386,8.386,0,0,1,2.071-1.395,8.476,8.476,0,0,0,2.765-1.867,10.552,10.552,0,0,0,2.132-3.031,6.726,6.726,0,0,1,1.477-2.177,8.929,8.929,0,0,1,2.445-1.746,8.757,8.757,0,0,0,4.632-4.631,8.8,8.8,0,0,1,1.744-2.444c1.735-1.736,2.588-1.194,4.919-3.334a.887.887,0,1,0-1.2-1.306c-2.165,1.988-2.913,1.326-4.973,3.386a10.54,10.54,0,0,0-2.133,3.03,6.993,6.993,0,0,1-3.658,3.656,9.83,9.83,0,0,0-4.9,4.9,8.811,8.811,0,0,1-1.744,2.445,6.711,6.711,0,0,1-2.18,1.478,10.1,10.1,0,0,0-2.659,1.782L5.91,43.772a8.364,8.364,0,0,1,2.071-1.4,8.482,8.482,0,0,0,2.765-1.866,10.541,10.541,0,0,0,2.133-3.031A6.706,6.706,0,0,1,14.358,35.3,8.819,8.819,0,0,1,16.8,33.557a8.757,8.757,0,0,0,4.631-4.63,8.853,8.853,0,0,1,1.744-2.444A6.727,6.727,0,0,1,25.355,25a10.567,10.567,0,0,0,3.032-2.132,8.506,8.506,0,0,0,1.866-2.766,7,7,0,0,1,3.656-3.656,9.784,9.784,0,0,0,3.134-2.243l2.508,2.508q-.094.1-.191.2A8.025,8.025,0,0,1,37,18.569a8.2,8.2,0,0,0-2.117,1.28.887.887,0,0,0,1.126,1.37,6.46,6.46,0,0,1,1.66-1.007,9.819,9.819,0,0,0,2.942-2.043c.065-.065.129-.132.192-.2l2.507,2.507A7.728,7.728,0,0,1,40.765,22.331Z" transform="translate(-0.002 -8.241)" fill="#fff"/>
      </g>
    </g>
  </g>
</svg>
