<svg xmlns="http://www.w3.org/2000/svg" width="34.571" height="66.981" viewBox="0 0 34.571 66.981">
  <g id="Group_2972" data-name="Group 2972" transform="translate(0)">
    <g id="ketchup" transform="translate(0 0)">
      <path id="Path_26251" data-name="Path 26251" d="M24.174,17.285h.677a2.163,2.163,0,0,0,2.161-2.161V12.964A2.163,2.163,0,0,0,24.851,10.8H22.414L19.173,0H15.4L12.164,10.8H9.727a2.163,2.163,0,0,0-2.161,2.161v2.161a2.163,2.163,0,0,0,2.161,2.161H10.4L.732,47.268A15.084,15.084,0,0,0,15.086,66.981h4.4A15.084,15.084,0,0,0,33.846,47.268ZM17.012,2.161h.553L20.158,10.8H14.42Zm-7.286,10.8H24.851v2.161H9.726ZM19.492,64.82h-4.4a12.921,12.921,0,0,1-12.3-16.89l9.885-30.645H21.9L31.79,47.93a12.924,12.924,0,0,1-12.3,16.89Zm0,0" transform="translate(-0.004)" fill="#fff"/>
    </g>
    <g id="laurel" transform="translate(6.416 38.3)">
      <g id="Group_2963" data-name="Group 2963" transform="translate(15.053 18.35)">
        <g id="Group_2962" data-name="Group 2962" transform="translate(0 0)">
          <path id="Path_26236" data-name="Path 26236" d="M347.065,457.2l-.016,0a.434.434,0,1,0-.143.857l.016,0a.441.441,0,0,0,.072.006.434.434,0,0,0,.071-.863Z" transform="translate(-346.543 -457.196)" fill="#fff"/>
        </g>
      </g>
      <g id="Group_2965" data-name="Group 2965" transform="translate(6.302 18.35)">
        <g id="Group_2964" data-name="Group 2964" transform="translate(0 0)">
          <path id="Path_26237" data-name="Path 26237" d="M145.967,457.559a.434.434,0,0,0-.5-.357l-.016,0a.434.434,0,0,0,.071.863.442.442,0,0,0,.072-.006l.016,0a.434.434,0,0,0,.357-.5Z" transform="translate(-145.088 -457.196)" fill="#fff"/>
        </g>
      </g>
      <g id="Group_2967" data-name="Group 2967" transform="translate(0 0)">
        <g id="Group_2966" data-name="Group 2966" transform="translate(0 0)">
          <path id="Path_26238" data-name="Path 26238" d="M18.762,47.627a2.27,2.27,0,0,0,.772-.137c1.75-.629,2.646-3.266,2.683-3.378a.434.434,0,0,0-.375-.57,5.033,5.033,0,0,0-3.276.653,12.167,12.167,0,0,0,.122-1.262h.021a2.207,2.207,0,0,0,1.544-.585c1.258-1.156,1.145-3.637,1.139-3.742a.434.434,0,0,0-.579-.387,4.766,4.766,0,0,0-2.358,1.615c-.058-.3-.116-.537-.16-.7a2.065,2.065,0,0,0,.363-1.6c-.3-1.581-2.392-2.7-2.481-2.747a.434.434,0,0,0-.624.28,4.006,4.006,0,0,0,.3,3.176A3.055,3.055,0,0,0,17.495,39.5a12.367,12.367,0,0,1,.325,2.287,7.728,7.728,0,0,0-2.438-1.778.434.434,0,0,0-.551.334,4.793,4.793,0,0,0,.554,3.765,3.582,3.582,0,0,0,2.008,1.376,18.7,18.7,0,0,1-.83,1.937,7.144,7.144,0,0,0-2.288-3.354.434.434,0,0,0-.669.152,4.99,4.99,0,0,0-.4,3.923,3.736,3.736,0,0,0,1.321,1.7,11.584,11.584,0,0,1-1.977,1.346,2.394,2.394,0,0,0,.217-.969,3.6,3.6,0,0,0-1.385-2.444.434.434,0,0,0-.531,0A3.6,3.6,0,0,0,9.47,50.214a2.394,2.394,0,0,0,.217.969A11.585,11.585,0,0,1,7.71,49.838a3.736,3.736,0,0,0,1.321-1.7,4.99,4.99,0,0,0-.4-3.923.434.434,0,0,0-.669-.152,7.144,7.144,0,0,0-2.288,3.354,18.7,18.7,0,0,1-.83-1.937,3.582,3.582,0,0,0,2.008-1.376,4.793,4.793,0,0,0,.554-3.765.434.434,0,0,0-.551-.334A7.729,7.729,0,0,0,4.42,41.784,12.364,12.364,0,0,1,4.745,39.5a3.055,3.055,0,0,0,1.636-1.254,4.007,4.007,0,0,0,.3-3.176.434.434,0,0,0-.624-.28c-.089.047-2.186,1.167-2.481,2.747a2.065,2.065,0,0,0,.363,1.6c-.044.168-.1.407-.16.7a4.766,4.766,0,0,0-2.358-1.615.434.434,0,0,0-.579.387c-.005.105-.119,2.586,1.139,3.742a2.206,2.206,0,0,0,1.544.585h.021a12.168,12.168,0,0,0,.122,1.262A5.032,5.032,0,0,0,.4,43.542a.434.434,0,0,0-.375.57c.037.112.933,2.749,2.683,3.378a2.269,2.269,0,0,0,.772.137,2.553,2.553,0,0,0,1.166-.3c.118.237.709,1.209.886,1.448a5.909,5.909,0,0,0-3.914,1.034.434.434,0,0,0-.085.675c.094.1,2.236,2.265,4.351,2.265a2.945,2.945,0,0,0,.318-.017,2.868,2.868,0,0,0,2.11-1.361,13.9,13.9,0,0,0,1.642.923q-.74.244-1.547.442a.434.434,0,1,0,.207.844A20.409,20.409,0,0,0,11.12,52.8a20.412,20.412,0,0,0,2.509.782.434.434,0,0,0,.207-.844q-.807-.2-1.547-.442a13.9,13.9,0,0,0,1.642-.923,2.868,2.868,0,0,0,2.11,1.361,2.945,2.945,0,0,0,.318.017c2.115,0,4.257-2.168,4.351-2.265a.434.434,0,0,0-.085-.675,5.909,5.909,0,0,0-3.914-1.034c.177-.239.768-1.211.886-1.448A2.552,2.552,0,0,0,18.762,47.627Zm1.754-8.345a3.856,3.856,0,0,1-.851,2.428,1.356,1.356,0,0,1-.954.355A2.678,2.678,0,0,1,20.516,39.282Zm-1.845,5.942a3.7,3.7,0,0,1,2.488-.844h.018a4.334,4.334,0,0,1-1.937,2.292,1.518,1.518,0,0,1-1.255-.122A3.118,3.118,0,0,1,18.672,45.224ZM17.6,38.6l-.01.005a2.167,2.167,0,0,1-1-.829,2.806,2.806,0,0,1-.31-1.911A3.487,3.487,0,0,1,17.807,37.7,1.206,1.206,0,0,1,17.6,38.6ZM3.528,42.064a1.356,1.356,0,0,1-.954-.355,3.856,3.856,0,0,1-.851-2.428A2.678,2.678,0,0,1,3.528,42.064ZM3,46.673A4.342,4.342,0,0,1,1.063,44.38H1.08a3.4,3.4,0,0,1,2.488.844,2.438,2.438,0,0,1,.552.838c.022.064.123.41.134.489A1.518,1.518,0,0,1,3,46.673ZM4.433,37.7A3.488,3.488,0,0,1,5.956,35.87a2.815,2.815,0,0,1-.3,1.9,2.168,2.168,0,0,1-1.009.84l-.006,0A1.207,1.207,0,0,1,4.433,37.7Zm.1,5.643c.187-.958,1.34-1.789,2.11-2.244a3.607,3.607,0,0,1-.493,2.5,2.711,2.711,0,0,1-1.372,1A1.93,1.93,0,0,1,4.535,43.339Zm1.573,8.529c-1.315.143-2.818-.983-3.534-1.6a4.513,4.513,0,0,1,3.371-.5,3.5,3.5,0,0,1,1.584,1.212A1.975,1.975,0,0,1,6.108,51.868Zm.952-2.639a1.972,1.972,0,0,1-.572-1.218c-.037-1.105.992-2.274,1.594-2.872a3.806,3.806,0,0,1,.143,2.68A2.916,2.916,0,0,1,7.059,49.229Zm4.062,2.5a2.392,2.392,0,0,1-.783-1.514A2.378,2.378,0,0,1,11.12,48.7a2.378,2.378,0,0,1,.782,1.515A2.377,2.377,0,0,1,11.121,51.728Zm2.9-3.909a3.806,3.806,0,0,1,.143-2.68,4.714,4.714,0,0,1,1.594,2.872,1.619,1.619,0,0,1-.463,1.108l-.055.057-.054.053A2.915,2.915,0,0,1,14.017,47.819Zm5.653,2.448c-.816.705-2.3,1.735-3.536,1.6a1.975,1.975,0,0,1-1.422-.895A4.266,4.266,0,0,1,16.3,49.762,4.332,4.332,0,0,1,19.669,50.267ZM16.1,43.606a3.6,3.6,0,0,1-.5-2.511,4.517,4.517,0,0,1,2.11,2.244,2.11,2.11,0,0,1-.247,1.259A2.685,2.685,0,0,1,16.1,43.606Z" transform="translate(0 -34.738)" fill="#fff"/>
        </g>
      </g>
    </g>
  </g>
</svg>
