<svg xmlns="http://www.w3.org/2000/svg" width="38.898" height="32.914" viewBox="0 0 38.898 32.914">
  <path id="Path_26057" data-name="Path 26057" d="M5158.366,482.517a2.992,2.992,0,1,1,2.992-2.992,3.013,3.013,0,0,1-2.992,2.992m-20.945,0a2.992,2.992,0,1,1,2.992-2.992,3.012,3.012,0,0,1-2.992,2.992m26.928-16.457a1.531,1.531,0,0,1-1.332,1.5l-24.4,2.851a7.71,7.71,0,0,1,.3,1.638,3.527,3.527,0,0,1-.562,1.5h21.507a1.5,1.5,0,1,1,0,2.991h-23.937a1.506,1.506,0,0,1-1.5-1.5c0-.723,1.052-2.477,1.425-3.2l-4.138-19.238h-4.769a1.5,1.5,0,0,1,0-2.993h5.985c1.566,0,1.613,1.871,1.847,2.993h28.074a1.506,1.506,0,0,1,1.5,1.5V466.06Z" transform="translate(-5125.451 -449.603)" fill="#e3051b"/>
</svg>
