<svg id="tomato" xmlns="http://www.w3.org/2000/svg" width="36.342" height="40.45" viewBox="0 0 36.342 40.45">
  <path id="Path_26204" data-name="Path 26204" d="M34.743,16.061a17.183,17.183,0,0,0-4.67-5.181,8.816,8.816,0,0,0,2.252-3.323A.79.79,0,0,0,30.9,6.9a2.146,2.146,0,0,1-1.854.965A3.763,3.763,0,0,1,27.513,7.5a12.3,12.3,0,0,0-6.82-.725h-.457c-.683-1.64-2.814-6.286-5.21-6.727A1.892,1.892,0,0,0,13,.81a3.506,3.506,0,0,0,.35,3.673c.339.507.762,1.227,1.246,2.116a11.694,11.694,0,0,0-5.287.9c-2.318,1.035-3.282-.425-3.385-.6a.79.79,0,0,0-1.435.632,10.224,10.224,0,0,0,2.259,3.749,17.082,17.082,0,0,0-4.333,5.109A15.333,15.333,0,0,0,.5,23.826,15.836,15.836,0,0,0,5.849,35.607a18.945,18.945,0,0,0,12.823,4.844,18.945,18.945,0,0,0,12.823-4.844,15.836,15.836,0,0,0,5.349-11.781,15.541,15.541,0,0,0-2.1-7.765ZM9.952,8.939a10.645,10.645,0,0,1,5.486-.676l.085.2v0l.876,2.007a.79.79,0,0,0,1.454-.618c-.217-.525-.6-1.391-.878-2.025-.1-.235-.187-.423-.232-.522a.349.349,0,0,0-.016-.032.755.755,0,0,0-.035-.081,38.961,38.961,0,0,0-2.03-3.584,2.125,2.125,0,0,1-.344-1.926c.028-.042.093-.141.421-.081,1.079.2,2.975,3,4.226,6.248a.79.79,0,0,0,.737.506h1.069a.825.825,0,0,0,.165-.017,10.76,10.76,0,0,1,1.976-.168,9.8,9.8,0,0,1,3.956.773,5.15,5.15,0,0,0,2.421.5,6.393,6.393,0,0,1-.984.833,7.023,7.023,0,0,1-6.1.658.79.79,0,0,0-.937,1.081,2.907,2.907,0,0,0,.668.812,7.582,7.582,0,0,1,2.119,3.225,6.064,6.064,0,0,0-2.087-.416,3.238,3.238,0,0,1-.639-.073l-.077-.027c-1.781-.629-2.046-1.2-2.046-1.484a.794.794,0,0,0-1.587,0c0,.679-2,1.912-2.817,2.2-.094.034-.193.066-.3.1a6.567,6.567,0,0,0-1.65.738,10.3,10.3,0,0,1,2.12-3.493,3.709,3.709,0,0,0,.58-.79.79.79,0,0,0-.722-1.112.78.78,0,0,0-.215.03,6.43,6.43,0,0,1-6.141-.991h0a7.371,7.371,0,0,1-1.24-1.316,4.972,4.972,0,0,0,2.717-.479h0Zm8.72,29.932c-9.148,0-16.591-6.749-16.591-15.045a14.439,14.439,0,0,1,5.889-11.5,7.492,7.492,0,0,0,3.756,1.3,8.737,8.737,0,0,0,1.2,0,10.072,10.072,0,0,0-2.051,5.559.791.791,0,0,0,1.156.739c.025-.014.049-.029.073-.044a.826.826,0,0,0,.162-.145,5.2,5.2,0,0,1,2.731-1.882c.117-.038.227-.074.34-.114a9.887,9.887,0,0,0,3.073-1.993,6.551,6.551,0,0,0,2.318,1.275l.071.025a3.946,3.946,0,0,0,1.074.162,3.337,3.337,0,0,1,2.69,1.14.79.79,0,0,0,1.39-.551,8.374,8.374,0,0,0-1.825-4.922,8.154,8.154,0,0,0,3.681-.548,7.343,7.343,0,0,0,.933-.462,15.674,15.674,0,0,1,4.638,4.985,13.962,13.962,0,0,1,1.887,6.974c0,8.3-7.443,15.045-16.591,15.045Zm0,0" transform="translate(-0.5 0)" fill="#fff"/>
  <path id="Path_26205" data-name="Path 26205" d="M59.195,305.822c-8.1,0-14.695-6.037-14.695-13.458a.79.79,0,0,1,1.58,0c0,6.549,5.883,11.878,13.115,11.878a.79.79,0,0,1,0,1.58Zm0,0" transform="translate(-41.024 -268.538)" fill="#fff"/>
  <path id="Path_26206" data-name="Path 26206" d="M262.618,449.1a.79.79,0,0,1,0-1.58h0a.79.79,0,1,1,0,1.58Zm0,0" transform="translate(-241.182 -412.164)" fill="#fff"/>
</svg>
