<svg xmlns="http://www.w3.org/2000/svg" width="28.244" height="42.813" viewBox="0 0 28.244 42.813">
  <g id="_001---Swiss-Cheese" data-name="001---Swiss-Cheese" transform="translate(0.456 42.314) rotate(-90)">
    <path id="Shape" d="M41.452.2C13.244.627.068-.31.005.112c-.012.081,0-3.06,0,25.085a2.09,2.09,0,0,0,2.09,2.09H39.723a2.09,2.09,0,0,0,2.09-2.09V16.083a.7.7,0,0,0-.252-.537c-.327-.27-.557-.111-1.072-.105a4.181,4.181,0,1,1,.5-8.317.7.7,0,0,0,.826-.685V.809A.7.7,0,0,0,41.452.2ZM9.761,7.08a4.181,4.181,0,0,1-3.94-5.574H13.7A4.181,4.181,0,0,1,9.761,7.08ZM40.42,5.687a5.59,5.59,0,0,0-5.3,7.355,5.467,5.467,0,0,0,5.3,3.794V25.2a.7.7,0,0,1-.7.7H2.1a.7.7,0,0,1-.7-.7V1.506h2.97a5.57,5.57,0,1,0,10.784,0H40.42Z" transform="translate(0 0)" fill="#fff" stroke="#fff" stroke-width="1"/>
    <path id="Shape-2" data-name="Shape" d="M0,2.787A2.787,2.787,0,1,0,2.787,0,2.787,2.787,0,0,0,0,2.787ZM2.787,1.394A1.394,1.394,0,1,1,1.394,2.787,1.394,1.394,0,0,1,2.787,1.394Z" transform="translate(29.968 17.532)" fill="#fff" stroke="#fff" stroke-width="1"/>
    <path id="Shape-3" data-name="Shape" d="M6.279,0a6.271,6.271,0,1,0,6.066,4.71A6.271,6.271,0,0,0,6.279,0Zm0,1.394a4.885,4.885,0,0,1,4.669,3.471,4.866,4.866,0,0,1-9.337,0A4.885,4.885,0,0,1,6.279,1.394Zm0,9.755A4.885,4.885,0,0,1,1.61,7.665a6.271,6.271,0,0,0,9.344,0A4.885,4.885,0,0,1,6.279,11.149Z" transform="translate(12.54 11.958)" fill="#fff" stroke="#fff" stroke-width="1"/>
    <path id="Shape-4" data-name="Shape" d="M2.787,0A2.787,2.787,0,1,0,5.574,2.787,2.787,2.787,0,0,0,2.787,0Zm0,4.181A1.394,1.394,0,1,1,4.181,2.787,1.394,1.394,0,0,1,2.787,4.181Z" transform="translate(3.489 11.261)" fill="#fff" stroke="#fff" stroke-width="1"/>
    <path id="Shape-5" data-name="Shape" d="M3.484,6.968A3.484,3.484,0,1,0,0,3.484,3.484,3.484,0,0,0,3.484,6.968Zm0-5.574a2.09,2.09,0,1,1-2.09,2.09A2.09,2.09,0,0,1,3.484,1.394Z" transform="translate(25.09 4.293)" fill="#fff" stroke="#fff" stroke-width="1"/>
    <ellipse id="Oval" cx="0.697" cy="0.697" rx="0.697" ry="0.697" transform="translate(17.425 7.777)" fill="#fff" stroke="#fff" stroke-width="1"/>
    <ellipse id="Oval-2" data-name="Oval" cx="0.697" cy="0.697" rx="0.697" ry="0.697" transform="translate(21.606 3.596)" fill="#fff" stroke="#fff" stroke-width="1"/>
    <ellipse id="Oval-3" data-name="Oval" cx="0.697" cy="0.697" rx="0.697" ry="0.697" transform="translate(6.973 21.016)" fill="#fff" stroke="#fff" stroke-width="1"/>
    <ellipse id="Oval-4" data-name="Oval" cx="0.697" cy="0.697" rx="0.697" ry="0.697" transform="translate(28.574 14.048)" fill="#fff" stroke="#fff" stroke-width="1"/>
  </g>
</svg>
