<svg xmlns="http://www.w3.org/2000/svg" width="27.428" height="27.428" viewBox="0 0 27.428 27.428">
  <path id="Path_26052" data-name="Path 26052" d="M1558.476,46.828V63.971a5.145,5.145,0,0,1-5.143,5.143h-3.357V58.489h3.555l.535-4.145h-4.09V51.7c0-1.2.322-2,2.053-2l2.179-.018v-3.7a28.5,28.5,0,0,0-3.179-.161c-3.16,0-5.339,1.928-5.339,5.464v3.053h-3.571v4.145h3.571V69.113h-9.5a5.145,5.145,0,0,1-5.143-5.143V46.828a5.145,5.145,0,0,1,5.143-5.143h17.143a5.145,5.145,0,0,1,5.143,5.143" transform="translate(-1531.047 -41.685)" fill="#999"/>
</svg>
