<svg xmlns="http://www.w3.org/2000/svg" width="27.428" height="27.428" viewBox="0 0 27.428 27.428">
  <path id="Path_26053" data-name="Path 26053" d="M1697.917,49.722a1.643,1.643,0,1,1,1.643-1.643,1.638,1.638,0,0,1-1.643,1.643m-7.321,1.107a4.571,4.571,0,1,0,4.571,4.571,4.579,4.579,0,0,0-4.571-4.571m0,11.606a7.035,7.035,0,1,1,7.034-7.035,7.026,7.026,0,0,1-7.034,7.035m-8.09-17.731a4.682,4.682,0,0,0-2.607,2.607c-.713,1.8-.553,6.089-.553,8.089s-.16,6.285.553,8.089a4.682,4.682,0,0,0,2.607,2.607c1.8.715,6.089.554,8.09.554s6.285.161,8.089-.554a4.672,4.672,0,0,0,2.607-2.607c.713-1.8.553-6.089.553-8.089s.161-6.285-.553-8.089a4.672,4.672,0,0,0-2.607-2.607c-1.8-.714-6.089-.553-8.089-.553s-6.285-.162-8.09.553m21.713,16.357a7.59,7.59,0,0,1-7.963,7.963c-1.893.107-3.767.089-5.66.089s-3.769.018-5.661-.089a7.59,7.59,0,0,1-7.962-7.963c-.109-1.894-.089-3.769-.089-5.661s-.019-3.767.089-5.66a7.59,7.59,0,0,1,7.962-7.964c1.893-.107,3.769-.089,5.661-.089s3.767-.018,5.66.089a7.59,7.59,0,0,1,7.963,7.964c.108,1.893.09,3.767.09,5.66s.018,3.767-.09,5.661" transform="translate(-1676.882 -41.686)" fill="#999"/>
</svg>
