<svg xmlns="http://www.w3.org/2000/svg" width="329.445" height="219.428" viewBox="0 0 329.445 219.428">
  <g id="Group_3097" data-name="Group 3097" transform="translate(0 -55.553)">
    <rect id="Rectangle_991" data-name="Rectangle 991" width="329.445" height="219.428" transform="translate(0 55.553)" fill="#ffd100"/>
    <g id="Group_3096" data-name="Group 3096" transform="translate(0 7)">
      <path id="Path_26026" data-name="Path 26026" d="M397.311,564.291q-.164,2.376-.256,4.718a20.473,20.473,0,0,0,.048,3.3,3.878,3.878,0,0,1,.034,1.182q-.074.033-.265-.809a17.949,17.949,0,0,1-.27-3.437q-.023-2.339.137-4.715t.454-4.2q.288-1.822.717-2a5.814,5.814,0,0,0-.263,1.768q-.168,1.827-.336,4.2m-2.529,12.326c-.145-.306-.285-.6-.422-.876a10.15,10.15,0,0,1-1.019-5.468,13.826,13.826,0,0,0,.656,3.39q.563,1.765,1.317,3.808a4.816,4.816,0,0,1-.531-.854m11.626-20.386q-.095-.422-.453-.271a2.306,2.306,0,0,0-.838.951c-.318.535-.667,1.127-1.039,1.773a21.61,21.61,0,0,0-1.228,3.7q-.553,2.215-1.183,4.6t-1.414,4.605a15.28,15.28,0,0,1-1.909,3.8,33.8,33.8,0,0,1-.413-9.74,104.208,104.208,0,0,1,1.715-12.385,4.115,4.115,0,0,0-.005-1.746,2.777,2.777,0,0,0-.792-1.422,3.594,3.594,0,0,0-1.317-.828,4.475,4.475,0,0,0-1.5-.247,3.727,3.727,0,0,0-1.424.274c-.665.278-1.016.673-1.059,1.182q-.923,6.937-1.307,13.319a38.615,38.615,0,0,0,.588,10.679,9.473,9.473,0,0,0,2.122,4.365,3.181,3.181,0,0,0,3.932.653,4.847,4.847,0,0,0,2.065-2.249,28.678,28.678,0,0,0,1.875-4.292q.878-2.487,1.574-5.271t1.165-5.192q.465-2.409.693-4.162a9.813,9.813,0,0,0,.149-2.091" transform="translate(-263.066 -368.622)"/>
      <path id="Path_26027" data-name="Path 26027" d="M402.469,515.212a2.739,2.739,0,0,1-.2-.669c-.037-.233-.076-.456-.113-.669a6.425,6.425,0,0,1,.572-3.94,8.777,8.777,0,0,0-.337,2.447q0,1.3.081,2.832m3.309-4.253a8.648,8.648,0,0,0-.359,1.463.623.623,0,0,1-.514.631.673.673,0,0,1,.015-.269.5.5,0,0,0,.021-.181,4.652,4.652,0,0,1,.206-1.027c.151-.57.332-1.2.548-1.872s.423-1.278.631-1.806.354-.805.455-.832a4.028,4.028,0,0,1-.147.88c-.108.469-.238.979-.388,1.518s-.31,1.042-.468,1.495m1.469-4.511a6.475,6.475,0,0,0-1.47-.627,8.273,8.273,0,0,0-1.67-.314,2.924,2.924,0,0,0-1.332.146c-.333.139-.62.646-.867,1.513a18.467,18.467,0,0,0-.55,2.909,29.216,29.216,0,0,0-.2,3.079,10.45,10.45,0,0,0,.1,1.989,1.587,1.587,0,0,0,.553.872,2.872,2.872,0,0,0,.983.555,4.077,4.077,0,0,0,1.139.214,2.177,2.177,0,0,0,.948-.123.928.928,0,0,0,.511-.489q.8-3.01,1.288-4.829a33.641,33.641,0,0,1,1.279-3.81.431.431,0,0,0,.014-.284,1.4,1.4,0,0,0-.725-.8" transform="translate(-269.119 -339.425)"/>
      <path id="Path_26028" data-name="Path 26028" d="M436.794,552.347q1.744-.564,3.25-.987a13.36,13.36,0,0,1,2.891-.5,9.99,9.99,0,0,0-4.66.78l-.75.314a4.623,4.623,0,0,0-.731.392m7.871-2.8a17.08,17.08,0,0,0-8.555,1.5q-.714.3-1.391.583a9.389,9.389,0,0,0-1.428.767,43.142,43.142,0,0,1,11.374-2.847m-8.632-20.851a17.376,17.376,0,0,0,2.748-1.655,13.471,13.471,0,0,1-1.786.916l-1.816.762c-.618.259-1.286.528-2.005.8s-1.267.491-1.646.65l.353.188a6.506,6.506,0,0,0,1.354-.233q.782-.329,2.8-1.428m6.591-6.208a2.057,2.057,0,0,1,2.228.372,3.565,3.565,0,0,1,1.425,2.135,1.94,1.94,0,0,1-.17,1.331q-1.2,2.271-2.9,5.258t-3.478,6.169q-1.777,3.188-3.525,6.319t-3.093,5.8q1.14-.479,2.769-1.038t3.463-1.079q1.831-.521,3.647-.952a21.185,21.185,0,0,1,3.353-.531,8.271,8.271,0,0,1,2.529.141,1.382,1.382,0,0,1,1.163,1.007,5.518,5.518,0,0,1,.07,1.673,9.789,9.789,0,0,1-.351,1.9,8.894,8.894,0,0,1-.616,1.588,1.746,1.746,0,0,1-.777.868.364.364,0,0,1-.321-.034,12.79,12.79,0,0,0-3-.332,23.984,23.984,0,0,0-3.758.28,40.931,40.931,0,0,0-4.031.81,26.662,26.662,0,0,0-3.738,1.237,10.074,10.074,0,0,0-1.943,1.067,8.876,8.876,0,0,1-1.657.946,1.063,1.063,0,0,1-.945-.021,2.806,2.806,0,0,1-.813-.667,3.955,3.955,0,0,1-.625-1.034,7.025,7.025,0,0,1-.375-1.142,2.4,2.4,0,0,1-.085-1.056,24.76,24.76,0,0,1,1.717-4.826q1.206-2.6,2.684-5.361t3.062-5.6q1.578-2.843,2.943-5.427a7.105,7.105,0,0,1,.484-.792c.213-.311.31-.52.288-.625a2.635,2.635,0,0,1-.553.317l-1.425.6q-1,.419-2.185.876c-.786.3-1.532.587-2.223.85s-1.308.48-1.845.647a2.661,2.661,0,0,1-.889.207q-.329,1.644-.867,4.1t-1.153,4.716q-.617,2.271-1.2,3.983t-1.087,1.923a.6.6,0,0,1-.762-.1,1.551,1.551,0,0,1-.353-.689,6.055,6.055,0,0,1,.134-1.987c.173-.964.408-2.1.715-3.4s.617-2.662.944-4.087.58-2.785.751-4.087q-1.1-.039-1.5-1.8a8.532,8.532,0,0,1,.12-4.285q.6-2.144,1.746-2.619a2.81,2.81,0,0,1,2.151.016,2.064,2.064,0,0,1,1.4,1.513.414.414,0,0,1,0,.166.564.564,0,0,0,.018.244,29.705,29.705,0,0,0,6.5-1.975,23.983,23.983,0,0,0,5.953-3.509" transform="translate(-284.217 -350.691)"/>
      <path id="Path_26029" data-name="Path 26029" d="M487.357,513.3a9.012,9.012,0,0,1,1.466-.688l1.42-.508a17.085,17.085,0,0,1,8.624-1.033,43.015,43.015,0,0,0-11.509,2.228m6.8-.667q-1.526.342-3.3.809a4.291,4.291,0,0,1,.752-.351c.266-.094.521-.185.764-.274a10.041,10.041,0,0,1,4.7-.53,13.785,13.785,0,0,0-2.915.346M492,489.993a26.459,26.459,0,0,1-3.945,1.374,6.931,6.931,0,0,1-1.9.1.712.712,0,0,1-.41-.317c.5-.156,1.4-.5,2.345-.759s1.635-.372,2.447-.628,1.61-.5,2.392-.747a15.943,15.943,0,0,0,2.375-.965,18.926,18.926,0,0,1-3.3,1.939m12.347,19.248a1.386,1.386,0,0,0-1.107-1.068,8.349,8.349,0,0,0-2.518-.279,20.826,20.826,0,0,0-3.376.351q-1.835.333-3.695.75t-3.517.89q-1.654.473-2.819.887,1.485-2.59,3.405-5.621t3.858-6.119q1.946-3.086,3.807-5.974t3.183-5.093a1.91,1.91,0,0,0,.241-1.321,3.566,3.566,0,0,0-1.305-2.21q-1.074-.891-1.658-.682a28.276,28.276,0,0,1-6.684,3.375,29.7,29.7,0,0,1-6.594,1.618,2.681,2.681,0,0,0-.03-.665,2.3,2.3,0,0,0-1.5-1.641,3.022,3.022,0,0,0-4.145,2.686,11.681,11.681,0,0,0-.019,4.282q.3,1.779,1.4,1.877a19.571,19.571,0,0,1-.97,4.042c-.373,1.291-.727,2.514-1.072,3.7a.763.763,0,0,0,1.265.469c.923-.6,2.274-3.81,2.843-5.19a15.878,15.878,0,0,0,.992-3.246c.217-.031.4-.068.741-.145.547-.126,1.168-.321,1.876-.549s1.463-.469,2.267-.728,1.547-.512,2.227-.756l1.455-.52a2.621,2.621,0,0,0,.569-.287c.018.1-.089.308-.322.606a7.7,7.7,0,0,0-.524.764q-1.506,2.508-3.235,5.259t-3.362,5.43q-1.623,2.673-2.97,5.206a24.9,24.9,0,0,0-1.975,4.729,2.414,2.414,0,0,0,.028,1.057,7.151,7.151,0,0,0,.311,1.16,3.945,3.945,0,0,0,.571,1.067,2.709,2.709,0,0,0,.776.708,1.055,1.055,0,0,0,.938.074,8.738,8.738,0,0,0,1.71-.857,10.192,10.192,0,0,1,2-.959,26.636,26.636,0,0,1,3.8-1.031,39.845,39.845,0,0,1,4.068-.592,24.088,24.088,0,0,1,3.77-.075,12.682,12.682,0,0,1,2.98.494.362.362,0,0,0,.318.051,1.737,1.737,0,0,0,.825-.824,9.071,9.071,0,0,0,.7-1.552,9.826,9.826,0,0,0,.454-1.872,5.536,5.536,0,0,0,.021-1.676" transform="translate(-321.497 -324.813)"/>
      <path id="Path_26030" data-name="Path 26030" d="M558.835,484.978q3.162-3.014,3.346-8.665a17.85,17.85,0,0,1-3.346,8.665m2.4-11.034a.545.545,0,0,0-.477-.078c-.487.174-1,.842-1.554,1.994a32.69,32.69,0,0,0-1.508,3.821q-.685,2.094-1.142,3.939a13.07,13.07,0,0,0-.453,2.336,1.2,1.2,0,0,0,.524-.1,4.6,4.6,0,0,0,2.282-2.006,16.274,16.274,0,0,0,1.6-3.32,19.155,19.155,0,0,0,.872-3.472,8.773,8.773,0,0,0,.105-2.54,1.262,1.262,0,0,0-.248-.568m-6.777,7.348a6.631,6.631,0,0,0,.613-1.164q.539-1.135,1.111-2.532c.384-.93.875-2.185,1.482-3.771a5.318,5.318,0,0,0-.61.956q-.537.932-1.134,2.172c-.4.827-.761,1.654-1.083,2.481a3.862,3.862,0,0,0-.379,1.858m-2.038.974c.13-.43.384-1.081.747-1.952l1.1-2.608c.363-.869.684-1.64.956-2.309a4.356,4.356,0,0,0,.38-1.165,24.872,24.872,0,0,0-3.1,6.487,11.369,11.369,0,0,0-.673,3.974c.1-.033.172-.361.219-.981a3.429,3.429,0,0,1,.37-1.447m16.32-4.6a7.349,7.349,0,0,1,2.065-2.379c.144-.052.236.025.27.232a6.8,6.8,0,0,1-.415,2.529l-.6,1.937q-.784,2.66-1.66,5.436a37.252,37.252,0,0,1-2.083,5.219,19.693,19.693,0,0,1-2.822,4.288,9.134,9.134,0,0,1-3.869,2.656,8.529,8.529,0,0,1-3.342.54,7.329,7.329,0,0,1-2.861-.7,5.969,5.969,0,0,1-2.1-1.669,5.32,5.32,0,0,1-1.073-2.449,21.256,21.256,0,0,1,.1-6.645,37.463,37.463,0,0,1,1.954-7.553,29.621,29.621,0,0,1,3.393-6.587,9.4,9.4,0,0,1,4.346-3.729,4.343,4.343,0,0,1,3.756.217,3.916,3.916,0,0,1,2.024,2.888,10.25,10.25,0,0,1-.373,4.441,22.577,22.577,0,0,1-2,4.863,21.524,21.524,0,0,1-3.016,4.194,8.741,8.741,0,0,1-3.316,2.418,2.873,2.873,0,0,1-1.212.188,9.406,9.406,0,0,0-.034,1.162,8.836,8.836,0,0,0,.112,1.107,4.12,4.12,0,0,0,1.185,2.407q.918.866,2.883.162a6.352,6.352,0,0,0,3.091-2.706,30.135,30.135,0,0,0,2.389-4.548q1.043-2.469,1.822-4.715a16.335,16.335,0,0,1,1.382-3.2" transform="translate(-368.999 -314.584)"/>
      <path id="Path_26031" data-name="Path 26031" d="M617.581,454.555a8.464,8.464,0,0,0-.014,2.63,5.159,5.159,0,0,0,1.2,2.523,13.1,13.1,0,0,1-.664-2.3q-.261-1.3-.524-2.85m-10.257,7.77a41.657,41.657,0,0,1,1.707-11.28,21.5,21.5,0,0,0-1.707,11.28m14.859-16.556a1.884,1.884,0,0,1,.99,1.288,4.711,4.711,0,0,1-.223,2.09q-.366,1.236-.793,2.825a27.411,27.411,0,0,0-.672,3.526,14.478,14.478,0,0,0,.147,4.255c.052.308.117.613.2.915s.169.625.278.967a1.169,1.169,0,0,1-.834,1.447,2.191,2.191,0,0,1-2.722-1.037,12.944,12.944,0,0,1-1.718-5.091l-.137-.812a5.465,5.465,0,0,1-.079-.916q-1.784,5.4-3.13,10.638a42.733,42.733,0,0,0-1.433,9.706,1.433,1.433,0,0,1-.993,1.422q-2.255.806-3.433-.66a9.225,9.225,0,0,1-1.65-4.251,33.555,33.555,0,0,1-.394-6.385q.082-3.6.439-6.928t.827-5.794a16.59,16.59,0,0,1,.753-3.058,1.864,1.864,0,0,1,1.232-.931,4.329,4.329,0,0,1,1.387-.252,5.53,5.53,0,0,1,1.412.152,3.176,3.176,0,0,1,1.17.524,1.7,1.7,0,0,1,.612,1.547q-.553,3.076-1.333,7.125a40.6,40.6,0,0,0-.763,7.742,23.066,23.066,0,0,1,.432-2.659c.24-1.152.553-2.44.927-3.859s.823-2.864,1.344-4.339a39.709,39.709,0,0,1,1.725-4.145,19.849,19.849,0,0,1,2.016-3.348,5.188,5.188,0,0,1,2.31-1.851,2.512,2.512,0,0,1,2.11.149" transform="translate(-406.252 -299.148)"/>
      <path id="Path_26032" data-name="Path 26032" d="M665.244,403.763a.427.427,0,0,1-.01.17.556.556,0,0,0,0,.243c.242-.086.379-.337.411-.761a2.136,2.136,0,0,1,.059-.556,1.938,1.938,0,0,0,.274-.672q.2-.646.377-1.407c.117-.5.215-.981.3-1.418a3.588,3.588,0,0,0,.094-.813c-.1.034-.234.3-.4.8s-.347,1.065-.521,1.7-.32,1.223-.434,1.755a4.165,4.165,0,0,0-.147.955m3.12,2.908a1,1,0,0,1-.542.44,2.428,2.428,0,0,1-.951.092,4.31,4.31,0,0,1-1.115-.214,2.78,2.78,0,0,1-.94-.528,1.354,1.354,0,0,1-.487-.812,8.642,8.642,0,0,1,.04-1.817,24.7,24.7,0,0,1,.406-2.814,16.247,16.247,0,0,1,.746-2.647c.3-.79.623-1.248.961-1.37a3.208,3.208,0,0,1,1.334-.107,8.075,8.075,0,0,1,1.634.32,6.271,6.271,0,0,1,1.418.6c.4.241.623.49.667.747a.385.385,0,0,1-.033.258,30.669,30.669,0,0,0-1.532,3.463q-.609,1.65-1.607,4.39m-4.068,24.6a17.771,17.771,0,0,1,.181-3.02c.168-1.426.363-2.864.577-4.31s.424-2.724.62-3.832a5.3,5.3,0,0,1,.383-1.614q-.436.157-.848,1.823t-.736,3.833q-.325,2.168-.461,4.309a15.079,15.079,0,0,0,.033,3.149q.133.774.206.746a3.259,3.259,0,0,0,.045-1.084m7.86-12.332q.621-.874,1.152-1.6a2.389,2.389,0,0,1,.9-.853c.244-.088.387,0,.431.255a8.335,8.335,0,0,1-.294,1.91q-.344,1.6-.971,3.8t-1.511,4.723q-.88,2.532-1.925,4.793a26.806,26.806,0,0,1-2.152,3.889,4.99,4.99,0,0,1-2.205,2.019q-2.475.885-3.861-.67a7.923,7.923,0,0,1-1.806-4.035,32.525,32.525,0,0,1,.147-9.778q.821-5.832,2.215-12.158c.074-.463.45-.816,1.132-1.06a4.1,4.1,0,0,1,1.427-.225,4.7,4.7,0,0,1,1.471.256,3.375,3.375,0,0,1,1.253.78,2.348,2.348,0,0,1,.686,1.314,3.482,3.482,0,0,1-.114,1.6,90.705,90.705,0,0,0-2.549,11.3,28.441,28.441,0,0,0-.258,8.913,14.719,14.719,0,0,0,2.155-3.438q.934-2.014,1.718-4.186t1.488-4.184a19.918,19.918,0,0,1,1.474-3.359" transform="translate(-442.503 -266.555)"/>
      <path id="Path_26033" data-name="Path 26033" d="M721.061,436.444a31.837,31.837,0,0,1,9.225-7.485,21.3,21.3,0,0,0-9.225,7.485m-9.771-5.7c.016.107.049-.07.1-.528s.11-1.009.177-1.664.117-1.275.148-1.86a7.092,7.092,0,0,0,0-1.107q-.362.129-.551,1.962t-.276,4.038q-.088,2.205-.07,4.128c.012,1.281.034,2,.06,2.155q.051-1.5.132-2.841c.025-.772.056-1.55.1-2.333s.106-1.432.171-1.952m-3.474.915a2.265,2.265,0,0,1-.594-.321.929.929,0,0,1-.417-.63,8.609,8.609,0,0,1-.01-1.186c.021-.638.054-1.345.1-2.128s.067-1.569.062-2.362a12.524,12.524,0,0,0-.143-1.96c-.122-.721-.328-1.033-.62-.929-.391.14-.786.679-1.193,1.615a27.7,27.7,0,0,0-1.183,3.463q-.576,2.049-1.1,4.452t-.869,4.62q-.358,2.222-.516,4a10.98,10.98,0,0,0-.026,2.552c.068.414.175.6.321.544.289-.1.757-.7,1.4-1.773s1.3-2.27,1.975-3.579,1.284-2.58,1.821-3.808a20.641,20.641,0,0,0,.99-2.573m-5.568-8.677a.757.757,0,0,0,.079-.192.825.825,0,0,1,.084-.195l.059-.1a2.431,2.431,0,0,0-.986,1.008,16.258,16.258,0,0,0-1.03,1.889,14.259,14.259,0,0,0-.77,2.039,3.762,3.762,0,0,0-.2,1.548q.6-1.033,1.181-2.144a21.625,21.625,0,0,0,1.586-3.849m-3.788,5.867c.139-.375.34-.944.6-1.69s.527-1.5.811-2.262.553-1.427.815-2.014.44-.9.536-.93a8.4,8.4,0,0,0-1.631,2.431,15.716,15.716,0,0,0-.987,2.814,20.884,20.884,0,0,0-.469,2.466,7.247,7.247,0,0,0-.085,1.3c.047-.018.089-.225.126-.62a9.485,9.485,0,0,1,.285-1.5m30.472-1.95a7.763,7.763,0,0,1,4,.13,2.638,2.638,0,0,1,1.87,2.124,2.308,2.308,0,0,1-.438,1.51,2.532,2.532,0,0,1-1.271,1.151c-.389.14-.613.03-.675-.33a3.853,3.853,0,0,1-.042-.93,3.43,3.43,0,0,0-.03-.851q-.158-.93-1.175-.565a21.84,21.84,0,0,0-6.55,4.844,55.668,55.668,0,0,0-4.814,5.949q-2.045,2.946-3.508,5.235a6.418,6.418,0,0,1-2.7,2.729,2.29,2.29,0,0,1-2.038-.174,4.915,4.915,0,0,1-1.635-1.673,13.275,13.275,0,0,1-1.19-2.447,14,14,0,0,1-.7-2.5c-.026-.156-.053-.324-.085-.5a1.769,1.769,0,0,1-.014-.53,34.433,34.433,0,0,1-2.581,4.33,9.175,9.175,0,0,1-3.475,3.168,3.365,3.365,0,0,1-2.46.061,5.021,5.021,0,0,1-1.887-1.336,6.925,6.925,0,0,1-1.275-2.046,9.669,9.669,0,0,1-.612-2,27.629,27.629,0,0,1-.185-7.195,37.018,37.018,0,0,1,1.492-7.55,24.564,24.564,0,0,1,2.9-6.294,8.3,8.3,0,0,1,3.964-3.467,5.622,5.622,0,0,1,2.031-.316,4.832,4.832,0,0,1,2.053.5,5.653,5.653,0,0,1,1.786,1.412,6.971,6.971,0,0,1,1.3,2.408,5.815,5.815,0,0,1,2.392.664,2.52,2.52,0,0,1,1.513,1.879,2.984,2.984,0,0,1-.01.824q-.268,1.162-.56,3.072c-.195,1.275-.361,2.63-.5,4.077s-.237,2.916-.291,4.414a24.477,24.477,0,0,0,.136,3.973,35.046,35.046,0,0,1,2.659-4.111,38.777,38.777,0,0,1,3.311-3.894,27.572,27.572,0,0,1,3.736-3.223,16.179,16.179,0,0,1,3.928-2.1q.362-.129.806-.248a8.147,8.147,0,0,1,.82-.171" transform="translate(-466.457 -280.343)"/>
      <path id="Path_26034" data-name="Path 26034" d="M844.535,244.959a2.84,2.84,0,0,0,.831-.447,2.988,2.988,0,0,0,.576-.618,1.436,1.436,0,0,0,.245-.907.106.106,0,0,0-.063-.092.552.552,0,0,0-.291.015q-.144.033-.375.111a6.178,6.178,0,0,0-.576.241Zm1.3,1.107a.591.591,0,0,0,.188.393,2.173,2.173,0,0,0,.4.333,2.214,2.214,0,0,0,.414.229.559.559,0,0,0,.248.067,2.021,2.021,0,0,1-1.1.864,1.051,1.051,0,0,1-.742-.1,2,2,0,0,1-.586-.461,2.67,2.67,0,0,1-.52-.761l-.453,1.9a1.362,1.362,0,0,1-.457.248.461.461,0,0,1-.376-.056.786.786,0,0,1-.243-.262.859.859,0,0,1-.156-.417l1.044-4.845a.657.657,0,0,1-.428-.269.832.832,0,0,1-.115-.4,1.1,1.1,0,0,1,.045-.308,1.489,1.489,0,0,1,.053-.161,2.28,2.28,0,0,0,.549-.012c.173-.025.355-.061.546-.1l1.155-.245a4.1,4.1,0,0,1,.636-.076,1.35,1.35,0,0,1,.644.133,1.2,1.2,0,0,1,.495.524,2.451,2.451,0,0,1,.226,1.066,2.378,2.378,0,0,1-.207,1.094,4.214,4.214,0,0,1-1.259,1.62m2.231.935a8.1,8.1,0,0,0,.786-1.953,6.075,6.075,0,0,0,.189-1.585,3.879,3.879,0,0,0-.439-1.786,6.308,6.308,0,0,0-.79-1.136c-.466-.063-.939-.1-1.424-.119a5.783,5.783,0,0,0-1.414.12,4.767,4.767,0,0,0-1.654.713,4.98,4.98,0,0,0-1.447,1.625,8.189,8.189,0,0,0-.969,2.068,5.538,5.538,0,0,0-.232,1.639,3.98,3.98,0,0,0,.2,1.16,5.578,5.578,0,0,0,.407.9,4.36,4.36,0,0,0,.473.68,3.518,3.518,0,0,1,.363.494c.31.033.683.07,1.118.105a4.744,4.744,0,0,0,1.4-.1,5,5,0,0,0,1.75-.793,5.89,5.89,0,0,0,1.68-2.038m.11-6.927a6.771,6.771,0,0,1,.935,1.151,10.024,10.024,0,0,1,.65,1.318,4.769,4.769,0,0,1,.348,1.682,5.1,5.1,0,0,1-.314,1.779,7.561,7.561,0,0,1-1,1.938,8.044,8.044,0,0,1-1.587,1.675,4.939,4.939,0,0,1-2.072.979,5.5,5.5,0,0,1-2,.067,4.113,4.113,0,0,1-1.741-.7,4.036,4.036,0,0,1-1.248-1.444,4.982,4.982,0,0,1-.524-2.187,5.72,5.72,0,0,1,.137-1.424,7.909,7.909,0,0,1,.566-1.606,6.314,6.314,0,0,1,.928-1.473,6.131,6.131,0,0,1,1.119-1.019,5.8,5.8,0,0,1,1.2-.646,8.354,8.354,0,0,1,1.214-.363c.267-.056.525-.1.776-.133s.488-.055.717-.064a3.213,3.213,0,0,1,.665.04c.195.039.4.092.612.155a2.69,2.69,0,0,1,.615.275" transform="translate(-563.264 -161.048)"/>
      <path id="Path_26035" data-name="Path 26035" d="M288.528,543.291a29.364,29.364,0,0,0,9.3-14.61,47.606,47.606,0,0,1-9.3,14.61m8.646-16.578a22.764,22.764,0,0,0,.669-5.194,30.117,30.117,0,0,0-.457-5.25,6.125,6.125,0,0,0-.325-1.214c-.14-.347-.334-.477-.586-.388a2.338,2.338,0,0,0-1.055,1.064c-.351.587-.586.99-.706,1.218a40.232,40.232,0,0,0-2.6,5.793q-1.195,3.271-2.248,6.9t-1.921,7.432q-.868,3.8-1.568,7.167,3.253-3.824,6.335-8.183a29.926,29.926,0,0,0,4.46-9.348m-17.915,30.9q.243-5.589.756-11.922t1.2-13.547a109.564,109.564,0,0,0-1.953,25.469M270.1,549.7a5.888,5.888,0,0,1-1.8-3.575,23.927,23.927,0,0,1,.355-8.2q-1.64,5.355-1.134,8.3A4.351,4.351,0,0,0,270.1,549.7m33.631-33.128a6.063,6.063,0,0,1,.385,1.33c.081.463.159.923.237,1.385a26.474,26.474,0,0,1,.362,4.688,30.594,30.594,0,0,1-.42,4.782,18.151,18.151,0,0,1-2.443,6.012,50.493,50.493,0,0,1-4.7,6.543,60.233,60.233,0,0,1-6,6.181,53.8,53.8,0,0,1-6.332,4.922q-.107,4.536.064,8.559c.111,2.682.908,7.878,1.282,10.065q.163.952.392,1.833c.153.589.278,1.168.379,1.746q.131.778-.469.993a3.411,3.411,0,0,1-2.2-.269,20.673,20.673,0,0,1-2.853-1.32,3.116,3.116,0,0,1-1.406-1.7,15.107,15.107,0,0,1-.876-3.265,85.367,85.367,0,0,1-1.125-10.079q-.053-4.289.244-9.08t.773-9.725q.471-4.939,1.055-9.232c.389-2.857.754-5.393,1.1-7.592s.634-3.836.878-4.9a18.653,18.653,0,0,0-3.82,5.4,48.6,48.6,0,0,0-3.076,7.661,52.664,52.664,0,0,0-1.824,7.991,21.453,21.453,0,0,0-.126,6.513,4.238,4.238,0,0,0,1.043,2.379,2.613,2.613,0,0,1,.837,1.17c.07.4-.223.723-.872.956a6.124,6.124,0,0,1-2.252.344,5.838,5.838,0,0,1-2.234-.484,5.189,5.189,0,0,1-1.827-1.369,4.586,4.586,0,0,1-1.029-2.29,15.361,15.361,0,0,1,.106-4.763,37.879,37.879,0,0,1,1.472-6.08,64.3,64.3,0,0,1,2.519-6.5,45.855,45.855,0,0,1,3.235-6.02,31.791,31.791,0,0,1,3.69-4.76,10.31,10.31,0,0,1,3.88-2.717,4.36,4.36,0,0,1,1.508-.265,5.948,5.948,0,0,0,.832-.022,1.782,1.782,0,0,0,.331-.165,1.952,1.952,0,0,1,.33-.163c-.052.018.094.011.435-.018a1.193,1.193,0,0,1,.69.073,6.654,6.654,0,0,1,.058,1.036,9.853,9.853,0,0,1-.215,1.776c-.022.191-.1.584-.237,1.184s-.269,1.229-.395,1.884-.282,1.54-.465,2.644a60.217,60.217,0,0,0,1.391-6.324,10.556,10.556,0,0,1,.314-1.9c.011.059.166.123.472.2s.51.429.619,1.064a3.218,3.218,0,0,1,.037.444,2.789,2.789,0,0,0,.037.446q-.165,2.808-.59,6.128t-.773,7.847q.878-3.25,2.045-6.7a60.7,60.7,0,0,1,2.541-6.369,29.347,29.347,0,0,1,2.961-5.051,7.54,7.54,0,0,1,3.317-2.744,3.339,3.339,0,0,1,2.341-.056,4.932,4.932,0,0,1,1.894,1.294,9.07,9.07,0,0,1,1.434,2.1c.4.8.747,1.582,1.034,2.334" transform="translate(-178.946 -342.884)"/>
      <path id="Path_26036" data-name="Path 26036" d="M154.763,382.037a57.251,57.251,0,0,0,5.244-4.958c.217-.236-2.868,3.811-5.244,4.958m-21.81-5.278q8.893-11.946,27.537-19.141-17.733,8.078-27.537,19.141m25.377,24.684q-6.036,13.4-22.311,17.937,15.636-5.207,22.311-17.937M171.9,358.382a7.066,7.066,0,0,0-.968-1.366,5.316,5.316,0,0,0-5.237-1.491,60.583,60.583,0,0,0-9.78,3.024,61.99,61.99,0,0,0-9.8,4.962,54.434,54.434,0,0,0-8.769,6.764,35.154,35.154,0,0,0-6.606,8.42,15.771,15.771,0,0,0-1.466,3.282,9.818,9.818,0,0,0-.5,3.341,5.584,5.584,0,0,0,1.215,3.339,12.98,12.98,0,0,0,2.77,2.6,18.686,18.686,0,0,0,3.54,1.946q1.917.808,3.519,1.365,1.512.578,3.512,1.189c1.332.409,2.607.839,3.824,1.3a18.641,18.641,0,0,1,3.081,1.458q1.259.765,1.291,1.661a17.987,17.987,0,0,1-6.909,8.528,30.728,30.728,0,0,1-10.225,4.107,8.385,8.385,0,0,1-1.531.173,3.183,3.183,0,0,1-1.55-.326,5.272,5.272,0,0,1,.9-.6c.429-.239.874-.469,1.336-.687s.876-.427,1.252-.627a3.7,3.7,0,0,1,.822-.354,104.251,104.251,0,0,1,9.976-3.736,2.733,2.733,0,0,0,1.319-1.223,3.174,3.174,0,0,0,.6-1.788c-.022-.653-.414-.9-1.168-.739q-2.7.753-6.174,1.851a45.782,45.782,0,0,0-6.5,2.593,21.433,21.433,0,0,0-5.109,3.422,5.425,5.425,0,0,0-2.006,4.241,3.691,3.691,0,0,0,1.421,2.931,9.693,9.693,0,0,0,3.175,1.614,13.859,13.859,0,0,0,3.712.6,13.6,13.6,0,0,0,3.113-.213,25.377,25.377,0,0,0,7.108-2.769,35.553,35.553,0,0,0,6.686-4.833,31.01,31.01,0,0,0,5.273-6.281,19.923,19.923,0,0,0,2.87-7.12,3.7,3.7,0,0,0,.137-1.107,4.828,4.828,0,0,0-1.2-2.976,13.045,13.045,0,0,0-2.722-2.43,25.8,25.8,0,0,0-3.274-1.861q-1.7-.806-2.86-1.367-1.425-.592-3.3-1.366t-3.526-1.584a13.218,13.218,0,0,1-2.788-1.786,2.881,2.881,0,0,1-1.17-2.041,1.7,1.7,0,0,1,.329-.7,43.312,43.312,0,0,1,4.983-5.771,74.758,74.758,0,0,1,6.521-5.741,56.636,56.636,0,0,1,7.04-4.73,29.349,29.349,0,0,1,6.539-2.825,25.26,25.26,0,0,1-2.094,4.258,16.006,16.006,0,0,1-2.993,3.644,6.311,6.311,0,0,1-.712-.252,1.179,1.179,0,0,0-.705-.073q-.261.056-1.013,1.112c-.5.708-1.033,1.521-1.585,2.447s-1.122,1.87-1.7,2.832-1.038,1.746-1.369,2.355a4.03,4.03,0,0,0-.627,2.2,3.082,3.082,0,0,0,.912,2.186,2.085,2.085,0,0,0,2,.609,1.943,1.943,0,0,0,1.034-.58,51.93,51.93,0,0,0,4.83-5.065q2.281-2.73,4.465-5.53.839-1.076,2.142-2.835t2.423-3.567a38.051,38.051,0,0,0,1.945-3.511,6.435,6.435,0,0,0,.777-2.858,3.605,3.605,0,0,0-.455-1.654" transform="translate(-84.898 -238.712)"/>
      <path id="Path_26037" data-name="Path 26037" d="M257.524,429.2q.45-1.847.78-3.405a10.748,10.748,0,0,0,.311-2.081c0-.056.012-.089.043-.094s.04-.037.038-.1l0-.088c-.056.013-.152.109-.288.281a2.539,2.539,0,0,0-.351.991q-.656,3.294-1.164,5.937-.434,2.285-.8,4.152a7.632,7.632,0,0,0-.27,2.026c.143-.786.4-1.936.777-3.446s.682-2.9.926-4.177m-8.757-10.393a5.941,5.941,0,0,0-1.159,1.208,21.526,21.526,0,0,0-1.635,2.187,2.414,2.414,0,0,1-.278.584q-.286.5-.565,1.082c-.187.389-.357.746-.517,1.072s-.214.484-.156.471q-.255.055,1.1-1.764a50.9,50.9,0,0,0,2.887-4.421l.328-.42Zm3.741,9.008a10.847,10.847,0,0,0,.413-1.664c.118-.668.235-1.377.355-2.133a21.792,21.792,0,0,0,.221-2.19c.032-.708.04-1.321.023-1.845-.03-.808-.215-1.179-.554-1.107-.455.1-.978.634-1.573,1.6a30.691,30.691,0,0,0-1.841,3.63q-.954,2.17-1.89,4.777T246,433.885q-.73,2.386-1.177,4.319a12.347,12.347,0,0,0-.417,2.8c.014.406.107.59.277.553a7.117,7.117,0,0,0,1.78-1.735q1.442-1.66,2.951-3.777t2.731-4.038a6.743,6.743,0,0,0,1.2-2.444,2.527,2.527,0,0,1-.615-.437,1.029,1.029,0,0,1-.367-.753,1.509,1.509,0,0,1,.152-.557m-9.086-2.621c.214-.451.516-1.085.919-1.9s.813-1.618,1.242-2.408.817-1.486,1.168-2.087.58-.912.7-.935c-.437.56-.941,1.207-1.517,1.942a20.742,20.742,0,0,0-1.588,2.349,17.035,17.035,0,0,0-1.237,2.625,8.56,8.56,0,0,0-.547,2.7,6.584,6.584,0,0,0,.394-1q.309-.9.47-1.282m23.915-1.932a22.313,22.313,0,0,1,1.528-1.636,2.772,2.772,0,0,1,1.13-.767c.284-.059.432.055.442.344a8.867,8.867,0,0,1-.506,1.507q-.508,1.335-1.295,3.339t-1.861,4.421q-1.07,2.415-2.148,4.7t-2.168,4.136a17,17,0,0,1-2,2.834,4.943,4.943,0,0,1-1.17.86,4.5,4.5,0,0,1-1.1.41,4.655,4.655,0,0,1-1.541.064l-.346-.1a3.746,3.746,0,0,1-2.7-1.393,7.472,7.472,0,0,1-1.395-3.161,38.935,38.935,0,0,1-3.53,4.382,10.425,10.425,0,0,1-4.352,2.982,3.855,3.855,0,0,1-2.75-.291,5.592,5.592,0,0,1-1.9-1.74,7.525,7.525,0,0,1-1.112-2.433,10.5,10.5,0,0,1-.38-2.281,30.391,30.391,0,0,1,.877-8.02,39.3,39.3,0,0,1,2.8-8.035,27.559,27.559,0,0,1,4.184-6.447,9.417,9.417,0,0,1,4.942-3.238,6.437,6.437,0,0,1,2.31-.052,5.47,5.47,0,0,1,2.215.841,6.352,6.352,0,0,1,1.776,1.81,7.534,7.534,0,0,1,1.082,2.832,6.512,6.512,0,0,1,2.564,1.075,2.776,2.776,0,0,1,1.408,2.282,3.264,3.264,0,0,1-.138.905,52.881,52.881,0,0,0-2.6,7.816,26.76,26.76,0,0,0-.9,7.367,21.462,21.462,0,0,0,2.489-3.59q1.165-2.088,2.16-4.268t2-4.187a19.569,19.569,0,0,1,1.983-3.267" transform="translate(-159.775 -277.756)"/>
      <path id="Path_26038" data-name="Path 26038" d="M344.006,411.739a25.642,25.642,0,0,0,7.481-11.393,36.492,36.492,0,0,1-7.481,11.393m-7.821-5.69a.363.363,0,0,1,.033-.226.2.2,0,0,0,.04-.139l0-.087q-.615,2.144-.946,3.614c-.225.983-.432,1.958-.628,2.934a10.591,10.591,0,0,0-.258,2.331,7.329,7.329,0,0,0,.322,1.9c.191.631.346.934.46.909a4.884,4.884,0,0,0-.15-.624,5.7,5.7,0,0,1-.177-1.319,12.852,12.852,0,0,1,.137-2.26q.17-1.218.385-2.489t.428-2.455c.144-.789.261-1.484.357-2.089m14.773-11.1a2.674,2.674,0,0,1,2.02,1.408,6.91,6.91,0,0,1,.8,3.245,15.03,15.03,0,0,1-1.418,6.033,39.2,39.2,0,0,1-3.95,7.142,34.3,34.3,0,0,1-5.6,6.309,14.164,14.164,0,0,1-6.3,3.441,3.275,3.275,0,0,1-3.56-1.386,9.2,9.2,0,0,1-1.19-4.605,31.97,31.97,0,0,1,.469-6.223q.561-3.448,1.393-6.643t1.6-5.765c.512-1.715.9-2.917,1.16-3.617l.158-.382a31.8,31.8,0,0,0-2.122,3.075q-1.625,2.535-3.638,6.2t-4,8.028a68.357,68.357,0,0,0-3.219,8.386,1.253,1.253,0,0,1-1.077,1.1,2.539,2.539,0,0,1-2.216-.93q-1.193-1.144-1.32-4.708a39.418,39.418,0,0,1,1.218-9.274,96.117,96.117,0,0,1,5.287-15.389,1.592,1.592,0,0,1,1.249-1.055,3.742,3.742,0,0,1,2.327.383,8.957,8.957,0,0,1,2.188,1.371l-.406.612c-.16.326-.469.948-.922,1.858s-.9,1.9-1.353,2.958-.853,2.093-1.216,3.1a6.842,6.842,0,0,0-.52,2.382,1.159,1.159,0,0,0,.1.5,17.741,17.741,0,0,1,.757-2.873q.621-1.882,1.413-3.758c.525-1.251,1-2.341,1.426-3.279s.693-1.417.805-1.44a2.28,2.28,0,0,1,.739,1.507,3.626,3.626,0,0,1-.381,1.348c-.265.61-.569,1.291-.915,2.034s-.691,1.488-1.034,2.233-.625,1.373-.837,1.883c.861-1.583,1.761-3.117,2.711-4.6a40.6,40.6,0,0,1,2.858-3.979,24.4,24.4,0,0,1,2.769-2.906,5.934,5.934,0,0,1,2.6-1.429,4.068,4.068,0,0,1,3.232.581,3.2,3.2,0,0,1,1.507,2.7,11.054,11.054,0,0,1-.457,1.585q-.467,1.411-1.162,3.571t-1.584,4.933q-.887,2.769-1.647,5.557t-1.35,5.45a37.4,37.4,0,0,0-.78,4.629,38.022,38.022,0,0,0,7.971-7.207,33.444,33.444,0,0,0,5.742-9.71,3.259,3.259,0,0,0,.144-.731.5.5,0,0,0-.487-.509,7.359,7.359,0,0,0-1.074-.078c-.4,0-.758-.014-1.074-.035a.45.45,0,0,1-.487-.467,2.207,2.207,0,0,1,.932-1.554,3.982,3.982,0,0,1,1.721-1.022" transform="translate(-213.955 -260.028)"/>
      <path id="Path_26039" data-name="Path 26039" d="M584.5,342.316q.461-1.892.8-3.491a11.157,11.157,0,0,0,.321-2.133c0-.058.01-.092.04-.1s.041-.04.039-.1l0-.089c-.058.012-.158.111-.3.288a2.554,2.554,0,0,0-.359,1.017q-.676,3.378-1.195,6.091-.444,2.341-.819,4.259a8.04,8.04,0,0,0-.28,2.079q.224-1.212.8-3.536t.949-4.288m-8.986-10.66a6.134,6.134,0,0,0-1.186,1.24,22.305,22.305,0,0,0-1.679,2.244,2.275,2.275,0,0,1-.288.6c-.193.341-.384.71-.576,1.111s-.367.767-.534,1.1-.217.5-.156.483q-.263.055,1.123-1.809a52.718,52.718,0,0,0,2.961-4.535l.334-.431Zm3.839,9.242a11.392,11.392,0,0,0,.424-1.708c.123-.683.243-1.412.364-2.187a21.009,21.009,0,0,0,.227-2.249c.034-.724.041-1.356.022-1.89-.029-.829-.217-1.211-.565-1.137q-.7.15-1.614,1.647a31.251,31.251,0,0,0-1.887,3.721q-.983,2.23-1.941,4.9t-1.711,5.121q-.749,2.45-1.2,4.434a12.529,12.529,0,0,0-.431,2.873c.014.417.111.6.285.568a7.414,7.414,0,0,0,1.828-1.78q1.475-1.705,3.028-3.877t2.8-4.14a6.975,6.975,0,0,0,1.232-2.507,2.567,2.567,0,0,1-.631-.45,1.046,1.046,0,0,1-.379-.771,1.548,1.548,0,0,1,.155-.57m-9.322-2.689q.327-.7.942-1.95c.411-.837.836-1.658,1.277-2.473s.842-1.525,1.2-2.139.6-.935.712-.958l-1.554,1.991a21.338,21.338,0,0,0-1.629,2.41,17.209,17.209,0,0,0-1.27,2.7,8.746,8.746,0,0,0-.562,2.768,6.7,6.7,0,0,0,.4-1.03c.211-.615.374-1.051.48-1.314m24.535-1.984a22.879,22.879,0,0,1,1.569-1.679,2.853,2.853,0,0,1,1.159-.785c.289-.062.44.056.451.353a8.786,8.786,0,0,1-.517,1.546q-.522,1.372-1.33,3.426t-1.908,4.537q-1.1,2.476-2.2,4.822t-2.226,4.243a17.373,17.373,0,0,1-2.052,2.906,5.167,5.167,0,0,1-1.2.884,4.6,4.6,0,0,1-1.129.417,4.658,4.658,0,0,1-1.576.067l-.358-.1a3.849,3.849,0,0,1-2.773-1.429,7.7,7.7,0,0,1-1.432-3.244,39.455,39.455,0,0,1-3.622,4.5,10.692,10.692,0,0,1-4.462,3.058,3.953,3.953,0,0,1-2.821-.3,5.722,5.722,0,0,1-1.951-1.784,7.8,7.8,0,0,1-1.144-2.5,10.915,10.915,0,0,1-.388-2.341,31.316,31.316,0,0,1,.9-8.226,40.419,40.419,0,0,1,2.876-8.244,28.314,28.314,0,0,1,4.3-6.613,9.647,9.647,0,0,1,5.067-3.323,6.647,6.647,0,0,1,2.371-.055,5.689,5.689,0,0,1,2.271.864,6.463,6.463,0,0,1,1.822,1.858,7.767,7.767,0,0,1,1.112,2.9,6.667,6.667,0,0,1,2.629,1.1,2.854,2.854,0,0,1,1.445,2.341,3.282,3.282,0,0,1-.144.928,54.326,54.326,0,0,0-2.665,8.017,27.425,27.425,0,0,0-.92,7.559,21.641,21.641,0,0,0,2.551-3.686q1.2-2.139,2.219-4.376t2.046-4.3a20.31,20.31,0,0,1,2.035-3.352" transform="translate(-378.793 -219.197)"/>
      <path id="Path_26040" data-name="Path 26040" d="M663.633,316.208a9.5,9.5,0,0,0-.424,2.962,5.794,5.794,0,0,0,.984,3.023,14.383,14.383,0,0,1-.4-2.7q-.1-1.5-.158-3.286M650.7,323.443a46.877,46.877,0,0,1,3.7-12.457,24.237,24.237,0,0,0-3.7,12.457m19.548-16.457a2.133,2.133,0,0,1,.935,1.6,5.306,5.306,0,0,1-.579,2.323q-.611,1.343-1.343,3.068a30.842,30.842,0,0,0-1.317,3.871,16.281,16.281,0,0,0-.49,4.818c.013.356.039.71.082,1.059s.1.73.169,1.132a1.34,1.34,0,0,1-1.175,1.508,2.53,2.53,0,0,1-2.955-1.573A14.509,14.509,0,0,1,662.4,318.8c-.01-.3-.021-.609-.032-.937a6.564,6.564,0,0,1,.052-1.042q-2.873,5.817-5.222,11.524a48.019,48.019,0,0,0-3.142,10.722,1.647,1.647,0,0,1-1.355,1.456q-2.7.574-3.822-1.252a10.371,10.371,0,0,1-1.229-5.037,37.663,37.663,0,0,1,.539-7.252q.648-4.042,1.572-7.739t1.843-6.407a18.628,18.628,0,0,1,1.334-3.337,2.167,2.167,0,0,1,1.55-.868,5.135,5.135,0,0,1,1.624-.077,6.425,6.425,0,0,1,1.6.381,3.7,3.7,0,0,1,1.256.764,1.665,1.665,0,0,1,.525,1.191,1.732,1.732,0,0,1-.065.642q-1.117,3.382-2.626,7.831a45.188,45.188,0,0,0-2.072,8.611,25.64,25.64,0,0,1,.906-2.934q.681-1.89,1.656-4.209t2.208-4.692a45.338,45.338,0,0,1,2.615-4.416,22.949,22.949,0,0,1,2.821-3.474,6.047,6.047,0,0,1,2.925-1.743,2.945,2.945,0,0,1,2.392.477" transform="translate(-434.473 -205.884)"/>
      <path id="Path_26041" data-name="Path 26041" d="M717.932,309.057q.166-.3.577-1.02t.913-1.586q.5-.864,1-1.692a14.015,14.015,0,0,1,.919-1.362,16.464,16.464,0,0,0-1.772,2.083,10.463,10.463,0,0,0-1.166,1.862,3.753,3.753,0,0,0-.467,1.715m-1.968,1.495c.106-.321.21-.629.32-.922s.185-.5.24-.632a14.064,14.064,0,0,1,1.02-2.238q.78-1.464,1.614-2.858t1.541-2.437a6.074,6.074,0,0,1,.8-1.067l-.763.793a25.143,25.143,0,0,0-3.837,5.886,11.475,11.475,0,0,0-1.335,4.549c.058-.013.114-.084.169-.216q.078-.284.234-.858m19.354-4.382q2.113-2.335,2.728-2.467c.173-.036.263.066.273.3a2.834,2.834,0,0,1-.27,1.136c-.188.46-.418,1.047-.684,1.761l-.977,2.185q-1.217,2.864-2.654,5.815a43.8,43.8,0,0,1-3.149,5.473,22.83,22.83,0,0,1-3.8,4.352,10.235,10.235,0,0,1-4.7,2.393,9.927,9.927,0,0,1-4.083.106,8.233,8.233,0,0,1-3.168-1.347,6.745,6.745,0,0,1-2.1-2.427,7.075,7.075,0,0,1-.812-3.058,23.3,23.3,0,0,1,1.112-7.2,41.286,41.286,0,0,1,3.32-8.067A32.036,32.036,0,0,1,721.2,298.3a11.213,11.213,0,0,1,5.72-3.549,5.358,5.358,0,0,1,3.888.654,3.578,3.578,0,0,1,1.956,3.131,9.023,9.023,0,0,1-.448,2.294,21.432,21.432,0,0,1-1.327,3.469A18.976,18.976,0,0,1,729,307.6a4.216,4.216,0,0,1-2.355,1.758c-.7.148-1.059-.105-1.082-.761a1.88,1.88,0,0,1,.236-.857,37.927,37.927,0,0,0,1.451-3.673,8.2,8.2,0,0,0,.528-2.582c-.025-.713-.272-1.02-.735-.92q-.787.164-1.832,1.644a32.12,32.12,0,0,0-2.12,3.5q-1.072,2.027-1.962,4.143a25.891,25.891,0,0,0-1.278,3.64,15.421,15.421,0,0,0-.635,4.531,5.112,5.112,0,0,0,.99,3.158,2.772,2.772,0,0,0,2.923.682,7.857,7.857,0,0,0,4.258-2.658,28.51,28.51,0,0,0,3.39-4.76q1.491-2.606,2.637-5a16.191,16.191,0,0,1,1.907-3.278" transform="translate(-477.586 -197.969)"/>
      <path id="Path_26042" data-name="Path 26042" d="M794.911,277.971a4.207,4.207,0,0,1,1.386.647,6.812,6.812,0,0,1,1.358,1.195,12.041,12.041,0,0,1,1.06,1.389,2.635,2.635,0,0,1,.487,1.335c.059.108.123.212.187.319s.093.129.091.069a4.171,4.171,0,0,0-.4-1.484,7.839,7.839,0,0,0-.98-1.632,5.6,5.6,0,0,0-1.451-1.307,3.169,3.169,0,0,0-1.735-.531m-2.1,20.378a22.432,22.432,0,0,0,1.049-2.648q.557-1.642,1.018-3.537t.746-3.84a19.956,19.956,0,0,0,.227-3.551,6.674,6.674,0,0,0-.913-3.533,2.433,2.433,0,0,0-2.754-.805,4.741,4.741,0,0,0-2.327,1.259,8.253,8.253,0,0,0-1.718,2.43,13.255,13.255,0,0,0-1.031,3.136,14.568,14.568,0,0,0-.277,3.382,13.108,13.108,0,0,0,.407,2.876,7.375,7.375,0,0,0,1.1,2.417,5.9,5.9,0,0,0,1.861,1.713,5.338,5.338,0,0,0,2.617.7m-6.378,6.114a2.6,2.6,0,0,0,.79-.078,7.619,7.619,0,0,0,3.693-2.4,9.412,9.412,0,0,1-3.754-1.806,13.2,13.2,0,0,1-3.018-3.4,13.61,13.61,0,0,0-.4,3.5,5.548,5.548,0,0,0,.756,2.8,2.976,2.976,0,0,0,1.937,1.382m-6.646-11.7a1.07,1.07,0,0,1,.032-.32,1.121,1.121,0,0,0,.033-.321.432.432,0,0,1,.078-.287c-.117.025-.252.265-.414.717a14.05,14.05,0,0,0-.466,1.715c-.152.691-.288,1.47-.4,2.33a15.1,15.1,0,0,0-.13,2.541,16.757,16.757,0,0,0,.317,2.806,6.357,6.357,0,0,0,.823,2.161,13.611,13.611,0,0,1-.676-4.257,26.22,26.22,0,0,1,.166-4.032,14.005,14.005,0,0,1,.642-3.054m25.817-5.487q.846-.985,1.569-1.68a2.832,2.832,0,0,1,1.159-.785c.291-.063.437.028.447.265a6.843,6.843,0,0,1-.631,2.019,56.085,56.085,0,0,1-4.838,8.7,13.757,13.757,0,0,1-6.106,5.025,23.518,23.518,0,0,1-4.552,5.546,12.139,12.139,0,0,1-5.524,2.88,8.591,8.591,0,0,1-4.4-.053,6.947,6.947,0,0,1-3.1-1.945,9.066,9.066,0,0,1-1.87-3.238,13.7,13.7,0,0,1-.709-3.936c-.014-.416.018-1.2.092-2.353a30.162,30.162,0,0,1,.45-3.505,21.546,21.546,0,0,1,.854-3.235c.347-.973.753-1.506,1.221-1.606a4.01,4.01,0,0,1,1.448.007,3.963,3.963,0,0,1,1.562.61,2.451,2.451,0,0,1-.114-.65c-.007-.207-.014-.4-.019-.577a11.951,11.951,0,0,1,.64-4.268,14.041,14.041,0,0,1,2.019-3.888,14.248,14.248,0,0,1,3.012-3.017,9.381,9.381,0,0,1,3.633-1.67,7.525,7.525,0,0,1,4.269.17,7.256,7.256,0,0,1,3.017,2.1,9.406,9.406,0,0,1,1.784,3.345,14.912,14.912,0,0,1,.665,3.9,23.624,23.624,0,0,1-.432,5.212,30.063,30.063,0,0,1-1.57,5.359,10.665,10.665,0,0,0,1.517-1.8q.669-.992,1.332-2.122t1.413-2.319q.751-1.191,1.758-2.486" transform="translate(-521.291 -185.269)"/>
      <path id="Path_26043" data-name="Path 26043" d="M454.656,329.821a15.231,15.231,0,0,1-.989-5.675q-.29-8.3,2.65-24.724-3.555,16.453-3.285,24.137.154,4.4,1.624,6.262M452.5,288.258a6.605,6.605,0,0,0,.453-.923,2.422,2.422,0,0,1,.285-.579q-.436.095-1.507,2.075t-2.5,5.077q-1.432,3.092-2.923,6.92t-2.677,7.588q-1.2,3.559-1.832,5.449t-1,2.846c-.244.636-.389,1.046-.443,1.229a1.6,1.6,0,0,0-.073.379,5.208,5.208,0,0,0,.728-1.806q1.668-5,3.109-9.076t2.858-7.474q1.415-3.4,2.769-6.267t2.754-5.436m-14.02-1.461c.269-.609.488-1.088.652-1.427a5.856,5.856,0,0,1,.411-.761c.11-.229.133-.372.072-.427a20.662,20.662,0,0,0-1.326,2.293q-1.238,2.277-2.747,5.591t-2.916,7.072a32.611,32.611,0,0,0-1.829,6.741q2-5.385,3.94-10.441a92.72,92.72,0,0,1,3.742-8.641M427.344,312.7a18.185,18.185,0,0,0,.971-2.477q.878-2.456,2-5.587t2.159-6.138q1.035-3.006,1.527-4.042.405-1.014,1.251-3.206t1.78-4.356q.936-2.156,1.8-3.84c.577-1.119,1.038-1.718,1.387-1.793q-.523.111-1.672,2.419t-2.612,5.718q-1.463,3.413-2.953,7.341t-2.772,7.4q-1.286,3.474-2.081,5.863a17.571,17.571,0,0,0-.786,2.7m-8.4,11.183q1.695-14.3,7.8-38.417-3.7,12.458-5.649,22.007a98.346,98.346,0,0,0-2.15,16.409m-5.878-19.241a9.562,9.562,0,0,1-.432-3.291,26.153,26.153,0,0,1,1.618-7.655,23.214,23.214,0,0,0-2.235,7.849,3.924,3.924,0,0,0,1.049,3.1m43.83-3.693q-1.041,5.487-1.836,11.59a69.256,69.256,0,0,0-.615,11.335c.026.752.084,1.532.169,2.339a12.923,12.923,0,0,0,.431,2.231,4.124,4.124,0,0,0,.88,1.631c.4.435,1.489.431,1.961.537a2.2,2.2,0,0,1,.845.285.946.946,0,0,1,.424.787,2.049,2.049,0,0,1-1.042,1.615,11.805,11.805,0,0,1-3.462,1.474,7.567,7.567,0,0,1-2.722.063,4.861,4.861,0,0,1-2.593-1.307,8.088,8.088,0,0,1-1.956-3.148,17.062,17.062,0,0,1-.889-5.336,77.2,77.2,0,0,1,.191-8.349,89.09,89.09,0,0,1,1.134-9.019q.809-4.558,1.965-9.143a75.492,75.492,0,0,1,2.77-8.744l-.908,1.639q-1.575,2.81-3.158,6.452t-3.032,7.562q-1.442,3.921-2.8,8.03t-2.538,7.765l-.24.672-.524.111q-2.8.286-3.8-1.773a13.119,13.119,0,0,1-1.106-5.239,48.139,48.139,0,0,1,.207-6.65q.327-3.17.927-6.136t1.38-5.816q.778-2.851,1.554-5.8-2.113,4.995-4.112,10.579t-3.954,11.372c-1.3,3.857-2.761,7.628-3.77,11.488-1.211,4.629-1.884,8.964-2.866,13.539a9.967,9.967,0,0,1-.646,2.218,1,1,0,0,1-.686.457,2.654,2.654,0,0,1-2.422-.728,8.178,8.178,0,0,1-1.479-2.115,20.216,20.216,0,0,1-1.051-3.59,28.376,28.376,0,0,1-.418-4.523,58.116,58.116,0,0,1,.307-8.093q.5-4.34,1.355-8.91t1.759-8.788q.906-4.219,1.6-7.051.774-2.954,1.382-5.664t1.312-5.233q.7-2.526,1.577-5.139a48.44,48.44,0,0,1,2.185-5.368,30.5,30.5,0,0,0-5.332,5.83,62.851,62.851,0,0,0-4.7,7.607,50.294,50.294,0,0,0-3.33,7.779,18.785,18.785,0,0,0-1.146,6.232,3.962,3.962,0,0,0,.89,2.806.946.946,0,0,1-.2.661,1.123,1.123,0,0,1-.905.373,12.406,12.406,0,0,1-3.593-.809,8.373,8.373,0,0,1-2.564-1.727,4.611,4.611,0,0,1-1.258-3.294q-.107-3.077,2.142-7.838a58.335,58.335,0,0,1,5.69-9.47,50.843,50.843,0,0,1,7.573-8.322,17.918,17.918,0,0,1,7.711-4.376,11.637,11.637,0,0,1,1.883-.192,15.943,15.943,0,0,1,1.941-.041,6.646,6.646,0,0,1,1.647.274q.8.245.815.757a11.979,11.979,0,0,1-.387,1.476c-.159.483-.391,1.064-.686,1.747s-.708,1.543-1.229,2.582-.953,2.339-1.67,4.016l.989-1.861a64.989,64.989,0,0,0,3-6.007,7.863,7.863,0,0,1,.691-1.592,3.794,3.794,0,0,1,.278.406,2.1,2.1,0,0,1,.391,1.1,4.6,4.6,0,0,1-.182,1.07q-.2.767-.511,1.71c-.214.632-.349,1.029-.557,1.692s-.769,2.09-.986,2.551c-.753,1.82-1.168,2.89-1.748,4.664s-1.162,3.655-1.739,5.635-1.26,4.062-1.757,6.311a66.873,66.873,0,0,0-1.133,7.359c.429-.979.579-1.537,1.074-2.825.217-.566.614-1.524.624-1.544.436-.918.6-1.382,1.29-3.131q1.047-2.647,2.3-5.705t2.636-6.291q1.382-3.234,2.739-5.9a32.658,32.658,0,0,1,2.656-4.438,4.627,4.627,0,0,1,2.348-2,2.892,2.892,0,0,1,1.633.219,4.132,4.132,0,0,1,1.256.682,5.937,5.937,0,0,1,1.5,1.539,3.7,3.7,0,0,1,.638,1.93,2.416,2.416,0,0,1-.139,1.061q-.87,2.769-1.573,5.24t-1.325,4.875q-.621,2.4-1.234,4.959a37.287,37.287,0,0,0-.805,5.834q2.421-6.093,4.924-11.167t5.406-10.028a1.083,1.083,0,0,1,.772-.577,3.627,3.627,0,0,1,2.027.188,7.584,7.584,0,0,1,1.969,1.081,6.206,6.206,0,0,1,1.508,1.64,3.75,3.75,0,0,1,.634,1.877,4.137,4.137,0,0,1-.142.859,81.13,81.13,0,0,0-2.582,9.117q-.9,4.219-1.872,9.279" transform="translate(-272.679 -181.616)"/>
      <path id="Path_26044" data-name="Path 26044" d="M635.963,549.872c-.016.025-.023.041-.021.052.021,0,.068-.063.143-.174a4.822,4.822,0,0,0,.38-.654c.116-.248.223-.5.32-.751a7.716,7.716,0,0,0,.24-.742c.067-.243.119-.447.162-.62-.043.062-.066.092-.073.088s-.022.034-.048.116a.077.077,0,0,0-.021.06.053.053,0,0,1-.008.041l-.012.02c-.1.314-.192.594-.28.841s-.166.463-.241.653-.154.359-.23.51a4.654,4.654,0,0,1-.266.453.187.187,0,0,0-.044.108m1.343-2.275a.126.126,0,0,0,0-.081,3.778,3.778,0,0,1-.133.427c-.067.182-.146.382-.236.6s-.191.442-.3.671-.213.433-.322.62a3.883,3.883,0,0,1-.311.462.553.553,0,0,1-.274.208,1.892,1.892,0,0,0,.562-.543,5.2,5.2,0,0,0,.439-.758,6.326,6.326,0,0,0,.332-.824q.136-.42.24-.783m-1.991-4.419c.017-.026.023-.044.021-.054.031-.007-.006.059-.114.193s-.229.3-.362.5a5.111,5.111,0,0,0-.355.609.872.872,0,0,0-.114.539.966.966,0,0,1,.107-.243c.081-.163.175-.35.285-.562s.214-.413.317-.6.174-.314.215-.377m-1.19,2.064a5.023,5.023,0,0,1,.216-.624q.133-.309.277-.6t.3-.542c.1-.167.194-.311.279-.436a.081.081,0,0,0-.058.042,1.969,1.969,0,0,0-.227.242,1.591,1.591,0,0,0-.17.278,1.866,1.866,0,0,0-.136.369c-.031.062-.072.162-.127.3s-.1.285-.156.432-.1.278-.141.395-.067.184-.073.2a.015.015,0,0,0,.011-.02Zm-.574.439c0-.02-.013-.01-.026.03a1.141,1.141,0,0,0-.037.227c-.054.328-.1.63-.137.9s-.07.516-.1.723-.051.373-.065.5-.019.189-.018.2c.01.041.039.058.092.047.029-.006.044-.048.039-.129s0-.232.008-.451a2.758,2.758,0,0,1,.051-.356c.034-.179.071-.381.107-.6s.067-.432.087-.638a1.862,1.862,0,0,0,0-.451m-.706,1.333c.011-.113.023-.236.04-.376s.034-.293.055-.461c.013-.1.032-.226.054-.377s.051-.3.077-.442.045-.269.062-.388a1.015,1.015,0,0,0,.011-.222l-.066.241c-.108.871-.206,1.584-.291,2.134a4.327,4.327,0,0,0-.089,1.032.058.058,0,0,0,.075.051c.02,0,.039-.125.051-.362s.021-.513.022-.83m-2.058,1.336a1.234,1.234,0,0,1-.4-.725,3.226,3.226,0,0,1,.1-1.392,2.846,2.846,0,0,0-.236,1.421.92.92,0,0,0,.538.7m7.581-5.458a2.216,2.216,0,0,1,.14.464,6.4,6.4,0,0,1,.089,1.317,11.223,11.223,0,0,1-.173,1.668,12.322,12.322,0,0,1-.468,1.81,9.128,9.128,0,0,1-.809,1.751,7.515,7.515,0,0,1-1.18,1.507,4.839,4.839,0,0,1-1.591,1.046.434.434,0,0,1-.148.063c-.052.011-.1.019-.155.03a1.076,1.076,0,0,1-.563-.03,1.244,1.244,0,0,1-.436-.258,1.382,1.382,0,0,1-.306-.406,1.912,1.912,0,0,1-.165-.476.947.947,0,0,1,.235-.854,2.769,2.769,0,0,1,.815-.611,6.208,6.208,0,0,1,.957-.383q.473-.142.658-.177l.077-.015c.156-.032.247.023.273.159a.23.23,0,0,1-.02.151.213.213,0,0,1-.123.107,4.05,4.05,0,0,0-1.053.5,4.807,4.807,0,0,0-.709.58,2.593,2.593,0,0,0-.4.5.75.75,0,0,0-.118.268c.009.041.066.052.169.033a1.92,1.92,0,0,0,.325-.1,2.949,2.949,0,0,0,.488-.269,3.81,3.81,0,0,0,1.067-.968,7.294,7.294,0,0,0,.8-1.334,9.672,9.672,0,0,0,.565-1.525,12.345,12.345,0,0,0,.332-1.554,10.732,10.732,0,0,0,.116-1.421,5.534,5.534,0,0,0-.084-1.12,1.291,1.291,0,0,0-.273-.658.437.437,0,0,0-.413-.14,1.109,1.109,0,0,0-.561.387,4.554,4.554,0,0,0-.58.868,8.689,8.689,0,0,0-.521,1.205,11.643,11.643,0,0,0-.394,1.408,9.962,9.962,0,0,0-.2,1.463,6.089,6.089,0,0,0,.068,1.376.248.248,0,0,1,.034.092.338.338,0,0,1,0,.148c-.015.045-.062.077-.144.094a.6.6,0,0,1-.079.005c-.032,0-.058,0-.078.008a.247.247,0,0,1-.115-.01.172.172,0,0,1-.052-.022.027.027,0,0,0-.026.037,1.273,1.273,0,0,1-.281-.036.1.1,0,0,0-.066-.011.029.029,0,0,0-.02.021c0,.011-.014.018-.036.023a.632.632,0,0,1-.332-.008.542.542,0,0,1-.213-.14.6.6,0,0,1-.122-.211,2.407,2.407,0,0,1-.062-.234,5.444,5.444,0,0,1-.048-1.356q.058-.821.189-1.672t.295-1.621c.11-.512.2-.916.285-1.217a2.843,2.843,0,0,0-.782.864,6.85,6.85,0,0,0-.625,1.284,7.454,7.454,0,0,0-.373,1.389,3.322,3.322,0,0,0-.026,1.149.841.841,0,0,0,.211.458.507.507,0,0,1,.163.222.486.486,0,0,0-.034.065.055.055,0,0,1-.043.033.091.091,0,0,1-.033,0,.065.065,0,0,0-.033,0c-.02,0-.03.011-.027.021s-.007.019-.029.023a.291.291,0,0,1-.178-.014.033.033,0,0,0-.022.012.03.03,0,0,1-.022.013.9.9,0,0,1-.446-.019,1.282,1.282,0,0,1-.384-.187,1.121,1.121,0,0,1-.283-.3.99.99,0,0,1-.149-.347,2.393,2.393,0,0,1,.026-.9,6.057,6.057,0,0,1,.321-1.077,7.821,7.821,0,0,1,.549-1.105,8.558,8.558,0,0,1,.706-1.005,4.737,4.737,0,0,1,.786-.767,1.926,1.926,0,0,1,.794-.384.619.619,0,0,1,.258,0,.883.883,0,0,0,.259.013,1.138,1.138,0,0,0,.115.01c.086.006.133.029.142.07a1.562,1.562,0,0,1-.063.5.658.658,0,0,0-.059.192c-.023.1-.051.209-.082.318s-.066.218-.1.322a.53.53,0,0,1-.092.2c-.015.026,0-.038.06-.192s.119-.325.189-.518.133-.375.191-.546.078-.251.058-.247c0,.01.023.027.066.052a.339.339,0,0,1,.118.156,1.879,1.879,0,0,1-.051.852c-.081.317-.155.623-.214.918a8.035,8.035,0,0,1,1.178-2,2.706,2.706,0,0,1,1.41-.987.4.4,0,0,1,.128-.009,1.182,1.182,0,0,1,.436.128,2.416,2.416,0,0,1,.459.295,3.072,3.072,0,0,1,.4.388,1.717,1.717,0,0,1,.262.406" transform="translate(-422.696 -363.697)"/>
      <path id="Path_26045" data-name="Path 26045" d="M658.445,546.014a.08.08,0,0,1,0,.033.091.091,0,0,0,0,.049c.051-.011.081-.056.085-.14a.444.444,0,0,1,.011-.108c.011,0,.029-.043.058-.125s.052-.17.075-.269.044-.188.061-.273a.6.6,0,0,0,.018-.159c-.022,0-.049.055-.084.146s-.073.2-.107.324-.066.234-.088.336a.67.67,0,0,0-.029.185m.676.671a.169.169,0,0,1-.115.071.5.5,0,0,1-.2-.011,1.125,1.125,0,0,1-.241-.074.8.8,0,0,1-.2-.134.323.323,0,0,1-.108-.174,1.766,1.766,0,0,1,0-.36,4.15,4.15,0,0,1,.079-.547,2.625,2.625,0,0,1,.152-.5c.063-.148.13-.229.2-.244a.715.715,0,0,1,.285.021,1.973,1.973,0,0,1,.353.111,1.676,1.676,0,0,1,.3.162.312.312,0,0,1,.147.167.064.064,0,0,1-.007.049,5.055,5.055,0,0,0-.32.643c-.084.209-.195.481-.332.824m-.8,4.764a3.162,3.162,0,0,1,.029-.594c.034-.278.07-.558.112-.839s.082-.527.123-.743.063-.317.077-.308c-.063.012-.122.125-.178.336s-.1.461-.147.741-.071.561-.086.842a2.741,2.741,0,0,0,.018.627c.018.1.034.156.044.155s.014-.074.008-.215m1.649-2.215c.088-.1.167-.2.243-.284a.391.391,0,0,1,.189-.143.072.072,0,0,1,.095.064,1.587,1.587,0,0,1-.058.369c-.048.206-.113.449-.2.727s-.189.574-.31.893a9.243,9.243,0,0,1-.4.894,4.119,4.119,0,0,1-.453.709.847.847,0,0,1-.466.336.809.809,0,0,1-.828-.25,1.809,1.809,0,0,1-.4-.854,5.973,5.973,0,0,1,0-1.939q.161-1.134.439-2.348c.017-.091.095-.15.242-.177a.906.906,0,0,1,.3,0,1.256,1.256,0,0,1,.315.094.911.911,0,0,1,.271.194.54.54,0,0,1,.151.28.644.644,0,0,1-.02.315,15.082,15.082,0,0,0-.513,2.167,5.165,5.165,0,0,0-.03,1.764,2.311,2.311,0,0,0,.451-.617c.129-.25.248-.509.356-.78s.211-.535.307-.787a3.328,3.328,0,0,1,.306-.624" transform="translate(-440.961 -365.727)"/>
      <path id="Path_26046" data-name="Path 26046" d="M669.4,552.568c-.011,0-.016.034-.019.1s0,.148-.005.247,0,.2.007.3a1.784,1.784,0,0,0,.03.265c.008.041.016.084.026.125a.6.6,0,0,0,.045.14.869.869,0,0,0,.051.168c.01,0,.008-.059,0-.171s-.028-.24-.047-.384-.037-.28-.052-.416a1.045,1.045,0,0,1-.011-.284l-.02-.093Zm-.063,1.569a.955.955,0,0,0-.047-.112,1.021,1.021,0,0,1-.072-.239,2.63,2.63,0,0,1-.047-.458c-.008-.189-.01-.384-.008-.58,0-.218,0-.461.013-.724-.033.259-.054.477-.066.653s-.022.355-.027.531a1.794,1.794,0,0,0,.022.421c0,.011.011.044.027.1s.04.115.062.177a1.314,1.314,0,0,0,.074.163c.026.049.049.071.07.067m2.02-3.039a1.926,1.926,0,0,1,.23-.292.45.45,0,0,1,.2-.14c.041-.008.067.015.078.067a1.654,1.654,0,0,1-.049.344c-.04.2-.1.439-.182.72s-.185.583-.3.913a7.8,7.8,0,0,1-.4.917,3.645,3.645,0,0,1-.5.734,1.071,1.071,0,0,1-.569.372.768.768,0,0,1-.625-.174,1.276,1.276,0,0,1-.429-.789,4.053,4.053,0,0,1-.067-.994c.015-.369.045-.718.091-1.052s.093-.625.148-.88.089-.432.1-.522a4.128,4.128,0,0,0-.3.562q-.226.465-.5,1.127c-.177.44-.348.922-.51,1.44a9.937,9.937,0,0,0-.35,1.506.186.186,0,0,1-.169.2.568.568,0,0,1-.448-.168,1.474,1.474,0,0,1-.394-.853,6.835,6.835,0,0,1-.055-1.677,14.819,14.819,0,0,1,.524-2.78.234.234,0,0,1,.2-.188.777.777,0,0,1,.45.07,2.144,2.144,0,0,1,.457.249l-.058.11c-.021.059-.059.171-.117.336s-.114.343-.166.533-.1.38-.134.561a1.137,1.137,0,0,0-.023.432.234.234,0,0,0,.034.091,2.745,2.745,0,0,1,.063-.521c.042-.228.093-.454.149-.679s.114-.421.169-.59a1.128,1.128,0,0,1,.1-.26.523.523,0,0,1,.185.274.647.647,0,0,1-.029.253c-.032.115-.067.237-.111.365s-.089.263-.136.4-.082.25-.107.342c.125-.287.251-.565.385-.832a6.037,6.037,0,0,1,.409-.716,3.068,3.068,0,0,1,.432-.524.977.977,0,0,1,.457-.258.875.875,0,0,1,.627.107.719.719,0,0,1,.367.492,2.22,2.22,0,0,1-.068.676q-.1.522-.229,1.163t-.213,1.281a3.694,3.694,0,0,0-.014,1.068,2.245,2.245,0,0,0,.441-.632c.126-.256.242-.517.347-.786s.208-.525.3-.773a3.193,3.193,0,0,1,.3-.62" transform="translate(-447.014 -368.681)"/>
      <path id="Path_26047" data-name="Path 26047" d="M692.252,538.861q-.154.524-.289.96c-.092.291-.183.569-.276.838a9.309,9.309,0,0,0,.632-2.031Zm.429-.9c-.2.753-.41,1.441-.63,2.065s-.45,1.2-.689,1.731a11.5,11.5,0,0,0,1.319-3.8m-3.027,6.152a6.368,6.368,0,0,1,1.851-.849,2.491,2.491,0,0,0-.262.054c-.082.023-.165.045-.247.067a2.593,2.593,0,0,0-1.342.728m-.453-6.8a3.5,3.5,0,0,0,.1.739c.107.4.3.624.569.66a1.382,1.382,0,0,1-.571-.909c-.02-.073-.041-.149-.063-.233a.982.982,0,0,1-.037-.256m3.522,4.754a3.343,3.343,0,0,1,.272.4,1.877,1.877,0,0,1,.207.468c.028.1.018.162-.033.175a1.338,1.338,0,0,1-.388.021,1.969,1.969,0,0,0-.586.075,8.254,8.254,0,0,0-1.192.437c-.437.195-.872.41-1.3.647l-.041.027-.06-.033a1.6,1.6,0,0,1-.472-.355,1.282,1.282,0,0,1-.291-.536.917.917,0,0,1-.034-.191l.07-.169a1.273,1.273,0,0,0,.557-.389,7.168,7.168,0,0,0,.617-.782,10.28,10.28,0,0,0,.61-1.012c.195-.37.377-.735.539-1.1a11.038,11.038,0,0,0,.407-1.039,5.292,5.292,0,0,0,.217-.839,2.528,2.528,0,0,0-.029-.959.7.7,0,0,0-.292-.453.588.588,0,0,0-.447-.045,1.024,1.024,0,0,0-.358.188,1.224,1.224,0,0,0-.295.336,1.391,1.391,0,0,0-.169.437,1,1,0,0,0,.016.485,1.265,1.265,0,0,0,.119.292,1.14,1.14,0,0,0,.233.294l.154.144a1.351,1.351,0,0,1-.537.31.728.728,0,0,1-.653-.115,1.177,1.177,0,0,1-.408-.664,2.55,2.55,0,0,1-.065-1,2.91,2.91,0,0,1,.278-.913,2.388,2.388,0,0,1,.539-.71,1.753,1.753,0,0,1,.727-.4,1.778,1.778,0,0,1,.821-.047,1.476,1.476,0,0,1,.623.28,1.842,1.842,0,0,1,.435.492,2.169,2.169,0,0,1,.254.579,4.128,4.128,0,0,1,.12,1.478,7.892,7.892,0,0,1-.289,1.508,11.253,11.253,0,0,1-.531,1.432q-.315.689-.591,1.248a.873.873,0,0,0,.121-.041,1.257,1.257,0,0,1,.119-.041,2.3,2.3,0,0,1,.5-.077.891.891,0,0,1,.454.1l.047.053Z" transform="translate(-462.092 -359.241)"/>
      <path id="Path_26048" data-name="Path 26048" d="M706.623,538.341a5.1,5.1,0,0,0,.416-1.348,5.36,5.36,0,0,0-.044-1.67,6.9,6.9,0,0,1-.043,1.613,10.315,10.315,0,0,1-.329,1.406m-.969.343a.6.6,0,0,0,.33-.01,1.065,1.065,0,0,0,.6-.809,6.386,6.386,0,0,0,.214-1.577,12.177,12.177,0,0,0-.1-1.864,8.619,8.619,0,0,0-.361-1.674,2.665,2.665,0,0,0-.466-.918.521.521,0,0,0-.6-.163.822.822,0,0,0-.463.433,3.072,3.072,0,0,0-.279.838,6.378,6.378,0,0,0-.114,1.1,12.11,12.11,0,0,0,.038,1.233q.051.625.158,1.216a7.15,7.15,0,0,0,.266,1.062,3.191,3.191,0,0,0,.357.771.807.807,0,0,0,.42.358m-2.2-4.087a6.18,6.18,0,0,1,.822-3.12,4,4,0,0,0-.822,3.12m1.849-3.785a1.588,1.588,0,0,1,1.346.564,4.425,4.425,0,0,1,.894,1.6,8.292,8.292,0,0,1,.388,1.951,8.69,8.69,0,0,1-.06,2.01,5.094,5.094,0,0,1-.538,1.679,1.851,1.851,0,0,1-1.034.939,1.434,1.434,0,0,1-.882.033,1.931,1.931,0,0,1-.767-.446,3.306,3.306,0,0,1-.629-.812,5.887,5.887,0,0,1-.477-1.07,8.439,8.439,0,0,1-.388-1.9,7.855,7.855,0,0,1,.055-1.928,4.657,4.657,0,0,1,.538-1.6,1.935,1.935,0,0,1,1.083-.922,1.633,1.633,0,0,1,.23-.06,1.971,1.971,0,0,1,.24-.03" transform="translate(-471.692 -356.407)"/>
      <path id="Path_26049" data-name="Path 26049" d="M722.206,532.307a5.038,5.038,0,0,0,.29-1.382,5.319,5.319,0,0,0-.2-1.658,6.839,6.839,0,0,1,.107,1.611,10.054,10.054,0,0,1-.2,1.429m-.934.428a.61.61,0,0,0,.33-.037,1.076,1.076,0,0,0,.518-.862,6.458,6.458,0,0,0,.066-1.59,12.409,12.409,0,0,0-.272-1.847,8.711,8.711,0,0,0-.513-1.632,2.685,2.685,0,0,0-.55-.872.525.525,0,0,0-.609-.109.842.842,0,0,0-.421.476,3.039,3.039,0,0,0-.2.86,6.42,6.42,0,0,0-.011,1.11,11.54,11.54,0,0,0,.152,1.223,12.233,12.233,0,0,0,.267,1.2,7.9,7.9,0,0,0,.362,1.034,3.275,3.275,0,0,0,.428.734.8.8,0,0,0,.45.315m-2.57-3.864a6.193,6.193,0,0,1,.532-3.183,4.005,4.005,0,0,0-.532,3.183m1.492-3.94a1.588,1.588,0,0,1,1.393.436,4.425,4.425,0,0,1,1.038,1.507,8.291,8.291,0,0,1,.566,1.909,8.7,8.7,0,0,1,.126,2.006,5.145,5.145,0,0,1-.383,1.72,1.845,1.845,0,0,1-.944,1.031,1.418,1.418,0,0,1-.874.114,1.916,1.916,0,0,1-.8-.373,3.28,3.28,0,0,1-.7-.75,5.909,5.909,0,0,1-.572-1.02,8.252,8.252,0,0,1-.562-1.857,8.044,8.044,0,0,1-.126-1.928,4.746,4.746,0,0,1,.389-1.644,1.938,1.938,0,0,1,.994-1.019,1.686,1.686,0,0,1,.224-.08,1.867,1.867,0,0,1,.236-.052" transform="translate(-481.902 -352.448)"/>
      <path id="Path_26050" data-name="Path 26050" d="M734.555,524.713a2.945,2.945,0,0,0,.688-1.89,4.6,4.6,0,0,1-.688,1.89m-.424.372a4.255,4.255,0,0,0,1.037-2.9,6.052,6.052,0,0,1-1.037,2.9m-.991-7.474a2.3,2.3,0,0,1,1.434-.136,1.111,1.111,0,0,0-.7-.148,2.162,2.162,0,0,0-.739.284m1.577-.106a.821.821,0,0,1,.117.172.963.963,0,0,1,.092.255,2.617,2.617,0,0,1,.061.344,1.515,1.515,0,0,1,0,.322.235.235,0,0,1-.1.195c-.048.026-.1-.022-.173-.142a.316.316,0,0,0-.365-.162,1.641,1.641,0,0,0-.494.191,3.445,3.445,0,0,0-.313.2,1.488,1.488,0,0,0-.232.186l.284,1.834a6.023,6.023,0,0,1,.557-.234,1.9,1.9,0,0,1,.643-.117,1.4,1.4,0,0,1,.627.141,1.222,1.222,0,0,1,.516.518,2.363,2.363,0,0,1,.284,1.105,6.173,6.173,0,0,1-.1,1.293,7.207,7.207,0,0,1-.335,1.218,5.671,5.671,0,0,1-.4.874,3.54,3.54,0,0,1-.354.451,1.772,1.772,0,0,1-.428.347,1.091,1.091,0,0,1-.831.124,1.471,1.471,0,0,1-.824-.787l.1-.206a.518.518,0,0,0,.372-.082,2.047,2.047,0,0,0,.618-.686,8.114,8.114,0,0,0,.591-1.131,6.3,6.3,0,0,0,.378-1.17,1.193,1.193,0,0,0-.016-.794q-.087-.154-.352-.059a3.344,3.344,0,0,0-.51.237c-.1.058-.185.11-.258.156s-.115.075-.132.085l-.063.018a3.671,3.671,0,0,1-.558-.052,1.036,1.036,0,0,1-.518-.24l-.045-.048a2.246,2.246,0,0,1-.158-.546c-.058-.283-.114-.586-.166-.913s-.1-.638-.14-.929-.068-.487-.088-.585c-.009-.058-.016-.11-.025-.154s-.016-.1-.023-.154a.387.387,0,0,1,.084-.2,2.18,2.18,0,0,1,.248-.3,4.841,4.841,0,0,1,.369-.34,3.227,3.227,0,0,1,.456-.317,2.029,2.029,0,0,1,.848-.27.839.839,0,0,1,.749.358" transform="translate(-491.042 -347.24)"/>
      <path id="Path_26051" data-name="Path 26051" d="M526.361,464.3a28.348,28.348,0,0,1-3.285,5.731l-.408.492c.262-.372.337-.482.651-1,.4-.654.819-1.424,1.284-2.293s.92-1.776,1.365-2.7a16.338,16.338,0,0,0,.89-2.124c.048-.126.12-.326.215-.6s.193-.547.292-.853c.1-.366.225-.631.417-1.306a18.761,18.761,0,0,1-1.421,4.656M445.8,501.629c-.608.289-1.277.608-2.013.952s-1.1.517-1.8.868-1.222.644-2.1,1.163a11.043,11.043,0,0,1,2.41-1.554c1.107-.573,1.249-.668,2.108-1.034a15.8,15.8,0,0,1,2.689-1c-.258.115-.687.314-1.295.6m-53.54,45.1A95.254,95.254,0,0,1,401.844,533c4.226-4.94,9.684-10.026,15.867-16.1a208.59,208.59,0,0,0-25.449,29.816m136.761-96.369c-.639-4.679-5.59.542-4.807.123.514-.274.64.647.72,1.784.8,11.565-6.271,21.545-15.537,27.69-10.637,7.056-23.449,9.161-35.689,11.519-11.591,2.233-22.847,5.246-33.549,10.393a121.355,121.355,0,0,0-27.409,18.117,126.45,126.45,0,0,0-23.841,28.611c-2.957,4.771,9,2.135,12.584-2.89,12.857-18.037,22.041-31.532,40.993-41.446,10.764-5.631,20.563-8.625,32.412-10.9,12.222-2.348,27.607-4.812,38.093-12.014,9.922-6.813,17.894-17.343,16.029-30.987" transform="translate(-260.592 -301.12)"/>
    </g>
  </g>
</svg>
