<svg xmlns="http://www.w3.org/2000/svg" width="25.47" height="25.468" viewBox="0 0 25.47 25.468">
  <path id="Path_25891" data-name="Path 25891" d="M1593.084,6349.307a.5.5,0,0,1-.489.488h-3.429v3.43a.5.5,0,0,1-.49.49h-.98a.5.5,0,0,1-.49-.49v-3.43h-3.429a.5.5,0,0,1-.49-.488v-.979a.5.5,0,0,1,.49-.49h3.429v-3.428a.5.5,0,0,1,.49-.492h.98a.5.5,0,0,1,.49.492v3.428h3.429a.5.5,0,0,1,.489.49Zm-4.9-7.347a6.857,6.857,0,1,0,6.857,6.857,6.866,6.866,0,0,0-6.857-6.857m12.735,21.549a1.921,1.921,0,0,1-1.378-.579l-5.25-5.236a10.779,10.779,0,1,1,2.771-2.77l5.25,5.251a1.956,1.956,0,0,1-1.392,3.334" transform="translate(-1577.41 -6338.041)" fill="#fff"/>
</svg>
