<svg id="egg" xmlns="http://www.w3.org/2000/svg" width="61.369" height="42.04" viewBox="0 0 61.369 42.04">
  <g id="Group_2931" data-name="Group 2931" transform="translate(0 0)">
    <g id="Group_2930" data-name="Group 2930">
      <path id="Path_26211" data-name="Path 26211" d="M56.74,88.262c-3.107-4.922-7.227-7.632-11.6-7.632-4.347,0-8.448,2.682-11.549,7.552a29.507,29.507,0,0,0-3.563,8.423,13.5,13.5,0,0,0-2.664-.559.9.9,0,0,0-.191,1.788,11.666,11.666,0,0,1,2.45.529,35.458,35.458,0,0,0-.692,5.927H16.073c.8-3.181,3.886-5.734,7.861-6.371a.9.9,0,0,0-.284-1.775c-4.866.78-8.619,4.072-9.418,8.146H.9a.9.9,0,0,0-.9.9c0,3.943,2.265,7.761,6.377,10.75a30.739,30.739,0,0,0,14.77,5.293.9.9,0,0,0,.183-1.789,28.926,28.926,0,0,1-13.9-4.959c-3.309-2.405-5.265-5.357-5.589-8.4H28.919c.106,5.292,1.457,9.368,4.024,12.146a21.343,21.343,0,0,1-8.161,1.386h-.059a.9.9,0,0,0,0,1.8h.058a22.17,22.17,0,0,0,9.6-1.859c2.648,2.064,6.262,3.11,10.756,3.11,7.111,0,11.954-2.593,14.394-7.706a.9.9,0,0,0-1.623-.774c-2.146,4.5-6.323,6.682-12.771,6.682-4.322,0-7.7-1.029-10.051-3.058-2.906-2.509-4.379-6.682-4.379-12.4,0-.068,0-.137,0-.215a30.992,30.992,0,0,1,4.4-16.048c2.759-4.333,6.322-6.72,10.032-6.72,3.735,0,7.314,2.413,10.08,6.794a31.082,31.082,0,0,1,4.351,16.189A25.136,25.136,0,0,1,59,110.993a.9.9,0,0,0,1.752.4,26.928,26.928,0,0,0,.615-5.986A32.92,32.92,0,0,0,56.74,88.262Z" transform="translate(0 -80.63)" fill="#fff"/>
    </g>
  </g>
  <g id="Group_2933" data-name="Group 2933" transform="translate(35.18 14.695)">
    <g id="Group_2932" data-name="Group 2932">
      <path id="Path_26212" data-name="Path 26212" d="M303.468,203.233c-5.492,0-9.96,5.292-9.96,11.8s4.468,11.8,9.96,11.8,9.96-5.292,9.96-11.8S308.96,203.233,303.468,203.233Zm0,21.795c-4.5,0-8.162-4.485-8.162-10s3.661-10,8.162-10,8.162,4.485,8.162,10S307.969,225.028,303.468,225.028Z" transform="translate(-293.508 -203.233)" fill="#fff"/>
    </g>
  </g>
</svg>
