<svg xmlns="http://www.w3.org/2000/svg" width="111.827" height="77.98" viewBox="0 0 111.827 77.98">
  <g id="Group_3163" data-name="Group 3163" transform="translate(156.347 2059.449)">
    <path id="Path_26522" data-name="Path 26522" d="M394.489,555.964q-.075,1.081-.117,2.146a9.306,9.306,0,0,0,.022,1.5,1.765,1.765,0,0,1,.016.538q-.034.015-.12-.368a8.167,8.167,0,0,1-.123-1.563q-.01-1.064.062-2.145t.206-1.911q.131-.829.326-.912a2.645,2.645,0,0,0-.12.8q-.077.831-.153,1.91m-1.15,5.607c-.066-.139-.13-.271-.192-.4a4.616,4.616,0,0,1-.464-2.487,6.286,6.286,0,0,0,.3,1.542q.256.8.6,1.732a2.193,2.193,0,0,1-.242-.388m5.288-9.273q-.043-.192-.206-.124a1.049,1.049,0,0,0-.381.432c-.145.243-.3.513-.473.807a9.834,9.834,0,0,0-.558,1.683q-.252,1.008-.538,2.092t-.643,2.095a6.95,6.95,0,0,1-.868,1.728,15.377,15.377,0,0,1-.188-4.431,47.4,47.4,0,0,1,.78-5.634,1.872,1.872,0,0,0,0-.794,1.264,1.264,0,0,0-.36-.647,1.634,1.634,0,0,0-.6-.377,2.039,2.039,0,0,0-.682-.112,1.694,1.694,0,0,0-.648.125c-.3.127-.462.306-.482.538q-.42,3.155-.594,6.059a17.569,17.569,0,0,0,.268,4.858,4.309,4.309,0,0,0,.965,1.986,1.447,1.447,0,0,0,1.789.3,2.2,2.2,0,0,0,.94-1.023A13.049,13.049,0,0,0,397,559.9q.4-1.132.716-2.4t.53-2.362q.212-1.1.315-1.893a4.463,4.463,0,0,0,.068-.951" transform="translate(-508.717 -2562.138)" fill="#ffd100"/>
    <path id="Path_26523" data-name="Path 26523" d="M401.754,509.914a1.244,1.244,0,0,1-.092-.3c-.017-.106-.034-.207-.051-.3a2.923,2.923,0,0,1,.26-1.792,3.993,3.993,0,0,0-.153,1.113q0,.593.037,1.288m1.505-1.935a3.94,3.94,0,0,0-.163.666.283.283,0,0,1-.234.287.306.306,0,0,1,.007-.122.226.226,0,0,0,.009-.082,2.118,2.118,0,0,1,.094-.467c.069-.259.151-.544.249-.851s.192-.581.287-.822.161-.366.207-.379a1.834,1.834,0,0,1-.067.4c-.049.213-.108.445-.177.691s-.141.474-.213.68m.668-2.052a2.948,2.948,0,0,0-.669-.285,3.765,3.765,0,0,0-.76-.143,1.331,1.331,0,0,0-.606.067c-.152.063-.282.294-.394.688a8.4,8.4,0,0,0-.25,1.323,13.294,13.294,0,0,0-.09,1.4,4.755,4.755,0,0,0,.044.9.721.721,0,0,0,.251.4,1.307,1.307,0,0,0,.447.253,1.855,1.855,0,0,0,.518.1.991.991,0,0,0,.431-.056.422.422,0,0,0,.233-.223q.365-1.369.586-2.2a15.3,15.3,0,0,1,.582-1.733.2.2,0,0,0,.006-.129.638.638,0,0,0-.33-.364" transform="translate(-516.389 -2525.132)" fill="#ffd100"/>
    <path id="Path_26524" data-name="Path 26524" d="M429.635,535.961q.793-.257,1.478-.449a6.073,6.073,0,0,1,1.315-.227,4.544,4.544,0,0,0-2.12.355l-.341.143a2.1,2.1,0,0,0-.333.178m3.58-1.275a7.769,7.769,0,0,0-3.892.681l-.633.265a4.269,4.269,0,0,0-.649.349,19.623,19.623,0,0,1,5.174-1.3m-3.926-9.485a7.9,7.9,0,0,0,1.25-.753,6.127,6.127,0,0,1-.812.417l-.826.347c-.281.118-.585.24-.912.364s-.576.223-.749.3l.16.085a2.959,2.959,0,0,0,.616-.106q.355-.15,1.273-.65m3-2.824a.936.936,0,0,1,1.014.169,1.622,1.622,0,0,1,.648.971.883.883,0,0,1-.077.606q-.546,1.033-1.32,2.392t-1.582,2.806q-.809,1.45-1.6,2.875t-1.407,2.638q.519-.218,1.26-.472t1.575-.491q.833-.237,1.659-.433a9.644,9.644,0,0,1,1.525-.241,3.761,3.761,0,0,1,1.15.064.629.629,0,0,1,.529.458,2.509,2.509,0,0,1,.032.761,4.452,4.452,0,0,1-.16.862,4.044,4.044,0,0,1-.28.722.794.794,0,0,1-.354.395.165.165,0,0,1-.146-.016,5.82,5.82,0,0,0-1.366-.151,10.908,10.908,0,0,0-1.709.127,18.615,18.615,0,0,0-1.833.369,12.118,12.118,0,0,0-1.7.563,4.583,4.583,0,0,0-.884.485,4.034,4.034,0,0,1-.754.431.484.484,0,0,1-.43-.009,1.277,1.277,0,0,1-.37-.3,1.8,1.8,0,0,1-.284-.47,3.2,3.2,0,0,1-.17-.52,1.091,1.091,0,0,1-.039-.48,11.261,11.261,0,0,1,.781-2.2q.548-1.182,1.221-2.439T428.6,529.3q.718-1.293,1.339-2.469a3.24,3.24,0,0,1,.22-.36c.1-.141.141-.236.131-.284a1.2,1.2,0,0,1-.251.144l-.648.272q-.455.191-.994.4c-.357.138-.7.267-1.011.387s-.6.218-.839.294a1.211,1.211,0,0,1-.4.094q-.15.748-.394,1.863t-.525,2.145q-.281,1.033-.547,1.812t-.495.875a.274.274,0,0,1-.347-.045.7.7,0,0,1-.16-.313,2.755,2.755,0,0,1,.061-.9c.079-.439.185-.954.325-1.545s.281-1.211.429-1.859.264-1.267.342-1.859q-.5-.018-.682-.818a3.881,3.881,0,0,1,.055-1.949A1.679,1.679,0,0,1,425,523.99a1.278,1.278,0,0,1,.978.008.939.939,0,0,1,.635.688.187.187,0,0,1,0,.076.257.257,0,0,0,.008.111,13.508,13.508,0,0,0,2.955-.9,10.907,10.907,0,0,0,2.708-1.6" transform="translate(-535.524 -2539.412)" fill="#ffd100"/>
    <path id="Path_26525" data-name="Path 26525" d="M482.929,497.173a4.1,4.1,0,0,1,.667-.313l.646-.231a7.771,7.771,0,0,1,3.923-.47,19.564,19.564,0,0,0-5.235,1.014m3.092-.3q-.694.155-1.5.368a1.957,1.957,0,0,1,.342-.16l.348-.125a4.568,4.568,0,0,1,2.137-.241,6.275,6.275,0,0,0-1.326.157m-.982-10.3a12.025,12.025,0,0,1-1.795.625,3.155,3.155,0,0,1-.866.047.324.324,0,0,1-.187-.144c.228-.071.639-.228,1.067-.345s.744-.169,1.113-.286l1.088-.34a7.251,7.251,0,0,0,1.081-.439,8.6,8.6,0,0,1-1.5.882m5.617,8.756a.631.631,0,0,0-.5-.486,3.8,3.8,0,0,0-1.145-.127,9.475,9.475,0,0,0-1.536.16q-.835.152-1.681.341c-.563.128-1.1.263-1.6.4s-.929.278-1.282.4q.675-1.178,1.549-2.557t1.755-2.784q.885-1.4,1.732-2.718t1.448-2.317a.869.869,0,0,0,.11-.6,1.622,1.622,0,0,0-.594-1.005c-.326-.27-.578-.373-.754-.31a12.86,12.86,0,0,1-3.041,1.535,13.507,13.507,0,0,1-3,.736,1.22,1.22,0,0,0-.014-.3,1.047,1.047,0,0,0-.681-.747,1.375,1.375,0,0,0-1.885,1.222,5.315,5.315,0,0,0-.009,1.948q.138.809.637.854a8.9,8.9,0,0,1-.441,1.838c-.17.587-.331,1.143-.488,1.683a.347.347,0,0,0,.575.213,7.789,7.789,0,0,0,1.293-2.361,7.22,7.22,0,0,0,.451-1.477c.1-.014.184-.031.337-.066.249-.057.531-.146.853-.25l1.031-.331q.549-.177,1.013-.344l.662-.236a1.193,1.193,0,0,0,.259-.13c.008.047-.041.14-.147.276a3.5,3.5,0,0,0-.238.347q-.685,1.141-1.472,2.392T482.322,493q-.738,1.216-1.351,2.368a11.33,11.33,0,0,0-.9,2.151,1.1,1.1,0,0,0,.013.481,3.252,3.252,0,0,0,.141.528,1.8,1.8,0,0,0,.26.485,1.232,1.232,0,0,0,.353.322.48.48,0,0,0,.427.034,3.971,3.971,0,0,0,.778-.39,4.637,4.637,0,0,1,.908-.436,12.12,12.12,0,0,1,1.728-.469,18.138,18.138,0,0,1,1.85-.27,10.967,10.967,0,0,1,1.715-.034A5.77,5.77,0,0,1,489.6,498a.165.165,0,0,0,.145.023.791.791,0,0,0,.375-.375,4.128,4.128,0,0,0,.318-.706,4.466,4.466,0,0,0,.207-.852,2.521,2.521,0,0,0,.009-.762" transform="translate(-582.775 -2506.613)" fill="#ffd100"/>
    <path id="Path_26526" data-name="Path 26526" d="M554.041,475.976a5.448,5.448,0,0,0,1.522-3.941,8.12,8.12,0,0,1-1.522,3.941m1.094-5.019a.248.248,0,0,0-.217-.035c-.221.079-.457.383-.707.907a14.87,14.87,0,0,0-.686,1.738q-.312.953-.52,1.792a5.941,5.941,0,0,0-.206,1.062.544.544,0,0,0,.238-.047,2.093,2.093,0,0,0,1.038-.913,7.4,7.4,0,0,0,.727-1.51,8.714,8.714,0,0,0,.4-1.58,3.994,3.994,0,0,0,.048-1.155.575.575,0,0,0-.113-.258m-3.083,3.343a3.014,3.014,0,0,0,.279-.53q.245-.516.505-1.152c.175-.423.4-.994.674-1.716a2.419,2.419,0,0,0-.278.435q-.244.424-.516.988c-.183.376-.346.752-.493,1.128a1.756,1.756,0,0,0-.172.845m-.927.443c.059-.2.175-.492.34-.888l.5-1.187c.165-.4.311-.746.435-1.05a1.977,1.977,0,0,0,.173-.53,11.312,11.312,0,0,0-1.41,2.951,5.169,5.169,0,0,0-.306,1.808c.044-.015.078-.164.1-.446a1.559,1.559,0,0,1,.169-.658m7.424-2.094a3.342,3.342,0,0,1,.94-1.082c.066-.024.107.011.123.105a3.1,3.1,0,0,1-.189,1.15l-.272.881q-.357,1.21-.755,2.473a16.932,16.932,0,0,1-.948,2.374,8.955,8.955,0,0,1-1.284,1.951,4.154,4.154,0,0,1-1.76,1.208,3.879,3.879,0,0,1-1.52.246,3.333,3.333,0,0,1-1.3-.319,2.716,2.716,0,0,1-.956-.759,2.421,2.421,0,0,1-.488-1.114,9.671,9.671,0,0,1,.047-3.023,17.047,17.047,0,0,1,.889-3.436,13.479,13.479,0,0,1,1.544-3,4.277,4.277,0,0,1,1.977-1.7,1.975,1.975,0,0,1,1.709.1,1.781,1.781,0,0,1,.921,1.314,4.661,4.661,0,0,1-.17,2.02,10.266,10.266,0,0,1-.911,2.212,9.8,9.8,0,0,1-1.372,1.908,3.976,3.976,0,0,1-1.508,1.1,1.305,1.305,0,0,1-.551.086,4.276,4.276,0,0,0-.016.528,4.028,4.028,0,0,0,.051.5,1.875,1.875,0,0,0,.539,1.095q.418.394,1.312.074A2.889,2.889,0,0,0,556,478.318a13.7,13.7,0,0,0,1.087-2.069q.474-1.123.829-2.145a7.427,7.427,0,0,1,.629-1.457" transform="translate(-642.982 -2493.647)" fill="#ffd100"/>
    <path id="Path_26527" data-name="Path 26527" d="M611.034,449.595a3.85,3.85,0,0,0-.006,1.2,2.347,2.347,0,0,0,.546,1.148,5.959,5.959,0,0,1-.3-1.048q-.119-.593-.238-1.3m-4.666,3.535a18.947,18.947,0,0,1,.777-5.131,9.78,9.78,0,0,0-.777,5.131m6.759-7.531a.857.857,0,0,1,.451.586,2.144,2.144,0,0,1-.1.951q-.167.562-.361,1.285a12.477,12.477,0,0,0-.306,1.6,6.589,6.589,0,0,0,.067,1.936c.024.14.053.279.089.416s.077.285.127.44a.532.532,0,0,1-.379.658,1,1,0,0,1-1.238-.472,5.889,5.889,0,0,1-.782-2.316l-.062-.369a2.486,2.486,0,0,1-.036-.417q-.811,2.456-1.424,4.839a19.436,19.436,0,0,0-.652,4.415.652.652,0,0,1-.452.647,1.272,1.272,0,0,1-1.562-.3,4.2,4.2,0,0,1-.75-1.934,15.259,15.259,0,0,1-.179-2.9q.038-1.638.2-3.152t.376-2.636a7.544,7.544,0,0,1,.342-1.391.848.848,0,0,1,.56-.424,1.969,1.969,0,0,1,.631-.115,2.517,2.517,0,0,1,.643.069,1.444,1.444,0,0,1,.532.238.775.775,0,0,1,.278.7q-.252,1.4-.606,3.241a18.468,18.468,0,0,0-.347,3.522,10.49,10.49,0,0,1,.2-1.21c.109-.524.251-1.11.422-1.755s.374-1.3.611-1.974a18.079,18.079,0,0,1,.785-1.885,9.025,9.025,0,0,1,.917-1.523,2.36,2.36,0,0,1,1.051-.842,1.142,1.142,0,0,1,.96.068" transform="translate(-690.198 -2474.083)" fill="#ffd100"/>
    <path id="Path_26528" data-name="Path 26528" d="M662.171,400.006a.2.2,0,0,1,0,.077.251.251,0,0,0,0,.11c.11-.039.172-.153.187-.346a.972.972,0,0,1,.027-.253.88.88,0,0,0,.125-.306q.089-.294.172-.64c.053-.23.1-.446.135-.645a1.632,1.632,0,0,0,.043-.37c-.045.016-.107.137-.184.364s-.158.485-.237.775-.145.557-.2.8a1.9,1.9,0,0,0-.067.434m1.419,1.323a.452.452,0,0,1-.246.2,1.105,1.105,0,0,1-.432.042,1.961,1.961,0,0,1-.507-.1,1.265,1.265,0,0,1-.427-.24.616.616,0,0,1-.221-.369,3.926,3.926,0,0,1,.018-.827,11.21,11.21,0,0,1,.185-1.28,7.391,7.391,0,0,1,.339-1.2c.137-.359.283-.568.437-.623a1.459,1.459,0,0,1,.607-.049,3.673,3.673,0,0,1,.743.145,2.855,2.855,0,0,1,.645.273c.181.11.283.223.3.34a.174.174,0,0,1-.015.117,13.936,13.936,0,0,0-.7,1.575q-.277.751-.731,2m-1.85,11.189a8.082,8.082,0,0,1,.082-1.374c.076-.649.165-1.3.263-1.961s.193-1.239.282-1.743a2.415,2.415,0,0,1,.174-.734q-.2.071-.386.829t-.335,1.744q-.148.986-.21,1.96a6.868,6.868,0,0,0,.015,1.432c.04.235.072.347.094.339a1.483,1.483,0,0,0,.021-.493m3.575-5.61q.283-.4.524-.728a1.087,1.087,0,0,1,.408-.388c.111-.04.176,0,.2.116a3.8,3.8,0,0,1-.134.869q-.156.728-.442,1.727t-.688,2.148q-.4,1.152-.876,2.18a12.188,12.188,0,0,1-.979,1.769,2.269,2.269,0,0,1-1,.918,1.489,1.489,0,0,1-1.756-.3,3.6,3.6,0,0,1-.822-1.835,14.8,14.8,0,0,1,.067-4.448q.373-2.653,1.008-5.53c.034-.211.2-.371.515-.482a1.865,1.865,0,0,1,.649-.1,2.136,2.136,0,0,1,.669.117,1.536,1.536,0,0,1,.57.355,1.068,1.068,0,0,1,.312.6,1.584,1.584,0,0,1-.052.727,41.26,41.26,0,0,0-1.16,5.139,12.938,12.938,0,0,0-.117,4.054,6.692,6.692,0,0,0,.98-1.564q.425-.916.782-1.9t.677-1.9a9.063,9.063,0,0,1,.671-1.528" transform="translate(-736.144 -2432.773)" fill="#ffd100"/>
    <path id="Path_26529" data-name="Path 26529" d="M707.027,426.076a14.482,14.482,0,0,1,4.2-3.4,9.692,9.692,0,0,0-4.2,3.4m-4.445-2.593c.008.049.023-.032.047-.24s.05-.459.081-.757.053-.58.067-.846a3.217,3.217,0,0,0,0-.5q-.165.059-.251.893t-.125,1.837q-.04,1-.032,1.878c.006.583.016.909.027.98q.023-.681.06-1.292c.011-.351.026-.7.047-1.061s.048-.651.078-.888M701,423.9a1.03,1.03,0,0,1-.27-.146.423.423,0,0,1-.19-.286,3.916,3.916,0,0,1,0-.54c.009-.29.024-.612.046-.968s.031-.714.028-1.074a5.692,5.692,0,0,0-.065-.891c-.056-.328-.149-.47-.282-.422-.178.064-.357.309-.543.735a12.605,12.605,0,0,0-.538,1.575q-.262.932-.5,2.025t-.4,2.1q-.163,1.011-.235,1.82a4.993,4.993,0,0,0-.012,1.161c.031.188.08.271.146.248.132-.047.344-.317.636-.807s.59-1.032.9-1.628.584-1.174.828-1.732a9.392,9.392,0,0,0,.45-1.17m-2.533-3.947a.342.342,0,0,0,.036-.087.377.377,0,0,1,.038-.089l.027-.047a1.106,1.106,0,0,0-.448.458,7.4,7.4,0,0,0-.469.859,6.478,6.478,0,0,0-.35.928,1.712,1.712,0,0,0-.092.7q.272-.47.537-.975a9.828,9.828,0,0,0,.721-1.751m-1.723,2.669c.063-.17.155-.429.273-.769s.24-.683.369-1.029.251-.649.371-.916.2-.407.244-.423a3.824,3.824,0,0,0-.742,1.106,7.161,7.161,0,0,0-.449,1.28,9.484,9.484,0,0,0-.213,1.122,3.285,3.285,0,0,0-.039.593q.032-.012.057-.282a4.321,4.321,0,0,1,.13-.682m13.861-.887a3.532,3.532,0,0,1,1.818.059,1.2,1.2,0,0,1,.85.966,1.05,1.05,0,0,1-.2.687,1.152,1.152,0,0,1-.578.523c-.177.064-.279.014-.307-.15a1.751,1.751,0,0,1-.019-.423,1.558,1.558,0,0,0-.014-.387q-.072-.423-.535-.257a9.935,9.935,0,0,0-2.98,2.2,25.318,25.318,0,0,0-2.19,2.706q-.93,1.34-1.6,2.381a2.919,2.919,0,0,1-1.228,1.241,1.042,1.042,0,0,1-.927-.079,2.234,2.234,0,0,1-.743-.761,6.034,6.034,0,0,1-.542-1.113,6.372,6.372,0,0,1-.317-1.137c-.012-.071-.024-.147-.039-.229a.807.807,0,0,1-.006-.241,15.653,15.653,0,0,1-1.174,1.969,4.173,4.173,0,0,1-1.581,1.441,1.53,1.53,0,0,1-1.119.028,2.284,2.284,0,0,1-.858-.608,3.151,3.151,0,0,1-.58-.931,4.4,4.4,0,0,1-.278-.91,12.565,12.565,0,0,1-.084-3.273,16.844,16.844,0,0,1,.679-3.434,11.173,11.173,0,0,1,1.321-2.863,3.777,3.777,0,0,1,1.8-1.577,2.558,2.558,0,0,1,.924-.144,2.2,2.2,0,0,1,.934.226,2.572,2.572,0,0,1,.812.642,3.171,3.171,0,0,1,.591,1.1,2.644,2.644,0,0,1,1.088.3,1.146,1.146,0,0,1,.688.855,1.358,1.358,0,0,1,0,.375q-.122.529-.255,1.4c-.089.58-.164,1.2-.227,1.855s-.108,1.326-.132,2.008a11.126,11.126,0,0,0,.062,1.807,15.935,15.935,0,0,1,1.21-1.87,17.649,17.649,0,0,1,1.506-1.771,12.541,12.541,0,0,1,1.7-1.466,7.361,7.361,0,0,1,1.787-.956q.165-.059.367-.113a3.706,3.706,0,0,1,.373-.078" transform="translate(-766.505 -2450.248)" fill="#ffd100"/>
    <path id="Path_26530" data-name="Path 26530" d="M841.854,242.038a1.291,1.291,0,0,0,.378-.2,1.354,1.354,0,0,0,.262-.281.653.653,0,0,0,.112-.413.048.048,0,0,0-.029-.042.251.251,0,0,0-.132.007q-.065.015-.17.051a2.8,2.8,0,0,0-.262.11Zm.59.5a.269.269,0,0,0,.085.179.99.99,0,0,0,.182.152,1.007,1.007,0,0,0,.188.1.255.255,0,0,0,.113.031.919.919,0,0,1-.5.393.478.478,0,0,1-.338-.044.911.911,0,0,1-.266-.21,1.214,1.214,0,0,1-.236-.346l-.206.863a.62.62,0,0,1-.208.113.21.21,0,0,1-.171-.025.357.357,0,0,1-.111-.119.391.391,0,0,1-.071-.19l.475-2.2a.3.3,0,0,1-.195-.122.38.38,0,0,1-.052-.181.5.5,0,0,1,.021-.14.657.657,0,0,1,.024-.073,1.038,1.038,0,0,0,.25-.006c.079-.011.162-.028.248-.046l.525-.112a1.869,1.869,0,0,1,.289-.034.614.614,0,0,1,.293.061.543.543,0,0,1,.225.238,1.116,1.116,0,0,1,.1.485,1.083,1.083,0,0,1-.094.5,1.916,1.916,0,0,1-.573.737m1.015.425a3.684,3.684,0,0,0,.357-.888,2.76,2.76,0,0,0,.086-.721,1.763,1.763,0,0,0-.2-.812,2.872,2.872,0,0,0-.359-.517c-.212-.029-.427-.046-.648-.054a2.63,2.63,0,0,0-.643.055,2.168,2.168,0,0,0-.752.324,2.264,2.264,0,0,0-.658.739,3.724,3.724,0,0,0-.441.941,2.52,2.52,0,0,0-.106.745,1.809,1.809,0,0,0,.091.528,2.542,2.542,0,0,0,.185.411,1.984,1.984,0,0,0,.215.309,1.6,1.6,0,0,1,.165.225c.141.015.311.032.508.048a2.158,2.158,0,0,0,.638-.046,2.276,2.276,0,0,0,.8-.361,2.679,2.679,0,0,0,.764-.927m.05-3.151a3.084,3.084,0,0,1,.425.523,4.567,4.567,0,0,1,.3.6,2.17,2.17,0,0,1,.158.765,2.32,2.32,0,0,1-.143.809,3.439,3.439,0,0,1-.454.881,3.657,3.657,0,0,1-.722.762,2.246,2.246,0,0,1-.943.445,2.5,2.5,0,0,1-.911.031,1.871,1.871,0,0,1-.792-.318,1.837,1.837,0,0,1-.568-.657,2.266,2.266,0,0,1-.238-1,2.6,2.6,0,0,1,.062-.648,3.6,3.6,0,0,1,.258-.73,2.873,2.873,0,0,1,.422-.67,2.791,2.791,0,0,1,.509-.464,2.639,2.639,0,0,1,.547-.294,3.8,3.8,0,0,1,.552-.165c.122-.026.239-.046.353-.06s.222-.025.326-.029a1.459,1.459,0,0,1,.3.018c.089.018.181.042.278.071a1.228,1.228,0,0,1,.28.125" transform="translate(-889.202 -2299.049)" fill="#ffd100"/>
    <path id="Path_26531" data-name="Path 26531" d="M276.652,525.5a13.357,13.357,0,0,0,4.231-6.646,21.656,21.656,0,0,1-4.231,6.646m3.933-7.541a10.353,10.353,0,0,0,.3-2.363,13.7,13.7,0,0,0-.208-2.388,2.785,2.785,0,0,0-.148-.552c-.064-.158-.152-.217-.266-.176a1.064,1.064,0,0,0-.48.484c-.16.267-.266.45-.321.554a18.3,18.3,0,0,0-1.182,2.635q-.543,1.488-1.022,3.14t-.874,3.381q-.395,1.727-.713,3.26,1.48-1.74,2.882-3.723a13.612,13.612,0,0,0,2.029-4.252m-8.149,14.057q.111-2.543.344-5.423t.545-6.162a49.839,49.839,0,0,0-.888,11.586m-4.167-3.6a2.678,2.678,0,0,1-.82-1.626,10.884,10.884,0,0,1,.162-3.73,8.763,8.763,0,0,0-.516,3.774,1.979,1.979,0,0,0,1.175,1.583m15.3-15.07a2.759,2.759,0,0,1,.175.605c.037.211.072.42.108.63a12.048,12.048,0,0,1,.165,2.132,13.921,13.921,0,0,1-.191,2.175,8.256,8.256,0,0,1-1.111,2.735,22.97,22.97,0,0,1-2.138,2.976,27.4,27.4,0,0,1-2.728,2.812,24.478,24.478,0,0,1-2.88,2.239q-.049,2.064.029,3.893c.051,1.22.413,3.583.583,4.578q.074.433.178.834c.07.268.127.531.172.794q.06.354-.213.452a1.551,1.551,0,0,1-1-.122,9.406,9.406,0,0,1-1.3-.6,1.417,1.417,0,0,1-.639-.773,6.871,6.871,0,0,1-.4-1.485,38.821,38.821,0,0,1-.512-4.585q-.024-1.951.111-4.13t.352-4.424q.214-2.247.48-4.2c.177-1.3.343-2.453.5-3.454s.288-1.745.4-2.23a8.484,8.484,0,0,0-1.738,2.458,22.115,22.115,0,0,0-1.4,3.485,23.965,23.965,0,0,0-.83,3.635,9.758,9.758,0,0,0-.057,2.963,1.928,1.928,0,0,0,.475,1.082,1.188,1.188,0,0,1,.381.532c.032.183-.1.329-.4.435a2.784,2.784,0,0,1-1.024.157,2.655,2.655,0,0,1-1.016-.22,2.362,2.362,0,0,1-.831-.623,2.086,2.086,0,0,1-.468-1.042,6.989,6.989,0,0,1,.048-2.166,17.231,17.231,0,0,1,.669-2.766,29.265,29.265,0,0,1,1.146-2.955,20.866,20.866,0,0,1,1.472-2.739,14.462,14.462,0,0,1,1.679-2.165,4.691,4.691,0,0,1,1.765-1.236,1.984,1.984,0,0,1,.686-.12,2.7,2.7,0,0,0,.379-.01.811.811,0,0,0,.15-.075.892.892,0,0,1,.15-.074c-.024.008.043.005.2-.008a.542.542,0,0,1,.314.033,3.022,3.022,0,0,1,.026.471,4.489,4.489,0,0,1-.1.808c-.01.087-.046.266-.108.538s-.122.559-.18.857-.128.7-.211,1.2a27.385,27.385,0,0,0,.633-2.877,4.8,4.8,0,0,1,.143-.865c0,.027.075.056.215.091s.232.2.281.484a1.466,1.466,0,0,1,.017.2,1.27,1.27,0,0,0,.017.2q-.075,1.277-.268,2.787t-.352,3.57q.4-1.478.93-3.046a27.6,27.6,0,0,1,1.156-2.9,13.35,13.35,0,0,1,1.347-2.3,3.429,3.429,0,0,1,1.509-1.248,1.518,1.518,0,0,1,1.065-.025,2.244,2.244,0,0,1,.862.589,4.128,4.128,0,0,1,.652.957c.182.365.34.72.47,1.062" transform="translate(-402.1 -2529.517)" fill="#ffd100"/>
    <path id="Path_26532" data-name="Path 26532" d="M139.385,367.5a26.043,26.043,0,0,0,2.386-2.255,9.357,9.357,0,0,1-2.386,2.255m-9.921-2.4q4.045-5.434,12.526-8.707a36.886,36.886,0,0,0-12.526,8.707m11.544,11.229q-2.746,6.1-10.149,8.159,7.113-2.368,10.149-8.159m6.17-19.588a3.213,3.213,0,0,0-.44-.621,2.418,2.418,0,0,0-2.382-.678,27.557,27.557,0,0,0-4.449,1.376,28.192,28.192,0,0,0-4.458,2.257,24.758,24.758,0,0,0-3.989,3.077,15.992,15.992,0,0,0-3.005,3.83,7.174,7.174,0,0,0-.667,1.493,4.467,4.467,0,0,0-.227,1.52,2.54,2.54,0,0,0,.553,1.519,5.9,5.9,0,0,0,1.26,1.185,8.5,8.5,0,0,0,1.61.885q.872.368,1.6.621.688.263,1.6.541c.606.186,1.186.382,1.739.592a8.482,8.482,0,0,1,1.4.663q.573.348.587.755a8.182,8.182,0,0,1-3.143,3.879,13.978,13.978,0,0,1-4.651,1.868,3.811,3.811,0,0,1-.7.079,1.448,1.448,0,0,1-.705-.148,2.4,2.4,0,0,1,.411-.271c.2-.109.4-.213.608-.313s.4-.194.57-.285a1.685,1.685,0,0,1,.374-.161,47.422,47.422,0,0,1,4.538-1.7,1.243,1.243,0,0,0,.6-.557,1.444,1.444,0,0,0,.271-.813c-.01-.3-.188-.409-.532-.336q-1.226.343-2.809.842a20.818,20.818,0,0,0-2.956,1.18,9.748,9.748,0,0,0-2.324,1.557,2.468,2.468,0,0,0-.913,1.929,1.679,1.679,0,0,0,.646,1.333,4.41,4.41,0,0,0,1.444.734,6.305,6.305,0,0,0,1.689.274,6.189,6.189,0,0,0,1.416-.1,11.545,11.545,0,0,0,3.233-1.259,16.175,16.175,0,0,0,3.041-2.2,14.108,14.108,0,0,0,2.4-2.857,9.063,9.063,0,0,0,1.306-3.239,1.682,1.682,0,0,0,.062-.5,2.2,2.2,0,0,0-.546-1.354A5.933,5.933,0,0,0,140,372.23a11.733,11.733,0,0,0-1.489-.847q-.772-.367-1.3-.622-.648-.27-1.5-.621t-1.6-.721a6.014,6.014,0,0,1-1.268-.812,1.31,1.31,0,0,1-.532-.928.775.775,0,0,1,.15-.318,19.7,19.7,0,0,1,2.266-2.625,34,34,0,0,1,2.966-2.611,25.765,25.765,0,0,1,3.2-2.152,13.35,13.35,0,0,1,2.974-1.285,11.491,11.491,0,0,1-.953,1.937,7.28,7.28,0,0,1-1.361,1.658,2.865,2.865,0,0,1-.324-.115.536.536,0,0,0-.321-.033q-.119.025-.461.506c-.23.322-.47.692-.721,1.113s-.51.851-.774,1.288-.472.794-.623,1.071a1.833,1.833,0,0,0-.285,1,1.4,1.4,0,0,0,.415.994.949.949,0,0,0,.909.277.884.884,0,0,0,.47-.264,23.615,23.615,0,0,0,2.2-2.3q1.038-1.242,2.031-2.515.382-.49.974-1.29t1.1-1.623a17.308,17.308,0,0,0,.885-1.6,2.927,2.927,0,0,0,.354-1.3,1.64,1.64,0,0,0-.207-.752" transform="translate(-282.898 -2397.483)" fill="#ffd100"/>
    <path id="Path_26533" data-name="Path 26533" d="M246.971,420.68q.2-.84.355-1.549a4.891,4.891,0,0,0,.142-.946c0-.026.006-.041.019-.043s.018-.017.017-.044l0-.04c-.026.006-.069.049-.131.128a1.155,1.155,0,0,0-.16.451q-.3,1.5-.53,2.7-.2,1.04-.363,1.889a3.471,3.471,0,0,0-.123.921c.065-.357.184-.881.354-1.568s.31-1.32.421-1.9m-3.983-4.727a2.7,2.7,0,0,0-.527.55,9.789,9.789,0,0,0-.744,1,1.1,1.1,0,0,1-.127.266q-.13.226-.257.492c-.085.177-.162.339-.235.488s-.1.22-.071.214q-.116.025.5-.8a23.156,23.156,0,0,0,1.313-2.011l.149-.191Zm1.7,4.1a4.937,4.937,0,0,0,.188-.757c.054-.3.107-.626.162-.97a9.923,9.923,0,0,0,.1-1c.014-.322.018-.6.011-.839-.014-.367-.1-.536-.252-.5-.207.044-.445.288-.716.729a13.959,13.959,0,0,0-.837,1.651q-.434.987-.86,2.173t-.758,2.272q-.332,1.085-.535,1.964a5.615,5.615,0,0,0-.19,1.274c.006.185.049.268.126.251a3.238,3.238,0,0,0,.81-.789q.656-.755,1.343-1.718t1.242-1.837a3.068,3.068,0,0,0,.545-1.112,1.149,1.149,0,0,1-.28-.2.468.468,0,0,1-.167-.343.687.687,0,0,1,.069-.253m-4.133-1.192c.1-.205.235-.493.418-.865s.37-.736.565-1.1.372-.676.531-.949.264-.415.316-.426c-.2.255-.428.549-.69.883a9.439,9.439,0,0,0-.722,1.069,7.749,7.749,0,0,0-.563,1.194,3.9,3.9,0,0,0-.249,1.229,2.99,2.99,0,0,0,.179-.457q.14-.408.214-.583m10.878-.879a10.143,10.143,0,0,1,.7-.744,1.261,1.261,0,0,1,.514-.349c.129-.027.2.025.2.157a4.032,4.032,0,0,1-.23.686q-.231.607-.589,1.519t-.847,2.011q-.487,1.1-.977,2.138t-.986,1.881a7.73,7.73,0,0,1-.91,1.289,2.248,2.248,0,0,1-.532.391,2.044,2.044,0,0,1-.5.187,2.119,2.119,0,0,1-.7.029l-.157-.046a1.7,1.7,0,0,1-1.23-.634,3.4,3.4,0,0,1-.634-1.438,17.708,17.708,0,0,1-1.606,1.993,4.742,4.742,0,0,1-1.979,1.356,1.754,1.754,0,0,1-1.251-.132,2.543,2.543,0,0,1-.865-.792,3.423,3.423,0,0,1-.506-1.107,4.776,4.776,0,0,1-.173-1.037,13.825,13.825,0,0,1,.4-3.648,17.876,17.876,0,0,1,1.275-3.655,12.537,12.537,0,0,1,1.9-2.933A4.284,4.284,0,0,1,244,413.628a2.928,2.928,0,0,1,1.051-.024,2.487,2.487,0,0,1,1.007.382,2.888,2.888,0,0,1,.808.823,3.427,3.427,0,0,1,.492,1.288,2.962,2.962,0,0,1,1.166.489,1.263,1.263,0,0,1,.641,1.038,1.484,1.484,0,0,1-.063.412,24.056,24.056,0,0,0-1.182,3.555,12.171,12.171,0,0,0-.409,3.351,9.765,9.765,0,0,0,1.132-1.633q.53-.95.983-1.941t.908-1.9a8.9,8.9,0,0,1,.9-1.486" transform="translate(-377.801 -2446.97)" fill="#ffd100"/>
    <path id="Path_26534" data-name="Path 26534" d="M330.335,398.331a11.664,11.664,0,0,0,3.4-5.182,16.6,16.6,0,0,1-3.4,5.182m-3.558-2.588a.165.165,0,0,1,.015-.1.091.091,0,0,0,.018-.063v-.039q-.28.975-.43,1.644c-.1.447-.2.891-.286,1.334a4.814,4.814,0,0,0-.117,1.061,3.335,3.335,0,0,0,.147.864c.087.287.157.425.209.414a2.234,2.234,0,0,0-.068-.284,2.592,2.592,0,0,1-.08-.6,5.844,5.844,0,0,1,.062-1.028q.077-.554.175-1.132t.195-1.117c.066-.359.119-.675.162-.95m6.72-5.051a1.216,1.216,0,0,1,.919.641,3.143,3.143,0,0,1,.363,1.476,6.836,6.836,0,0,1-.645,2.744,17.834,17.834,0,0,1-1.8,3.249,15.6,15.6,0,0,1-2.549,2.87,6.443,6.443,0,0,1-2.867,1.565,1.49,1.49,0,0,1-1.619-.631,4.185,4.185,0,0,1-.542-2.095,14.54,14.54,0,0,1,.213-2.831q.255-1.568.634-3.022t.727-2.623c.233-.78.409-1.327.528-1.645l.072-.174a14.446,14.446,0,0,0-.965,1.4q-.739,1.153-1.655,2.82t-1.82,3.652a31.1,31.1,0,0,0-1.464,3.815.57.57,0,0,1-.49.5,1.155,1.155,0,0,1-1.008-.423,3.2,3.2,0,0,1-.6-2.142,17.928,17.928,0,0,1,.554-4.218,43.725,43.725,0,0,1,2.4-7,.724.724,0,0,1,.568-.48,1.7,1.7,0,0,1,1.059.174,4.075,4.075,0,0,1,1,.624l-.185.278c-.073.148-.213.431-.419.845s-.411.865-.616,1.346-.388.952-.553,1.412a3.111,3.111,0,0,0-.236,1.084.528.528,0,0,0,.047.23,8.071,8.071,0,0,1,.344-1.307q.283-.856.643-1.709c.239-.569.455-1.065.649-1.492s.315-.644.366-.655a1.037,1.037,0,0,1,.336.686,1.648,1.648,0,0,1-.173.613c-.12.278-.259.587-.416.925s-.314.677-.47,1.016-.284.624-.381.857c.392-.72.8-1.418,1.233-2.093a18.462,18.462,0,0,1,1.3-1.81,11.1,11.1,0,0,1,1.26-1.322,2.7,2.7,0,0,1,1.185-.65,1.85,1.85,0,0,1,1.47.264,1.456,1.456,0,0,1,.686,1.228,5.025,5.025,0,0,1-.208.721q-.212.642-.529,1.624t-.72,2.244q-.4,1.26-.749,2.528t-.614,2.479a17.006,17.006,0,0,0-.355,2.106,17.3,17.3,0,0,0,3.626-3.278,15.212,15.212,0,0,0,2.612-4.417,1.483,1.483,0,0,0,.066-.333.228.228,0,0,0-.221-.231,3.347,3.347,0,0,0-.489-.035c-.182,0-.345-.006-.488-.016a.2.2,0,0,1-.221-.213,1,1,0,0,1,.424-.707,1.811,1.811,0,0,1,.783-.465" transform="translate(-446.471 -2424.5)" fill="#ffd100"/>
    <path id="Path_26535" data-name="Path 26535" d="M573.673,333.574q.21-.861.364-1.588a5.077,5.077,0,0,0,.146-.97c0-.026,0-.042.018-.045s.019-.018.018-.045v-.041c-.026.006-.072.05-.135.131a1.162,1.162,0,0,0-.164.463q-.308,1.537-.543,2.771-.2,1.065-.372,1.938a3.654,3.654,0,0,0-.127.946q.1-.551.364-1.608t.432-1.951m-4.087-4.849a2.785,2.785,0,0,0-.54.564,10.141,10.141,0,0,0-.764,1.021,1.037,1.037,0,0,1-.131.273c-.088.155-.175.323-.262.505s-.167.349-.243.5-.1.225-.071.22q-.12.025.511-.823a23.962,23.962,0,0,0,1.347-2.063Zm1.746,4.2a5.189,5.189,0,0,0,.193-.777c.056-.311.11-.642.165-1a9.537,9.537,0,0,0,.1-1.023c.016-.329.019-.617.01-.86-.013-.377-.1-.551-.257-.517q-.318.068-.734.749a14.214,14.214,0,0,0-.858,1.693q-.447,1.014-.883,2.23t-.779,2.33q-.341,1.114-.548,2.017a5.7,5.7,0,0,0-.2,1.307c.006.19.051.275.13.258a3.372,3.372,0,0,0,.832-.81q.671-.776,1.377-1.764t1.273-1.883a3.175,3.175,0,0,0,.56-1.14,1.167,1.167,0,0,1-.287-.2.476.476,0,0,1-.172-.351.7.7,0,0,1,.071-.259m-4.24-1.223q.149-.316.429-.887c.187-.381.38-.754.581-1.125s.383-.694.546-.973.272-.425.324-.436l-.707.906a9.7,9.7,0,0,0-.741,1.1,7.822,7.822,0,0,0-.578,1.226,3.978,3.978,0,0,0-.256,1.259,3.046,3.046,0,0,0,.184-.469c.1-.28.17-.478.218-.6m11.161-.9a10.388,10.388,0,0,1,.714-.764,1.3,1.3,0,0,1,.527-.357q.2-.042.205.16a3.993,3.993,0,0,1-.235.7q-.238.624-.605,1.558t-.868,2.064q-.5,1.126-1,2.193t-1.013,1.93a7.907,7.907,0,0,1-.933,1.322,2.352,2.352,0,0,1-.546.4,2.093,2.093,0,0,1-.513.19,2.119,2.119,0,0,1-.717.031l-.163-.047a1.751,1.751,0,0,1-1.262-.65,3.5,3.5,0,0,1-.651-1.476,17.939,17.939,0,0,1-1.648,2.045,4.863,4.863,0,0,1-2.03,1.391,1.8,1.8,0,0,1-1.283-.135,2.6,2.6,0,0,1-.888-.812,3.549,3.549,0,0,1-.52-1.135,4.97,4.97,0,0,1-.177-1.065,14.246,14.246,0,0,1,.409-3.742,18.384,18.384,0,0,1,1.308-3.75,12.877,12.877,0,0,1,1.954-3.008,4.388,4.388,0,0,1,2.3-1.511,3.024,3.024,0,0,1,1.079-.025,2.588,2.588,0,0,1,1.033.393,2.94,2.94,0,0,1,.829.845,3.533,3.533,0,0,1,.506,1.321,3.032,3.032,0,0,1,1.2.5,1.3,1.3,0,0,1,.657,1.065,1.493,1.493,0,0,1-.065.422,24.706,24.706,0,0,0-1.212,3.647,12.478,12.478,0,0,0-.419,3.439,9.839,9.839,0,0,0,1.16-1.677q.546-.973,1.009-1.991t.931-1.954a9.241,9.241,0,0,1,.926-1.525" transform="translate(-655.395 -2372.75)" fill="#ffd100"/>
    <path id="Path_26536" data-name="Path 26536" d="M654.913,310.88a4.326,4.326,0,0,0-.193,1.347,2.635,2.635,0,0,0,.448,1.375,6.54,6.54,0,0,1-.183-1.228q-.045-.683-.072-1.495m-5.881,3.291a21.328,21.328,0,0,1,1.681-5.666,11.025,11.025,0,0,0-1.681,5.666m8.892-7.486a.97.97,0,0,1,.425.727,2.415,2.415,0,0,1-.263,1.057c-.185.407-.39.872-.611,1.4a14.036,14.036,0,0,0-.6,1.761,7.408,7.408,0,0,0-.223,2.192c.006.162.018.323.037.482s.044.332.077.515a.61.61,0,0,1-.535.686,1.151,1.151,0,0,1-1.344-.715,6.6,6.6,0,0,1-.535-2.724c0-.135-.009-.277-.014-.426a2.984,2.984,0,0,1,.024-.474q-1.307,2.646-2.376,5.242a21.838,21.838,0,0,0-1.429,4.877.749.749,0,0,1-.616.662,1.474,1.474,0,0,1-1.739-.57,4.716,4.716,0,0,1-.559-2.291,17.129,17.129,0,0,1,.245-3.3q.295-1.839.715-3.52t.838-2.915a8.482,8.482,0,0,1,.607-1.518.986.986,0,0,1,.7-.395,2.335,2.335,0,0,1,.739-.035,2.924,2.924,0,0,1,.726.173,1.686,1.686,0,0,1,.571.347.757.757,0,0,1,.239.542.788.788,0,0,1-.029.292q-.508,1.538-1.195,3.562a20.557,20.557,0,0,0-.943,3.917,11.669,11.669,0,0,1,.412-1.334q.31-.86.753-1.914t1-2.134a20.617,20.617,0,0,1,1.19-2.009,10.439,10.439,0,0,1,1.283-1.58,2.75,2.75,0,0,1,1.331-.793,1.34,1.34,0,0,1,1.088.217" transform="translate(-725.966 -2355.876)" fill="#ffd100"/>
    <path id="Path_26537" data-name="Path 26537" d="M714.646,301.2q.076-.138.263-.464t.415-.722q.226-.393.453-.77a6.373,6.373,0,0,1,.418-.62,7.485,7.485,0,0,0-.806.948,4.756,4.756,0,0,0-.53.847,1.709,1.709,0,0,0-.213.78m-.9.68c.048-.146.1-.286.145-.419s.084-.227.109-.288a6.406,6.406,0,0,1,.464-1.018q.355-.666.734-1.3t.7-1.109a2.766,2.766,0,0,1,.362-.485l-.347.361a11.434,11.434,0,0,0-1.745,2.678,5.22,5.22,0,0,0-.607,2.069c.026-.006.052-.038.077-.1l.107-.39m8.8-1.993a4.334,4.334,0,0,1,1.241-1.122c.079-.016.12.03.124.137a1.289,1.289,0,0,1-.123.516c-.086.209-.19.476-.311.8l-.444.994q-.554,1.3-1.207,2.645a19.925,19.925,0,0,1-1.432,2.49,10.382,10.382,0,0,1-1.729,1.979,4.656,4.656,0,0,1-2.14,1.088,4.516,4.516,0,0,1-1.857.048,3.745,3.745,0,0,1-1.441-.612,3.069,3.069,0,0,1-.957-1.1,3.219,3.219,0,0,1-.369-1.391,10.6,10.6,0,0,1,.506-3.273,18.778,18.778,0,0,1,1.51-3.669,14.568,14.568,0,0,1,2.21-3.1,5.1,5.1,0,0,1,2.6-1.615,2.437,2.437,0,0,1,1.769.3,1.628,1.628,0,0,1,.889,1.424,4.1,4.1,0,0,1-.2,1.044,9.746,9.746,0,0,1-.6,1.578,8.642,8.642,0,0,1-.907,1.5,1.918,1.918,0,0,1-1.071.8c-.317.067-.482-.048-.492-.346a.855.855,0,0,1,.107-.39,17.251,17.251,0,0,0,.66-1.671,3.732,3.732,0,0,0,.24-1.175c-.011-.324-.124-.464-.335-.419q-.358.075-.833.748a14.6,14.6,0,0,0-.964,1.594q-.488.922-.893,1.885a11.794,11.794,0,0,0-.582,1.656,7.012,7.012,0,0,0-.289,2.061,2.325,2.325,0,0,0,.45,1.437,1.261,1.261,0,0,0,1.33.31,3.574,3.574,0,0,0,1.937-1.209,12.967,12.967,0,0,0,1.542-2.165q.678-1.186,1.2-2.276a7.365,7.365,0,0,1,.868-1.491" transform="translate(-780.61 -2345.844)" fill="#ffd100"/>
    <path id="Path_26538" data-name="Path 26538" d="M785.175,276.735a1.914,1.914,0,0,1,.631.294,3.1,3.1,0,0,1,.618.544,5.475,5.475,0,0,1,.482.632,1.2,1.2,0,0,1,.221.607c.027.049.056.1.085.145s.042.059.041.031a1.9,1.9,0,0,0-.183-.675,3.561,3.561,0,0,0-.446-.742,2.546,2.546,0,0,0-.66-.595,1.442,1.442,0,0,0-.789-.241m-.954,9.27a10.227,10.227,0,0,0,.477-1.2q.254-.747.463-1.609t.339-1.747a9.08,9.08,0,0,0,.1-1.615,3.037,3.037,0,0,0-.415-1.607,1.107,1.107,0,0,0-1.253-.366,2.157,2.157,0,0,0-1.059.573,3.752,3.752,0,0,0-.782,1.106,6.029,6.029,0,0,0-.469,1.427,6.624,6.624,0,0,0-.126,1.538,5.961,5.961,0,0,0,.185,1.308,3.355,3.355,0,0,0,.5,1.1,2.685,2.685,0,0,0,.846.779,2.429,2.429,0,0,0,1.19.319m-2.9,2.781a1.184,1.184,0,0,0,.359-.035,3.466,3.466,0,0,0,1.68-1.093,4.283,4.283,0,0,1-1.708-.822,6.005,6.005,0,0,1-1.373-1.545,6.188,6.188,0,0,0-.183,1.592,2.524,2.524,0,0,0,.344,1.275,1.354,1.354,0,0,0,.881.629m-3.023-5.321a.488.488,0,0,1,.014-.145.511.511,0,0,0,.015-.146.2.2,0,0,1,.035-.13c-.053.011-.115.12-.188.326a6.38,6.38,0,0,0-.212.78c-.069.314-.131.669-.183,1.06a6.876,6.876,0,0,0-.059,1.156,7.617,7.617,0,0,0,.144,1.276,2.892,2.892,0,0,0,.374.983,6.192,6.192,0,0,1-.307-1.936,11.93,11.93,0,0,1,.075-1.834,6.368,6.368,0,0,1,.292-1.389m11.744-2.5q.385-.448.714-.764a1.288,1.288,0,0,1,.527-.357c.132-.029.2.013.2.121a3.115,3.115,0,0,1-.287.918,25.509,25.509,0,0,1-2.2,3.96,6.258,6.258,0,0,1-2.777,2.286,10.7,10.7,0,0,1-2.071,2.523,5.522,5.522,0,0,1-2.513,1.31,3.908,3.908,0,0,1-2-.024,3.16,3.16,0,0,1-1.41-.885,4.124,4.124,0,0,1-.851-1.473,6.229,6.229,0,0,1-.323-1.79c-.006-.189.008-.545.042-1.071a13.713,13.713,0,0,1,.2-1.595,9.8,9.8,0,0,1,.388-1.472c.158-.442.343-.685.555-.731a1.824,1.824,0,0,1,.659,0,1.8,1.8,0,0,1,.711.278,1.112,1.112,0,0,1-.052-.3c0-.094-.006-.182-.009-.263a5.434,5.434,0,0,1,.291-1.941,6.389,6.389,0,0,1,.918-1.769,6.483,6.483,0,0,1,1.37-1.372,4.267,4.267,0,0,1,1.652-.76,3.423,3.423,0,0,1,1.942.077,3.3,3.3,0,0,1,1.372.955,4.279,4.279,0,0,1,.812,1.522,6.785,6.785,0,0,1,.3,1.773,10.739,10.739,0,0,1-.2,2.371,13.676,13.676,0,0,1-.714,2.438,4.848,4.848,0,0,0,.69-.821q.3-.451.606-.965t.643-1.055q.342-.542.8-1.131" transform="translate(-836.004 -2329.747)" fill="#ffd100"/>
    <path id="Path_26539" data-name="Path 26539" d="M428.385,297.352a6.928,6.928,0,0,1-.45-2.581,58.424,58.424,0,0,1,1.205-11.247,50.112,50.112,0,0,0-1.494,10.98,4.956,4.956,0,0,0,.739,2.848m-.98-18.906a3.006,3.006,0,0,0,.206-.42,1.1,1.1,0,0,1,.13-.263q-.2.043-.686.944t-1.138,2.31q-.651,1.407-1.33,3.148t-1.218,3.452q-.544,1.619-.833,2.478t-.454,1.294c-.111.289-.177.476-.2.559a.729.729,0,0,0-.033.172,2.37,2.37,0,0,0,.331-.822q.759-2.276,1.414-4.129t1.3-3.4q.644-1.545,1.26-2.851t1.253-2.473m-6.378-.664c.122-.277.222-.495.3-.649a2.677,2.677,0,0,1,.187-.346c.05-.1.06-.169.033-.194a9.391,9.391,0,0,0-.6,1.043q-.563,1.036-1.25,2.543t-1.326,3.217a14.836,14.836,0,0,0-.832,3.066q.911-2.45,1.792-4.749a42.18,42.18,0,0,1,1.7-3.931m-5.066,11.784a8.285,8.285,0,0,0,.442-1.127q.4-1.117.91-2.542t.982-2.792q.471-1.367.694-1.839.184-.461.569-1.458t.81-1.981q.426-.98.819-1.747c.263-.509.472-.782.631-.815q-.238.051-.761,1.1t-1.188,2.6q-.665,1.552-1.343,3.339t-1.261,3.368q-.585,1.58-.946,2.667a7.989,7.989,0,0,0-.357,1.226m-3.819,5.087a145.14,145.14,0,0,1,3.548-17.475q-1.682,5.667-2.57,10.011a44.742,44.742,0,0,0-.978,7.464m-2.674-8.753a4.349,4.349,0,0,1-.2-1.5,11.9,11.9,0,0,1,.736-3.482,10.56,10.56,0,0,0-1.017,3.57,1.785,1.785,0,0,0,.477,1.409m19.937-1.68q-.474,2.5-.835,5.272a31.5,31.5,0,0,0-.28,5.156c.012.342.038.7.077,1.064a5.872,5.872,0,0,0,.2,1.015,1.876,1.876,0,0,0,.4.742c.181.2.678.2.892.244a1,1,0,0,1,.384.13.43.43,0,0,1,.193.358.932.932,0,0,1-.474.735,5.37,5.37,0,0,1-1.575.671,3.441,3.441,0,0,1-1.238.029,2.211,2.211,0,0,1-1.18-.594,3.68,3.68,0,0,1-.89-1.432,7.761,7.761,0,0,1-.4-2.427,35.124,35.124,0,0,1,.087-3.8,40.526,40.526,0,0,1,.516-4.1q.368-2.073.894-4.159a34.331,34.331,0,0,1,1.26-3.978l-.413.746q-.717,1.278-1.437,2.935t-1.379,3.44q-.656,1.783-1.272,3.653t-1.155,3.532l-.109.306-.238.05A1.539,1.539,0,0,1,419.7,293a5.967,5.967,0,0,1-.5-2.383,21.9,21.9,0,0,1,.094-3.025q.149-1.442.422-2.791t.628-2.646q.354-1.3.707-2.64-.961,2.272-1.87,4.812t-1.8,5.173c-.591,1.754-1.256,3.47-1.715,5.226-.551,2.106-.857,4.077-1.3,6.158a4.533,4.533,0,0,1-.294,1.009.453.453,0,0,1-.312.208,1.207,1.207,0,0,1-1.1-.331,3.723,3.723,0,0,1-.673-.962,9.2,9.2,0,0,1-.478-1.633,12.9,12.9,0,0,1-.19-2.057,26.43,26.43,0,0,1,.14-3.681q.229-1.974.616-4.053t.8-4q.412-1.919.728-3.207.352-1.344.629-2.577t.6-2.381q.319-1.149.717-2.337a22.042,22.042,0,0,1,.994-2.442,13.876,13.876,0,0,0-2.425,2.652,28.59,28.59,0,0,0-2.137,3.461,22.877,22.877,0,0,0-1.515,3.538,8.544,8.544,0,0,0-.521,2.835,1.8,1.8,0,0,0,.4,1.276.431.431,0,0,1-.089.3.511.511,0,0,1-.412.17,5.643,5.643,0,0,1-1.635-.368,3.81,3.81,0,0,1-1.166-.785,2.1,2.1,0,0,1-.572-1.5,8.165,8.165,0,0,1,.974-3.565,26.537,26.537,0,0,1,2.588-4.308,23.128,23.128,0,0,1,3.445-3.785,8.151,8.151,0,0,1,3.508-1.991,5.291,5.291,0,0,1,.857-.087,7.257,7.257,0,0,1,.883-.019,3.024,3.024,0,0,1,.749.125q.362.111.371.344a5.453,5.453,0,0,1-.176.671c-.072.22-.178.484-.312.795s-.322.7-.559,1.175-.434,1.064-.76,1.827l.45-.846a29.573,29.573,0,0,0,1.364-2.732,3.581,3.581,0,0,1,.314-.724,1.714,1.714,0,0,1,.127.185.956.956,0,0,1,.178.5,2.092,2.092,0,0,1-.083.487q-.089.349-.233.778c-.1.288-.159.468-.253.77s-.35.951-.449,1.16c-.342.828-.531,1.314-.8,2.122s-.528,1.662-.791,2.563-.573,1.848-.8,2.871a30.417,30.417,0,0,0-.515,3.348c.2-.445.263-.7.489-1.285.1-.258.279-.693.284-.7.2-.417.271-.629.587-1.424s.667-1.669,1.048-2.6.781-1.881,1.2-2.862.834-1.876,1.246-2.683a14.856,14.856,0,0,1,1.208-2.019,2.1,2.1,0,0,1,1.068-.908,1.316,1.316,0,0,1,.743.1,1.88,1.88,0,0,1,.571.31,2.7,2.7,0,0,1,.684.7,1.681,1.681,0,0,1,.29.878,1.1,1.1,0,0,1-.063.483q-.4,1.259-.716,2.384t-.6,2.218q-.283,1.093-.561,2.256a16.962,16.962,0,0,0-.366,2.654q1.1-2.772,2.24-5.08t2.459-4.562a.493.493,0,0,1,.351-.263,1.65,1.65,0,0,1,.922.086,3.449,3.449,0,0,1,.9.492,2.823,2.823,0,0,1,.686.746,1.706,1.706,0,0,1,.288.854,1.881,1.881,0,0,1-.065.391A36.905,36.905,0,0,0,430.257,280q-.411,1.919-.851,4.221" transform="translate(-520.9 -2325.116)" fill="#ffd100"/>
    <path id="Path_26540" data-name="Path 26540" d="M632.758,545.4c-.007.011-.011.019-.009.024s.031-.029.065-.079a2.186,2.186,0,0,0,.173-.3c.053-.113.1-.226.145-.342a3.509,3.509,0,0,0,.109-.337c.031-.11.054-.2.074-.282-.019.028-.03.042-.033.04s-.01.016-.022.053a.036.036,0,0,0-.009.027.024.024,0,0,1,0,.019l-.005.009c-.046.143-.087.27-.127.382s-.075.211-.11.3-.07.164-.1.232a2.113,2.113,0,0,1-.121.206.085.085,0,0,0-.02.049m.611-1.035a.058.058,0,0,0,0-.037,1.7,1.7,0,0,1-.06.194q-.046.124-.107.274c-.042.1-.087.2-.135.305s-.1.2-.147.282a1.754,1.754,0,0,1-.142.21.251.251,0,0,1-.125.095.861.861,0,0,0,.256-.247,2.363,2.363,0,0,0,.2-.345,2.879,2.879,0,0,0,.151-.375q.062-.191.109-.356m-.906-2.01c.008-.012.011-.02.009-.024.014,0,0,.027-.052.088s-.1.137-.165.226a2.331,2.331,0,0,0-.161.277.4.4,0,0,0-.052.245.434.434,0,0,1,.049-.11c.037-.074.08-.159.13-.256s.1-.188.144-.274.079-.143.1-.172m-.542.939a2.273,2.273,0,0,1,.1-.284q.061-.14.126-.273t.135-.247c.046-.076.088-.142.127-.2a.037.037,0,0,0-.026.019.893.893,0,0,0-.1.11.73.73,0,0,0-.077.126.86.86,0,0,0-.062.168c-.014.028-.033.074-.058.138s-.047.13-.071.2l-.064.18c-.019.053-.031.084-.033.089a.007.007,0,0,0,0-.009Zm-.261.2c0-.009-.006,0-.012.014a.514.514,0,0,0-.017.1c-.024.149-.045.286-.062.411s-.032.235-.045.329-.023.17-.029.225-.009.086-.008.091.018.026.042.021.02-.022.017-.059,0-.105,0-.2a1.252,1.252,0,0,1,.023-.162c.016-.082.032-.173.049-.273s.031-.2.039-.29a.84.84,0,0,0,0-.205m-.321.606c0-.051.011-.107.018-.171s.016-.133.025-.21c.006-.046.014-.1.024-.171s.023-.137.035-.2.021-.122.028-.177a.459.459,0,0,0,0-.1l-.03.11c-.049.4-.094.721-.132.971a1.966,1.966,0,0,0-.041.469.026.026,0,0,0,.034.023c.009,0,.018-.057.023-.165s.01-.233.01-.377m-.936.608a.561.561,0,0,1-.181-.33,1.467,1.467,0,0,1,.044-.633,1.3,1.3,0,0,0-.107.646.419.419,0,0,0,.245.317m3.449-2.483a1.013,1.013,0,0,1,.064.211,2.91,2.91,0,0,1,.041.6,5.1,5.1,0,0,1-.079.759,5.613,5.613,0,0,1-.213.823,4.152,4.152,0,0,1-.368.8,3.423,3.423,0,0,1-.537.686,2.2,2.2,0,0,1-.724.476.2.2,0,0,1-.067.029l-.07.014a.49.49,0,0,1-.256-.014.566.566,0,0,1-.2-.117.63.63,0,0,1-.139-.185.873.873,0,0,1-.075-.216.431.431,0,0,1,.107-.389,1.258,1.258,0,0,1,.37-.278,2.816,2.816,0,0,1,.435-.174q.215-.065.3-.081l.035-.007c.071-.014.112.011.124.072a.1.1,0,0,1-.009.069.1.1,0,0,1-.056.049,1.847,1.847,0,0,0-.479.227,2.191,2.191,0,0,0-.323.264,1.183,1.183,0,0,0-.182.229.343.343,0,0,0-.054.122c0,.019.03.024.077.015a.877.877,0,0,0,.148-.047,1.34,1.34,0,0,0,.222-.122,1.733,1.733,0,0,0,.485-.44,3.318,3.318,0,0,0,.364-.607,4.4,4.4,0,0,0,.257-.694,5.611,5.611,0,0,0,.151-.707,4.907,4.907,0,0,0,.053-.646,2.518,2.518,0,0,0-.038-.51.587.587,0,0,0-.124-.3.2.2,0,0,0-.188-.064.5.5,0,0,0-.255.176,2.073,2.073,0,0,0-.264.4,3.957,3.957,0,0,0-.237.548,5.3,5.3,0,0,0-.179.641,4.533,4.533,0,0,0-.089.666,2.771,2.771,0,0,0,.031.626.113.113,0,0,1,.016.042.154.154,0,0,1,0,.067c-.007.021-.028.035-.066.043a.27.27,0,0,1-.036,0l-.036,0a.113.113,0,0,1-.052,0,.078.078,0,0,1-.024-.01.012.012,0,0,0-.012.017.587.587,0,0,1-.128-.016.043.043,0,0,0-.03-.005.013.013,0,0,0-.009.009c0,.005-.006.008-.016.011a.287.287,0,0,1-.151,0,.247.247,0,0,1-.1-.064.272.272,0,0,1-.055-.1c-.012-.038-.021-.074-.028-.107a2.476,2.476,0,0,1-.022-.617q.026-.374.086-.76t.134-.737c.05-.233.093-.417.13-.553a1.3,1.3,0,0,0-.356.393,3.115,3.115,0,0,0-.284.584,3.389,3.389,0,0,0-.17.632,1.508,1.508,0,0,0-.012.523.383.383,0,0,0,.1.208.23.23,0,0,1,.074.1.216.216,0,0,0-.016.029.025.025,0,0,1-.019.015.039.039,0,0,1-.015,0,.031.031,0,0,0-.015,0c-.009,0-.014.005-.012.009s0,.009-.013.011a.132.132,0,0,1-.081-.006.015.015,0,0,0-.01.006.014.014,0,0,1-.01.006.413.413,0,0,1-.2-.009.582.582,0,0,1-.174-.085.512.512,0,0,1-.129-.135.45.45,0,0,1-.068-.158,1.091,1.091,0,0,1,.012-.408,2.755,2.755,0,0,1,.146-.49,3.55,3.55,0,0,1,.25-.5,3.9,3.9,0,0,1,.321-.457,2.157,2.157,0,0,1,.357-.349.874.874,0,0,1,.361-.175.281.281,0,0,1,.117,0,.4.4,0,0,0,.118.006.522.522,0,0,0,.052,0c.039,0,.06.013.065.032a.708.708,0,0,1-.029.229.3.3,0,0,0-.027.087c-.011.047-.023.095-.037.145s-.03.1-.045.146a.242.242,0,0,1-.042.09c-.007.012,0-.017.027-.087s.054-.148.086-.236.061-.17.087-.248.035-.114.026-.112.011.012.03.024a.153.153,0,0,1,.054.071.855.855,0,0,1-.023.387c-.037.144-.07.283-.1.417a3.65,3.65,0,0,1,.536-.911,1.231,1.231,0,0,1,.641-.449.183.183,0,0,1,.058,0,.537.537,0,0,1,.2.058,1.1,1.1,0,0,1,.209.134,1.4,1.4,0,0,1,.182.177.783.783,0,0,1,.119.185" transform="translate(-711.041 -2555.896)" fill="#ffd100"/>
    <path id="Path_26541" data-name="Path 26541" d="M657.826,545.3a.036.036,0,0,1,0,.015.041.041,0,0,0,0,.023c.023-.005.037-.026.039-.064a.21.21,0,0,1,0-.049s.013-.019.026-.057.024-.077.034-.122.02-.085.028-.124a.274.274,0,0,0,.008-.072c-.01,0-.022.025-.038.067s-.033.092-.049.147-.03.107-.04.153a.3.3,0,0,0-.013.084m.308.305a.077.077,0,0,1-.052.032.225.225,0,0,1-.092,0,.507.507,0,0,1-.11-.034.365.365,0,0,1-.092-.061.147.147,0,0,1-.049-.079.807.807,0,0,1,0-.164,1.894,1.894,0,0,1,.036-.249,1.2,1.2,0,0,1,.069-.229c.029-.067.059-.1.092-.111a.327.327,0,0,1,.13.009.894.894,0,0,1,.16.05.765.765,0,0,1,.138.074.142.142,0,0,1,.067.076.029.029,0,0,1,0,.022,2.308,2.308,0,0,0-.145.293c-.038.095-.089.219-.151.375m-.365,2.167a1.443,1.443,0,0,1,.013-.27c.016-.127.032-.254.051-.382s.037-.24.056-.338.029-.144.035-.14c-.029.006-.056.057-.081.153s-.047.21-.067.337-.032.255-.039.383a1.247,1.247,0,0,0,.008.285c.008.047.016.071.02.071s.006-.034,0-.1m.75-1.008.11-.129a.177.177,0,0,1,.086-.065.033.033,0,0,1,.043.029.722.722,0,0,1-.026.168c-.022.094-.051.2-.091.331s-.086.261-.141.406a4.251,4.251,0,0,1-.181.407,1.883,1.883,0,0,1-.206.323.385.385,0,0,1-.212.153.368.368,0,0,1-.377-.114.822.822,0,0,1-.181-.388,2.717,2.717,0,0,1,0-.882q.073-.516.2-1.068c.008-.041.043-.068.11-.081a.413.413,0,0,1,.139,0,.573.573,0,0,1,.143.043.414.414,0,0,1,.124.088.246.246,0,0,1,.069.127.293.293,0,0,1-.009.143,6.855,6.855,0,0,0-.233.986,2.349,2.349,0,0,0-.014.8,1.051,1.051,0,0,0,.205-.281c.059-.114.113-.231.162-.355s.1-.243.14-.358a1.515,1.515,0,0,1,.139-.284" transform="translate(-734.19 -2558.469)" fill="#ffd100"/>
    <path id="Path_26542" data-name="Path 26542" d="M667.726,550.68c-.005,0-.008.016-.009.046s0,.067,0,.112,0,.091,0,.137a.809.809,0,0,0,.014.12c0,.019.007.038.012.057a.278.278,0,0,0,.021.064.4.4,0,0,0,.023.077s0-.027,0-.078-.013-.109-.021-.175-.017-.127-.024-.189a.473.473,0,0,1-.005-.129l-.009-.042Zm-.029.714a.433.433,0,0,0-.021-.051.463.463,0,0,1-.033-.109,1.2,1.2,0,0,1-.021-.208c0-.086,0-.175,0-.264s0-.21.006-.329c-.015.118-.024.217-.03.3s-.01.161-.012.241a.815.815,0,0,0,.01.192c0,.005,0,.02.013.046s.018.052.028.08a.6.6,0,0,0,.034.074c.012.022.022.032.032.031m.919-1.382a.87.87,0,0,1,.1-.133.206.206,0,0,1,.09-.064c.019,0,.031.007.036.031a.746.746,0,0,1-.022.156c-.018.091-.045.2-.083.328s-.084.265-.139.415a3.535,3.535,0,0,1-.182.417,1.659,1.659,0,0,1-.225.334.488.488,0,0,1-.259.169.349.349,0,0,1-.284-.079.58.58,0,0,1-.2-.359,1.842,1.842,0,0,1-.03-.452c.007-.168.02-.327.041-.478s.042-.284.067-.4.041-.2.047-.238a1.872,1.872,0,0,0-.138.256q-.1.212-.225.513c-.08.2-.158.419-.232.655a4.522,4.522,0,0,0-.159.685.084.084,0,0,1-.077.09.259.259,0,0,1-.2-.077.67.67,0,0,1-.179-.388,3.1,3.1,0,0,1-.025-.763,6.742,6.742,0,0,1,.238-1.265.106.106,0,0,1,.092-.086.353.353,0,0,1,.2.032.976.976,0,0,1,.208.113l-.026.05-.053.153c-.026.076-.052.156-.076.243s-.044.173-.061.255a.515.515,0,0,0-.011.2.107.107,0,0,0,.016.041,1.254,1.254,0,0,1,.029-.237c.019-.1.042-.207.068-.309s.052-.192.077-.268a.509.509,0,0,1,.046-.118.238.238,0,0,1,.084.125.294.294,0,0,1-.013.115c-.014.052-.031.108-.05.166s-.041.12-.062.181-.037.114-.049.155c.057-.13.114-.257.175-.379a2.741,2.741,0,0,1,.186-.326,1.393,1.393,0,0,1,.2-.238.444.444,0,0,1,.208-.117.4.4,0,0,1,.285.049.327.327,0,0,1,.167.224,1.007,1.007,0,0,1-.031.308l-.1.529q-.058.291-.1.583a1.679,1.679,0,0,0-.006.486,1.021,1.021,0,0,0,.2-.288c.057-.117.11-.235.158-.358s.095-.239.137-.352a1.448,1.448,0,0,1,.136-.282" transform="translate(-741.862 -2562.213)" fill="#ffd100"/>
    <path id="Path_26543" data-name="Path 26543" d="M690.374,536.774q-.07.238-.132.437c-.042.132-.083.259-.126.381a4.234,4.234,0,0,0,.288-.924Zm.2-.408c-.092.342-.187.656-.286.94s-.2.547-.314.787a5.235,5.235,0,0,0,.6-1.727m-1.377,2.8a2.9,2.9,0,0,1,.842-.386,1.142,1.142,0,0,0-.119.024l-.112.031a1.179,1.179,0,0,0-.611.331m-.206-3.091a1.593,1.593,0,0,0,.046.336c.049.183.135.284.259.3a.629.629,0,0,1-.26-.414c-.009-.033-.019-.068-.029-.106a.45.45,0,0,1-.017-.117m1.6,2.163a1.506,1.506,0,0,1,.124.182.856.856,0,0,1,.094.213c.013.047.008.074-.015.08a.605.605,0,0,1-.177.01.893.893,0,0,0-.266.034,3.753,3.753,0,0,0-.542.2c-.2.089-.4.187-.591.294l-.019.012-.027-.015a.728.728,0,0,1-.214-.162.582.582,0,0,1-.132-.244.421.421,0,0,1-.016-.087l.032-.077a.579.579,0,0,0,.253-.177,3.281,3.281,0,0,0,.281-.356,4.691,4.691,0,0,0,.278-.46c.089-.168.172-.335.245-.5a5.014,5.014,0,0,0,.185-.473,2.41,2.41,0,0,0,.1-.382,1.151,1.151,0,0,0-.013-.436.316.316,0,0,0-.133-.206.268.268,0,0,0-.2-.021.465.465,0,0,0-.163.085.555.555,0,0,0-.134.153.633.633,0,0,0-.077.2.455.455,0,0,0,.008.221.575.575,0,0,0,.054.133.521.521,0,0,0,.106.133l.07.065a.615.615,0,0,1-.244.141.331.331,0,0,1-.3-.052.536.536,0,0,1-.186-.3,1.161,1.161,0,0,1-.029-.453,1.325,1.325,0,0,1,.127-.415,1.087,1.087,0,0,1,.245-.323.8.8,0,0,1,.331-.183.808.808,0,0,1,.374-.021.671.671,0,0,1,.283.127.835.835,0,0,1,.2.224.986.986,0,0,1,.115.263,1.878,1.878,0,0,1,.055.672,3.593,3.593,0,0,1-.131.686,5.122,5.122,0,0,1-.241.651q-.143.314-.269.568a.408.408,0,0,0,.055-.019c.018-.008.036-.013.054-.019a1.049,1.049,0,0,1,.229-.035.4.4,0,0,1,.206.047l.021.024Z" transform="translate(-760.972 -2550.248)" fill="#ffd100"/>
    <path id="Path_26544" data-name="Path 26544" d="M704.713,534.234a2.318,2.318,0,0,0,.189-.613,2.44,2.44,0,0,0-.02-.76,3.143,3.143,0,0,1-.02.734,4.689,4.689,0,0,1-.15.64m-.441.156a.272.272,0,0,0,.15,0,.485.485,0,0,0,.271-.368,2.909,2.909,0,0,0,.1-.717,5.527,5.527,0,0,0-.046-.848,3.919,3.919,0,0,0-.164-.762,1.211,1.211,0,0,0-.212-.417.237.237,0,0,0-.271-.074.374.374,0,0,0-.211.2,1.4,1.4,0,0,0-.127.381,2.9,2.9,0,0,0-.052.5,5.5,5.5,0,0,0,.017.561q.023.284.072.553a3.253,3.253,0,0,0,.121.483,1.451,1.451,0,0,0,.162.351.367.367,0,0,0,.191.163m-1-1.859a2.812,2.812,0,0,1,.374-1.419,1.822,1.822,0,0,0-.374,1.419m.841-1.722a.722.722,0,0,1,.612.256,2.012,2.012,0,0,1,.407.726,3.768,3.768,0,0,1,.177.888,3.949,3.949,0,0,1-.027.914,2.317,2.317,0,0,1-.245.764.842.842,0,0,1-.47.427.652.652,0,0,1-.4.015.878.878,0,0,1-.349-.2,1.5,1.5,0,0,1-.286-.369,2.676,2.676,0,0,1-.217-.487,3.839,3.839,0,0,1-.177-.865,3.574,3.574,0,0,1,.025-.877,2.121,2.121,0,0,1,.245-.729.88.88,0,0,1,.493-.419.75.75,0,0,1,.1-.027.893.893,0,0,1,.109-.014" transform="translate(-773.141 -2546.655)" fill="#ffd100"/>
    <path id="Path_26545" data-name="Path 26545" d="M720.1,528.273a2.291,2.291,0,0,0,.132-.629,2.417,2.417,0,0,0-.09-.754,3.114,3.114,0,0,1,.049.733,4.579,4.579,0,0,1-.091.65m-.425.195a.276.276,0,0,0,.15-.017.49.49,0,0,0,.236-.392,2.934,2.934,0,0,0,.03-.723,5.629,5.629,0,0,0-.124-.84,3.959,3.959,0,0,0-.233-.742,1.22,1.22,0,0,0-.25-.4.239.239,0,0,0-.277-.049.383.383,0,0,0-.191.217,1.384,1.384,0,0,0-.09.391,2.919,2.919,0,0,0-.005.5,5.263,5.263,0,0,0,.069.556,5.564,5.564,0,0,0,.122.545,3.588,3.588,0,0,0,.165.47,1.492,1.492,0,0,0,.195.334.363.363,0,0,0,.2.143M718.5,526.71a2.816,2.816,0,0,1,.242-1.448,1.822,1.822,0,0,0-.242,1.448m.679-1.792a.723.723,0,0,1,.634.2,2.012,2.012,0,0,1,.472.686,3.777,3.777,0,0,1,.258.868,3.962,3.962,0,0,1,.057.913,2.341,2.341,0,0,1-.174.782.839.839,0,0,1-.429.469.644.644,0,0,1-.4.052.873.873,0,0,1-.366-.17,1.493,1.493,0,0,1-.32-.341,2.679,2.679,0,0,1-.26-.464,3.751,3.751,0,0,1-.256-.845,3.661,3.661,0,0,1-.057-.877,2.159,2.159,0,0,1,.177-.748.881.881,0,0,1,.452-.463.77.77,0,0,1,.1-.036.854.854,0,0,1,.107-.024" transform="translate(-786.081 -2541.639)" fill="#ffd100"/>
    <path id="Path_26546" data-name="Path 26546" d="M733.141,520.587a1.339,1.339,0,0,0,.313-.86,2.091,2.091,0,0,1-.313.86m-.193.169a1.935,1.935,0,0,0,.472-1.32,2.753,2.753,0,0,1-.472,1.32m-.451-3.4a1.048,1.048,0,0,1,.652-.062.505.505,0,0,0-.316-.067.982.982,0,0,0-.336.129m.717-.048a.373.373,0,0,1,.053.078.437.437,0,0,1,.042.116,1.2,1.2,0,0,1,.027.157.685.685,0,0,1,0,.147.107.107,0,0,1-.044.089c-.022.012-.047-.01-.079-.065a.144.144,0,0,0-.166-.074.748.748,0,0,0-.225.087,1.566,1.566,0,0,0-.142.09.681.681,0,0,0-.105.085l.129.834a2.716,2.716,0,0,1,.253-.107.864.864,0,0,1,.293-.053.635.635,0,0,1,.285.064.556.556,0,0,1,.235.236,1.074,1.074,0,0,1,.129.5,2.807,2.807,0,0,1-.044.588,3.273,3.273,0,0,1-.152.554,2.586,2.586,0,0,1-.182.4,1.609,1.609,0,0,1-.161.205.808.808,0,0,1-.195.158.5.5,0,0,1-.378.056.669.669,0,0,1-.375-.358l.046-.094a.235.235,0,0,0,.169-.037.93.93,0,0,0,.281-.312,3.688,3.688,0,0,0,.269-.515,2.873,2.873,0,0,0,.172-.532.543.543,0,0,0-.007-.361c-.026-.047-.08-.056-.16-.027a1.525,1.525,0,0,0-.232.108c-.046.026-.084.05-.117.071l-.06.039-.029.008a1.672,1.672,0,0,1-.254-.024.471.471,0,0,1-.236-.109l-.021-.022a1.021,1.021,0,0,1-.072-.248c-.026-.129-.052-.267-.075-.415s-.045-.29-.064-.422-.031-.221-.04-.266c0-.026-.008-.05-.011-.07s-.007-.044-.01-.07A.175.175,0,0,1,732,517.7a.99.99,0,0,1,.113-.136,2.21,2.21,0,0,1,.168-.155,1.464,1.464,0,0,1,.208-.144.923.923,0,0,1,.386-.123.381.381,0,0,1,.341.163" transform="translate(-797.666 -2535.037)" fill="#ffd100"/>
    <path id="Path_26547" data-name="Path 26547" d="M451.182,455.628a12.9,12.9,0,0,1-1.494,2.607l-.186.224c.119-.169.154-.219.3-.454.18-.3.372-.648.584-1.043s.419-.808.621-1.229a7.426,7.426,0,0,0,.4-.966c.022-.057.055-.148.1-.275s.088-.249.133-.388c.046-.167.1-.287.19-.594a8.537,8.537,0,0,1-.646,2.118m-36.645,16.982c-.276.132-.581.276-.916.433s-.5.235-.818.395-.556.293-.956.529a5.023,5.023,0,0,1,1.1-.707c.5-.261.568-.3.959-.47a7.179,7.179,0,0,1,1.223-.453c-.117.052-.313.143-.589.273m-24.355,20.513a43.335,43.335,0,0,1,4.359-6.242c1.922-2.247,4.4-4.561,7.218-7.321a94.889,94.889,0,0,0-11.577,13.563m62.211-43.837c-.291-2.129-2.543.246-2.187.056.234-.125.291.294.327.812.366,5.261-2.853,9.8-7.068,12.6-4.839,3.21-10.666,4.167-16.234,5.24a61.644,61.644,0,0,0-15.261,4.727,55.206,55.206,0,0,0-12.468,8.241,57.521,57.521,0,0,0-10.845,13.015c-1.345,2.17,4.095.971,5.725-1.315,5.848-8.2,10.026-14.343,18.647-18.853a50.573,50.573,0,0,1,14.744-4.958c5.56-1.068,12.558-2.189,17.328-5.465,4.514-3.1,8.14-7.889,7.291-14.1" transform="translate(-505.581 -2476.583)" fill="#ffd100"/>
  </g>
</svg>
