<svg xmlns="http://www.w3.org/2000/svg" width="39.995" height="42.798" viewBox="0 0 39.995 42.798">
  <g id="_016---Gruyere" data-name="016---Gruyere" transform="translate(0.505 0.5)">
    <path id="Shape" d="M10.072,41.8c1.9,0-4.495-.039,14.984-.039,8.511,0,13.47-4.166,13.676-4.344a.7.7,0,0,0,.2-.766L25.709.459A.7.7,0,0,0,25.056,0H13.92a.7.7,0,0,0-.654.457L.043,36.648a.7.7,0,0,0,.049.584c2.344,4.1,7.692,4.566,9.98,4.566Zm1-1.431c-.066.008-6.049.505-9.015-2.784h9.529a19.375,19.375,0,0,0,5.278,2.784ZM37.45,36.643c-6.809,4.925-17.92,4.979-24.789,0L25.055,2.724ZM14.407,1.392H24.06L11.352,36.172c-.011.07.377.019-9.661.019Z" transform="translate(0 0)" fill="#fff" stroke="#fff" stroke-width="1"/>
    <path id="Shape-2" data-name="Shape" d="M6.438,44.782a.7.7,0,0,0,.9-.388l4.176-10.44a.7.7,0,0,0-1.293-.518L6.049,43.877a.7.7,0,0,0,.388.905Z" transform="translate(-1.824 -10.032)" fill="#fff" stroke="#fff" stroke-width="1"/>
  </g>
</svg>
