<svg xmlns="http://www.w3.org/2000/svg" width="32.914" height="32.914" viewBox="0 0 32.914 32.914">
  <path id="Path_26054" data-name="Path 26054" d="M5624.788,40.356a5.927,5.927,0,1,0,5.926,5.927,5.928,5.928,0,0,0-5.926-5.927m14.106,9.453a14.106,14.106,0,1,0-25.476,8.357c.661-3.288,2.258-6.007,5.621-6.007a8.2,8.2,0,0,0,11.5,0c3.363,0,4.959,2.718,5.62,6.007a14.175,14.175,0,0,0,2.737-8.357m2.351,0a16.457,16.457,0,1,1-16.457-16.457,16.465,16.465,0,0,1,16.457,16.457" transform="translate(-5608.331 -33.352)" fill="#e3051b"/>
</svg>
