<svg xmlns="http://www.w3.org/2000/svg" width="77.269" height="77.898" viewBox="0 0 77.269 77.898">
  <g id="purse" transform="translate(1.003 1)">
    <path id="Path_26157" data-name="Path 26157" d="M77.378,58.354A72.909,72.909,0,0,0,70.837,33.57l.3-.15a6.153,6.153,0,0,0,3.123-3.867,6.083,6.083,0,0,0-.75-4.857c-.421-.656-.855-1.3-1.293-1.921a11.964,11.964,0,0,0-5.849-4.4l-.328-.113a1.112,1.112,0,0,0-.719,2.1l.314.108A9.75,9.75,0,0,1,70.4,24.058c.418.592.834,1.21,1.237,1.839a3.8,3.8,0,0,1,.474,3.078,3.924,3.924,0,0,1-1.991,2.466l-.293.149a48.085,48.085,0,0,0-3.063-4.963,5.311,5.311,0,0,0-2.6-1.949,75.735,75.735,0,0,0-24.383-3.8,75.777,75.777,0,0,0-24.384,3.8,5.313,5.313,0,0,0-2.6,1.949A48.084,48.084,0,0,0,9.726,31.59l-.292-.148a3.923,3.923,0,0,1-1.992-2.466,3.805,3.805,0,0,1,.475-3.08c.4-.63.821-1.249,1.237-1.838a9.742,9.742,0,0,1,4.767-3.582A80.478,80.478,0,0,1,39.774,16.43a84.754,84.754,0,0,1,21.358,2.684,1.112,1.112,0,0,0,.567-2.15A84.015,84.015,0,0,0,49.192,14.7,8.21,8.21,0,0,0,44.162,0a8.129,8.129,0,0,0-4.39,1.271A8.21,8.21,0,0,0,30.356,14.7a77.856,77.856,0,0,0-17.172,3.677,11.954,11.954,0,0,0-5.848,4.4c-.435.617-.87,1.263-1.292,1.92a6.084,6.084,0,0,0-.751,4.858A6.151,6.151,0,0,0,8.419,33.42l.295.15A72.913,72.913,0,0,0,2.172,58.354,8.2,8.2,0,0,0,3.737,63.9a19.945,19.945,0,0,0,5.7,5.021,1.112,1.112,0,0,0,1.163-1.9,17.752,17.752,0,0,1-5.075-4.445,5.981,5.981,0,0,1-1.139-4.042c.454-5.5,2.359-19.508,10.217-30.626a3.1,3.1,0,0,1,1.522-1.134,73.463,73.463,0,0,1,23.648-3.672,73.424,73.424,0,0,1,23.648,3.672,3.1,3.1,0,0,1,1.523,1.134C72.8,39.029,74.708,53.032,75.162,58.537a5.981,5.981,0,0,1-1.139,4.041c-2.552,3.46-7.466,6.345-14.211,8.344a72.593,72.593,0,0,1-20.037,2.752c-9.2,0-18.686-1.749-25.365-4.678a1.112,1.112,0,0,0-.893,2.036C20.463,74.079,30.279,75.9,39.775,75.9c13.534,0,29.925-3.71,36.038-12a8.2,8.2,0,0,0,1.565-5.543ZM50.152,8.215a6,6,0,0,1-8.583,5.4,8.191,8.191,0,0,0,0-10.808,6,6,0,0,1,8.583,5.4Zm-20.754,0a5.991,5.991,0,1,1,5.991,5.991A6,6,0,0,1,29.4,8.215Z" transform="translate(-2.144 0)" fill="#ffd100" stroke="#ffd100" stroke-width="2"/>
  </g>
</svg>
