<svg xmlns="http://www.w3.org/2000/svg" width="154.724" height="156" viewBox="0 0 154.724 156">
  <g id="purse" transform="translate(294.863 -140)">
    <path id="Path_26157" data-name="Path 26157" d="M154.8,118.4c-.768-9.31-3.525-30.229-13.273-50.288.2-.1.4-.2.6-.305a12.484,12.484,0,0,0,6.336-7.847,12.343,12.343,0,0,0-1.522-9.854c-.854-1.331-1.736-2.642-2.623-3.9a24.276,24.276,0,0,0-11.868-8.921c-.211-.074-.432-.15-.665-.23a2.256,2.256,0,1,0-1.459,4.269l.636.22a19.784,19.784,0,0,1,9.671,7.266c.847,1.2,1.692,2.456,2.511,3.732a7.72,7.72,0,0,1,.962,6.246,7.963,7.963,0,0,1-4.039,5l-.6.3a97.566,97.566,0,0,0-6.215-10.069,10.777,10.777,0,0,0-5.282-3.955c-6.6-2.316-24.639-7.7-49.474-7.7s-42.872,5.388-49.476,7.7a10.78,10.78,0,0,0-5.28,3.955A97.564,97.564,0,0,0,17.528,64.1c-.194-.1-.391-.2-.593-.3a7.96,7.96,0,0,1-4.042-5,7.721,7.721,0,0,1,.963-6.249c.821-1.279,1.665-2.534,2.509-3.73a19.767,19.767,0,0,1,9.672-7.268c7.048-2.469,26.268-8.211,52.46-8.211a171.971,171.971,0,0,1,43.337,5.445,2.256,2.256,0,1,0,1.15-4.363,170.469,170.469,0,0,0-25.377-4.588A16.658,16.658,0,0,0,87.4,0,16.493,16.493,0,0,0,78.492,2.58a16.658,16.658,0,0,0-19.1,27.248A157.972,157.972,0,0,0,24.546,37.29a24.254,24.254,0,0,0-11.865,8.922c-.883,1.251-1.765,2.562-2.621,3.9a12.344,12.344,0,0,0-1.523,9.857,12.481,12.481,0,0,0,6.339,7.846c.2.1.4.2.6.3C5.726,88.175,2.969,109.094,2.2,118.4a16.646,16.646,0,0,0,3.176,11.249A40.47,40.47,0,0,0,16.946,139.84a2.256,2.256,0,0,0,2.36-3.846,36.019,36.019,0,0,1-10.3-9.019,12.136,12.136,0,0,1-2.311-8.2c.922-11.169,4.786-39.583,20.73-62.142a6.3,6.3,0,0,1,3.088-2.3c6.387-2.24,23.849-7.45,47.984-7.45s41.6,5.21,47.982,7.45a6.291,6.291,0,0,1,3.09,2.3c15.944,22.558,19.809,50.972,20.73,62.142a12.135,12.135,0,0,1-2.311,8.2c-5.177,7.021-15.148,12.875-28.836,16.931A147.295,147.295,0,0,1,78.5,149.489c-18.675,0-37.915-3.548-51.466-9.492a2.256,2.256,0,0,0-1.813,4.132C39.314,150.31,59.231,154,78.5,154c27.46,0,60.72-7.529,73.123-24.349A16.646,16.646,0,0,0,154.8,118.4ZM99.555,16.668A12.165,12.165,0,0,1,82.139,27.634a16.62,16.62,0,0,0,0-21.929A12.164,12.164,0,0,1,99.555,16.668Zm-42.111,0A12.157,12.157,0,1,1,69.6,28.825,12.171,12.171,0,0,1,57.444,16.669Z" transform="translate(-296 141)" fill="#ffd100" stroke="#ffd100" stroke-width="2"/>
  </g>
</svg>
