<svg xmlns="http://www.w3.org/2000/svg" width="26.886" height="42.806" viewBox="0 0 26.886 42.806">
  <g id="salami" transform="translate(0.5 0.5)">
    <path id="Path_26224" data-name="Path 26224" d="M44.6,11.773c-6.432,0-12.943,1.5-12.943,4.362V35.153a12.965,12.965,0,0,0,9.7,12.53,5.253,5.253,0,0,0-2.524,2.041,2.584,2.584,0,0,0-.061,2.313,2.525,2.525,0,0,0,1.823,1.441,3.808,3.808,0,0,0,.854.094,4.562,4.562,0,0,0,2.894-1.048.42.42,0,0,1,.524,0,4.489,4.489,0,0,0,3.748.958,2.525,2.525,0,0,0,1.823-1.441,2.584,2.584,0,0,0-.061-2.313,5.278,5.278,0,0,0-2.524-2.041,12.965,12.965,0,0,0,9.7-12.533V16.136c0-2.864-6.511-4.363-12.943-4.363Zm0,1.4c7.578,0,11.542,1.928,11.542,2.961S52.177,19.1,44.6,19.1s-11.542-1.928-11.542-2.961S37.021,13.174,44.6,13.174Zm4.536,37.21a1.184,1.184,0,0,1,.01,1.1,1.134,1.134,0,0,1-.852.633,3.109,3.109,0,0,1-2.521-.654,1.858,1.858,0,0,0-2.346,0,3.111,3.111,0,0,1-2.521.653,1.134,1.134,0,0,1-.853-.632,1.183,1.183,0,0,1,.01-1.1c.673-1.26,3.389-2.043,4.537-2.275,1.093.223,3.866,1.021,4.536,2.275ZM44.6,46.7A11.555,11.555,0,0,1,33.057,35.153V18.226c2.259,1.5,6.921,2.272,11.542,2.272s9.284-.774,11.542-2.272V35.153A11.555,11.555,0,0,1,44.6,46.7Z" transform="translate(-31.656 -11.773)" fill="#fff" stroke="#fff" stroke-width="1"/>
    <path id="Path_26225" data-name="Path 26225" d="M57.4,19.933c.583,0,1.8,0,1.8-.884s-1.214-.883-1.8-.883-1.8,0-1.8.883S56.813,19.933,57.4,19.933Z" transform="translate(-46.018 -15.608)" fill="#fff" stroke="#fff" stroke-width="1"/>
    <path id="Path_26226" data-name="Path 26226" d="M73.2,22.72c1.091,0,2.391-.193,2.391-1.112s-1.3-1.112-2.391-1.112-2.391.193-2.391,1.112S72.113,22.72,73.2,22.72Z" transform="translate(-55.144 -17.005)" fill="#fff" stroke="#fff" stroke-width="1"/>
    <path id="Path_26227" data-name="Path 26227" d="M45.237,23.4c1.111,0,1.277-.52,1.277-.828s-.166-.828-1.277-.828-1.277.52-1.277.828S44.126,23.4,45.237,23.4Z" transform="translate(-39.036 -17.753)" fill="#fff" stroke="#fff" stroke-width="1"/>
    <path id="Path_26228" data-name="Path 26228" d="M76.583,72.939a.7.7,0,0,0-.845.515,10.4,10.4,0,0,1-5.413,6.4.7.7,0,1,0,.582,1.274A11.628,11.628,0,0,0,77.1,73.781.7.7,0,0,0,76.583,72.939Z" transform="translate(-54.606 -48.451)" fill="#fff" stroke="#fff" stroke-width="1"/>
  </g>
</svg>
