<svg xmlns="http://www.w3.org/2000/svg" width="45.304" height="25" viewBox="0 0 45.304 25">
  <g id="see" transform="translate(0 -132.549)">
    <g id="Group_3011" data-name="Group 3011" transform="translate(0 132.549)">
      <path id="Path_26273" data-name="Path 26273" d="M45.105,144.533c-7.156-7.953-14.7-11.984-22.453-11.984S7.355,136.58.2,144.533a.787.787,0,0,0,0,1.047c7.156,7.937,14.7,11.969,22.453,11.969s15.3-4.031,22.453-11.984A.767.767,0,0,0,45.105,144.533ZM22.652,155.986c-7.109,0-14.125-3.672-20.812-10.937,6.7-7.266,13.7-10.937,20.812-10.937s14.125,3.672,20.812,10.937C36.777,152.314,29.762,155.986,22.652,155.986Z" transform="translate(0 -132.549)" fill="#fff"/>
      <path id="Path_26274" data-name="Path 26274" d="M192.143,183.549a8.594,8.594,0,1,0,8.594,8.594A8.609,8.609,0,0,0,192.143,183.549Zm0,15.625a7.031,7.031,0,1,1,7.031-7.031A7.042,7.042,0,0,1,192.143,199.174Z" transform="translate(-169.49 -179.643)" fill="#fff"/>
      <path id="Path_26275" data-name="Path 26275" d="M223.744,218.117a.381.381,0,0,0-.437-.344,6.624,6.624,0,0,0-5.906,6.094.388.388,0,0,0,.359.422h.031a.392.392,0,0,0,.391-.359,5.884,5.884,0,0,1,5.219-5.391A.375.375,0,0,0,223.744,218.117Z" transform="translate(-200.748 -211.242)" fill="#fff"/>
      <circle id="Ellipse_69" data-name="Ellipse 69" cx="1.562" cy="1.562" r="1.562" transform="translate(21.09 10.937)" fill="#fff"/>
    </g>
  </g>
</svg>
