<svg xmlns="http://www.w3.org/2000/svg" width="38.323" height="66.981" viewBox="0 0 38.323 66.981">
  <g id="Group_2971" data-name="Group 2971" transform="translate(0)">
    <g id="vinegar_1_" data-name="vinegar (1)" transform="translate(0 0)">
      <g id="Group_2970" data-name="Group 2970" transform="translate(0)">
        <g id="Group_2969" data-name="Group 2969">
          <path id="Path_26245" data-name="Path 26245" d="M100.963,14.867a10.348,10.348,0,0,0-5.052,1.327,32.56,32.56,0,0,1,.532-3.632,1.438,1.438,0,0,0-1.01-1.67l-.532-.154.5-9.222A1.437,1.437,0,0,0,93.967,0H86.618a1.437,1.437,0,0,0-1.433,1.547l.5,6.535-2.51-.723a1.437,1.437,0,0,0-1.659,2.071l3.48,6.362a27.766,27.766,0,0,1-5.165,19.581,22.733,22.733,0,0,0-5.064,14.659c0,6.578,1.425,10.733,4.6,13.345a4.066,4.066,0,0,0,4.034,3.6H97.542a4.065,4.065,0,0,0,4.034-3.6c3.177-2.613,4.6-6.768,4.6-13.345a24.752,24.752,0,0,0-.927-6.726,12.728,12.728,0,0,0,5.436-4.956,16.734,16.734,0,0,0,2.4-8.789C113.087,21.458,107.648,14.867,100.963,14.867ZM92.449,2.875l-.383,7.046-3.436-.99-.462-6.056Zm.934,10.417a32.585,32.585,0,0,0,.242,12.4H87.309a32.3,32.3,0,0,0,.516-10.475,1.4,1.4,0,0,0-.17-.555l-1.964-3.59Zm5.98,48.163a1.649,1.649,0,0,0-.647,1.618,1.186,1.186,0,0,1-1.175,1.033H83.4a1.186,1.186,0,0,1-1.175-1.033,1.655,1.655,0,0,0-.648-1.619c-2.724-1.986-3.938-5.509-3.938-11.423A19.946,19.946,0,0,1,81.793,37.51a26.7,26.7,0,0,0,4.743-8.939H94.4a26.692,26.692,0,0,0,4.75,8.941A19.947,19.947,0,0,1,103.3,50.031C103.3,55.945,102.088,59.468,99.363,61.455Zm2.97-24.482a18.508,18.508,0,0,0-1.24-1.623,24.3,24.3,0,0,1-3.314-5.92A28.152,28.152,0,0,1,96.267,24.2a5.36,5.36,0,0,1,4.152-2.222c3.271,0,5.933,3.457,5.933,7.706C106.352,32.993,104.668,35.918,102.334,36.973Zm1.96,3.609q-.24-.567-.508-1.114c3.222-1.593,5.441-5.4,5.441-9.781,0-5.834-3.951-10.58-8.808-10.58a8.376,8.376,0,0,0-4.626,1.945c-.017-.3.013-1,0-1.295.026-.019.053-.036.078-.057a7.837,7.837,0,0,1,5.087-1.958c5.1,0,9.249,5.3,9.249,11.819C110.212,34.454,107.818,38.834,104.294,40.582Z" transform="translate(-74.764 0)" fill="#fff"/>
        </g>
      </g>
    </g>
    <g id="grape" transform="translate(8.373 39.072)">
      <path id="Path_26252" data-name="Path 26252" d="M57.222,6.445A2.486,2.486,0,0,0,55.6,5.073a4.186,4.186,0,0,0-1.635-.11,8.592,8.592,0,0,1,1.686-.449c.088-.01.177-.018.266-.024a.838.838,0,0,0,.824-.824.828.828,0,0,0-.824-.824,8.868,8.868,0,0,0-2.793.69,11.354,11.354,0,0,0-2.64,1.5,9.429,9.429,0,0,0,.242-1.488A4.342,4.342,0,0,0,50.6,2.1,3.577,3.577,0,0,0,49.852.726a4.253,4.253,0,0,0-.621-.577A.363.363,0,0,0,49.2.117a.421.421,0,0,0-.583,0A2.139,2.139,0,0,0,48,1.308a6.926,6.926,0,0,0-.152,1.382A5.46,5.46,0,0,0,48.6,5.666q.059.1.124.193a3.074,3.074,0,0,0-1.2.045q-.01-.108-.028-.217A3.076,3.076,0,1,0,42.224,8.3a3.072,3.072,0,0,0-.48,4.622,3.074,3.074,0,1,0,4.7,3.387,3.051,3.051,0,0,0,1.313.295A3.082,3.082,0,0,0,50.715,14.4,3.052,3.052,0,0,0,52,14.681a3.076,3.076,0,1,0-.711-6.067,3.086,3.086,0,0,0-.544-1.485c.04-.034.08-.068.122-.1l.03-.023.091-.065c.068-.048.138-.094.208-.14a6.922,6.922,0,0,1,.927-.493l.078-.034.09-.037c.091-.036.182-.07.274-.1q.267-.1.541-.17t.551-.127c.084-.016.168-.029.253-.042l.056-.007.153-.015a4.708,4.708,0,0,1,.536-.016c.083,0,.166.008.249.015l.057.006.115.017a2.833,2.833,0,0,1,.473.125l.075.029.054.025a2.155,2.155,0,0,1,.213.119c.032.02.063.041.093.063L56,6.17l.006,0a1.941,1.941,0,0,1,.179.168c.026.028.052.057.076.086l.014.018,0,.006a2.06,2.06,0,0,1,.139.221c.02.036.039.074.057.111l.02.045a2.16,2.16,0,0,1,.095.292c.005.022.009.044.013.065v.009a1.318,1.318,0,0,1,0,.158c0,.026,0,.052-.005.078h0a1.5,1.5,0,0,1-.041.172c-.007.022-.042.115-.041.117-.016.034-.033.067-.051.1s-.054.091-.083.136l-.015.022s-.039.049-.05.063a1.688,1.688,0,0,1-.2.192c.008-.009-.081.057-.1.07a1.6,1.6,0,0,1-.162.088l-.007,0-.065.023a1.435,1.435,0,0,1-.152.041l-.03.006-.042.005a1.31,1.31,0,0,1-.186,0l-.034,0L55.3,8.458a1.27,1.27,0,0,1-.155-.044h0L55.108,8.4c-.02-.011-.076-.049-.093-.059l-.043-.041c-.011-.011-.033-.038-.048-.056S54.9,8.2,54.89,8.184s-.03-.061-.04-.084a1.1,1.1,0,0,1-.037-.144c0-.01,0-.02,0-.031a1.015,1.015,0,0,1,0-.122V7.794a.858.858,0,0,1,.025-.1l0-.011c.008-.016.017-.032.026-.047A.5.5,0,0,1,54.9,7.6l0,0,.035-.018.03-.008.025,0h.044l.043.007a1.066,1.066,0,0,1,.108.031A.414.414,0,0,0,55.7,7.32a.419.419,0,0,0-.288-.507,1.045,1.045,0,0,0-1.142.26,1.316,1.316,0,0,0-.244,1.139,1.361,1.361,0,0,0,.722.923,1.783,1.783,0,0,0,1.576-.056,2.142,2.142,0,0,0,1-1.157,1.715,1.715,0,0,0,.105-.727A2.326,2.326,0,0,0,57.222,6.445ZM48.7,3.52V3.508c0-.04-.009-.08-.013-.12A6.93,6.93,0,0,1,48.7,2.14c0-.053.01-.107.016-.16,0-.027.006-.054.009-.081v0q.024-.172.061-.341c.022-.1.05-.205.082-.306.015-.049.033-.1.051-.144l0-.006c.011-.025.023-.05.035-.075L48.968,1,49,1.031a3.689,3.689,0,0,1,.286.3l.058.071h0l.008.011c.035.047.069.1.1.145a3.043,3.043,0,0,1,.185.321c.019.037.036.076.053.114-.01-.02.037.095.045.118a3.125,3.125,0,0,1,.1.339c.012.053.023.106.033.159,0,.021.016.105.019.123.012.1.019.205.023.308a5.067,5.067,0,0,1-.026.7c0,.042-.009.085-.014.127,0-.012-.015.109-.019.134-.019.125-.042.25-.067.375-.078.393-.178.781-.282,1.169L49.5,5.53c-.024-.033-.047-.066-.07-.1a4.369,4.369,0,0,1-.379-.681l-.02-.046L49,4.643c-.024-.059-.046-.119-.067-.179-.046-.13-.086-.261-.122-.394s-.06-.244-.083-.367C48.717,3.642,48.707,3.581,48.7,3.52Zm.449,4.1a1.577,1.577,0,0,1,.415,2.118l-.058.078-.056.081a1.582,1.582,0,0,1-1.222.579,1.576,1.576,0,0,1-1.332-2.414l.058-.078.056-.081A1.582,1.582,0,0,1,48.23,7.32,1.563,1.563,0,0,1,49.147,7.616ZM42.708,9.9a1.581,1.581,0,0,1,1.282-.657,1.576,1.576,0,0,1,1.332,2.414l-.058.078c-.019.027-.038.054-.056.081a1.582,1.582,0,0,1-1.222.579A1.576,1.576,0,0,1,42.708,9.9Zm.466-4.637a1.581,1.581,0,0,1,1.282-.657,1.575,1.575,0,0,1,1.332,2.414L45.73,7.1l-.056.081a1.582,1.582,0,0,1-1.222.579,1.576,1.576,0,0,1-1.278-2.494Zm1.6,11.106a1.581,1.581,0,0,1-1.282.657,1.576,1.576,0,0,1-1.278-2.494,1.581,1.581,0,0,1,1.282-.657,1.576,1.576,0,0,1,1.278,2.494Zm4.27-1.923a1.581,1.581,0,0,1-1.282.657,1.576,1.576,0,0,1-1.332-2.414l.058-.078c.019-.027.038-.054.056-.081a1.582,1.582,0,0,1,1.222-.579,1.576,1.576,0,0,1,1.278,2.494Zm3.879-4.126a1.576,1.576,0,0,1,.361,2.2A1.581,1.581,0,0,1,52,13.181a1.576,1.576,0,0,1-1.332-2.414l.058-.078c.019-.027.038-.054.056-.081A1.582,1.582,0,0,1,52,10.029,1.564,1.564,0,0,1,52.921,10.325Z" transform="translate(-40.418 0)" fill="#fff"/>
    </g>
  </g>
</svg>
